<?xml version="1.0" encoding="utf-8"?>
<!-- Generator: Adobe Illustrator 23.0.4, SVG Export Plug-In . SVG Version: 6.00 Build 0)  -->
<svg version="1.1" xmlns="http://www.w3.org/2000/svg" xmlns:xlink="http://www.w3.org/1999/xlink" x="0px" y="0px"
	 viewBox="0 0 748.99 440.3" style="enable-background:new 0 0 748.99 440.3;" xml:space="preserve">
<style type="text/css">
	.st0{fill:url(#Ozonlaag_2_);}
	.st1{fill:#FABB56;}
	.st2{fill:#DDBE9B;}
	.st3{fill:#0071BC;}
	.st4{fill:#489374;}
	.st5{fill:#D3424D;}
	.st6{fill:#AF2C3C;}
	.st7{fill:#287F5C;}
	.st8{fill:#38A179;}
	.st9{fill:#754C24;}
	.st10{fill:#2C966A;}
	.st11{fill:url(#Path_8_2_);}
	.st12{fill:url(#Path_9_2_);}
	.st13{fill:url(#Path_11_2_);}
	.st14{fill:url(#Path_17_2_);}
	.st15{fill:url(#Path_18_2_);}
	.st16{fill:url(#Path_20_2_);}
	.st17{fill:url(#Path_26_2_);}
	.st18{fill:url(#Path_27_2_);}
	.st19{fill:url(#Path_29_2_);}
	.st20{fill:url(#Path_31_2_);}
	.st21{fill:url(#Path_34_2_);}
	.st22{fill:#68A8C1;}
	.st23{fill:#71B5D8;}
	.st24{fill:#62A3BC;}
	.st25{fill:#78BFEA;}
	.st26{fill:#B3D9E5;}
	.st27{opacity:0.5;fill:#B3D9E5;enable-background:new    ;}
	.st28{fill:#3B5093;}
	.st29{fill:#485CAF;}
	.st30{fill:url(#Path_2_2_);}
	.st31{fill:#393D75;}
	.st32{fill:#585D89;}
	.st33{fill:#F23B68;}
	.st34{fill:#D32F5E;}
	.st35{fill:none;stroke:#585D89;stroke-miterlimit:10;}
	.st36{fill:#29C6B5;}
	.st37{fill:url(#Path_106_1_);}
	.st38{fill:#B72C5A;}
	.st39{fill:#445FB5;}
	.st40{opacity:0.7;fill:#393D75;enable-background:new    ;}
	.st41{opacity:0.7;fill:url(#Rectangle_47_2_);enable-background:new    ;}
	.st42{opacity:0.7;fill:url(#Rectangle_48_2_);enable-background:new    ;}
	.st43{opacity:0.7;fill:url(#Rectangle_49_2_);enable-background:new    ;}
	.st44{opacity:0.4;fill:#FDB65B;enable-background:new    ;}
	.st45{fill:#A52556;}
	.st46{fill:#5F3D75;}
	.st47{opacity:0.2;fill:#38A179;enable-background:new    ;}
	.st48{fill:url(#Rectangle_88_1_);}
	.st49{opacity:0.7;fill:url(#Rectangle_136_2_);enable-background:new    ;}
	.st50{opacity:0.7;fill:url(#Rectangle_137_2_);enable-background:new    ;}
	.st51{fill:#E6E6E6;}
	.st52{fill:#FFFFFF;}
	.st53{fill:#E2E2E2;}
	.st54{fill:none;}
	.st55{fill:#42477A;}
	.st56{fill:#394072;}
	.st57{fill:#888FB5;}
	.st58{fill:#2D3159;}
	.st59{fill:#E79DC0;}
	.st60{fill:#B72757;}
	.st61{fill:#337C5B;}
	.st62{fill:url(#Path_214_1_);}
	.st63{fill:url(#Path_216_1_);}
	.st64{fill:url(#Path_219_1_);}
	.st65{fill:url(#SVGID_1_);}
	.st66{fill:url(#SVGID_2_);}
	.st67{fill:url(#SVGID_3_);}
	.st68{fill:url(#SVGID_4_);}
	.st69{opacity:0.7;fill:url(#Rectangle_47_3_);enable-background:new    ;}
	.st70{opacity:0.7;fill:url(#Rectangle_48_3_);enable-background:new    ;}
	.st71{opacity:0.7;fill:url(#Rectangle_49_3_);enable-background:new    ;}
	.st72{opacity:0.7;fill:url(#Rectangle_136_3_);enable-background:new    ;}
	.st73{opacity:0.7;fill:url(#Rectangle_137_3_);enable-background:new    ;}
	.st74{fill:url(#Path_2_3_);}
	.st75{fill:#485EB0;}
	.st76{fill:url(#Path_77_1_);}
	.st77{fill:none;stroke:#485EB0;stroke-width:5;stroke-miterlimit:10;}
	.st78{fill:#CCCCCC;}
	.st79{opacity:0.54;fill:#CCCCCC;enable-background:new    ;}
	
		.st80{opacity:0.35;fill:none;stroke:#808080;stroke-width:0.5;stroke-linecap:round;stroke-miterlimit:10;enable-background:new    ;}
	.st81{fill:url(#Path_92_2_);}
	.st82{fill:url(#Path_93_2_);}
	.st83{fill:url(#Path_94_2_);}
	.st84{fill:url(#Path_95_2_);}
	.st85{fill:url(#Waterdunner_2_);}
	.st86{fill:url(#Waterdikker_5_);}
	.st87{fill:url(#Ozonlaag_3_);}
	.st88{fill:url(#Waterdikker_7_);}
	.st89{fill:url(#Waterdikker_8_);}
	.st90{fill:url(#Path_94_3_);}
	.st91{fill:url(#Path_95_3_);}
	.st92{fill:url(#Waterdikker_9_);}
	.st93{fill:url(#Waterdikker_10_);}
	.st94{fill:url(#SVGID_5_);}
	.st95{fill:url(#Waterdikker_11_);}
	.st96{fill:url(#Path_92_3_);}
	.st97{fill:url(#Path_93_3_);}
	.st98{fill:url(#Waterdunner_3_);}
	.st99{fill:#F2F2F2;}
</style>
<g id="Layer_1">
	<rect id="Rectangle_40_1_" class="st38" width="748.99" height="436.3"/>
	<path id="Rectangle_42_1_" class="st34" d="M121.58,26.03H626.2c47.2,0,85.46,38.26,85.46,85.46l0,0v324.67l0,0H36.12l0,0V111.49
		C36.12,64.29,74.38,26.03,121.58,26.03z"/>
	<path id="Rectangle_43_1_" class="st40" d="M126.38,291.62L126.38,291.62c18.69,0,33.84,15.15,33.84,33.84c0,0,0,0,0,0v110.82l0,0
		H92.54l0,0V325.46C92.54,306.77,107.69,291.62,126.38,291.62L126.38,291.62z"/>
	<path id="Rectangle_44_1_" class="st40" d="M219.83,291.62L219.83,291.62c18.69,0,33.84,15.15,33.84,33.84c0,0,0,0,0,0v110.82l0,0
		h-67.68l0,0V325.46C185.99,306.77,201.14,291.62,219.83,291.62L219.83,291.62z"/>
	<path id="Rectangle_45_1_" class="st40" d="M316.87,291.62L316.87,291.62c18.69,0,33.84,15.15,33.84,33.84c0,0,0,0,0,0v110.82l0,0
		h-67.68l0,0V325.46C283.03,306.77,298.18,291.62,316.87,291.62L316.87,291.62z"/>
	<path id="Rectangle_46_1_" class="st40" d="M413.91,291.62L413.91,291.62c18.69,0,33.84,15.15,33.84,33.84c0,0,0,0,0,0v110.82l0,0
		h-67.68l0,0V325.46C380.06,306.77,395.22,291.62,413.91,291.62L413.91,291.62z"/>
	
		<linearGradient id="Rectangle_47_2_" gradientUnits="userSpaceOnUse" x1="-7313.625" y1="1663.6007" x2="-7313.6357" y2="1662.9788" gradientTransform="matrix(58.285 0 0 -121.164 426591.7812 201929.2031)">
		<stop  offset="1.000000e-03" style="stop-color:#393D75;stop-opacity:0.2"/>
		<stop  offset="0.14" style="stop-color:#4D3C73;stop-opacity:0.29"/>
		<stop  offset="0.438" style="stop-color:#823C6F;stop-opacity:0.518"/>
		<stop  offset="0.867" style="stop-color:#D73B69;stop-opacity:0.882"/>
		<stop  offset="0.999" style="stop-color:#F23B68"/>
	</linearGradient>
	<path id="Rectangle_47_1_" class="st41" d="M316.91,315.37L316.91,315.37c16.09,0,29.14,13.05,29.14,29.14v92.02l0,0h-58.29l0,0
		v-92.02C287.76,328.42,300.81,315.37,316.91,315.37z"/>
	
		<linearGradient id="Rectangle_48_2_" gradientUnits="userSpaceOnUse" x1="-7313.625" y1="1663.6007" x2="-7313.6357" y2="1662.9788" gradientTransform="matrix(58.285 0 0 -121.164 426494.7812 201929.2031)">
		<stop  offset="1.000000e-03" style="stop-color:#393D75;stop-opacity:0.2"/>
		<stop  offset="0.14" style="stop-color:#4D3C73;stop-opacity:0.29"/>
		<stop  offset="0.438" style="stop-color:#823C6F;stop-opacity:0.518"/>
		<stop  offset="0.867" style="stop-color:#D73B69;stop-opacity:0.882"/>
		<stop  offset="0.999" style="stop-color:#F23B68"/>
	</linearGradient>
	<path id="Rectangle_48_1_" class="st42" d="M219.91,315.37L219.91,315.37c16.09,0,29.14,13.05,29.14,29.14v92.02l0,0h-58.29l0,0
		v-92.02C190.76,328.42,203.81,315.37,219.91,315.37z"/>
	
		<linearGradient id="Rectangle_49_2_" gradientUnits="userSpaceOnUse" x1="-7313.625" y1="1663.6007" x2="-7313.6357" y2="1662.9788" gradientTransform="matrix(58.285 0 0 -121.164 426784.7812 201929.2031)">
		<stop  offset="1.000000e-03" style="stop-color:#393D75;stop-opacity:0.2"/>
		<stop  offset="0.14" style="stop-color:#4D3C73;stop-opacity:0.29"/>
		<stop  offset="0.438" style="stop-color:#823C6F;stop-opacity:0.518"/>
		<stop  offset="0.867" style="stop-color:#D73B69;stop-opacity:0.882"/>
		<stop  offset="0.999" style="stop-color:#F23B68"/>
	</linearGradient>
	<path id="Rectangle_49_1_" class="st43" d="M509.91,315.37L509.91,315.37c16.09,0,29.14,13.05,29.14,29.14v92.02l0,0h-58.28l0,0
		v-92.02C480.76,328.42,493.81,315.37,509.91,315.37z"/>
	<path id="Rectangle_50_1_" class="st40" d="M510.94,291.62L510.94,291.62c18.69,0,33.84,15.15,33.84,33.84c0,0,0,0,0,0v110.82l0,0
		H477.1l0,0V325.46C477.1,306.77,492.25,291.62,510.94,291.62L510.94,291.62z"/>
	<path id="Rectangle_51_1_" class="st40" d="M607.98,291.62L607.98,291.62c18.69,0,33.84,15.15,33.84,33.84c0,0,0,0,0,0v110.82l0,0
		h-67.68l0,0V325.46C574.14,306.77,589.29,291.62,607.98,291.62L607.98,291.62z"/>
	<path id="Rectangle_52_1_" class="st40" d="M126.38,114.62L126.38,114.62c18.69,0,33.84,15.15,33.84,33.84c0,0,0,0,0,0v110.82l0,0
		H92.54l0,0V148.46C92.54,129.77,107.69,114.62,126.38,114.62L126.38,114.62z"/>
	<path id="Rectangle_53_1_" class="st40" d="M219.83,114.62L219.83,114.62c18.69,0,33.84,15.15,33.84,33.84c0,0,0,0,0,0v110.82l0,0
		h-67.68l0,0V148.46C185.99,129.77,201.14,114.62,219.83,114.62L219.83,114.62z"/>
	<path id="Rectangle_54_1_" class="st40" d="M316.87,114.62L316.87,114.62c18.69,0,33.84,15.15,33.84,33.84c0,0,0,0,0,0v110.82l0,0
		h-67.68l0,0V148.46C283.03,129.77,298.18,114.62,316.87,114.62L316.87,114.62z"/>
	<path id="Rectangle_55_1_" class="st40" d="M413.91,114.62L413.91,114.62c18.69,0,33.84,15.15,33.84,33.84c0,0,0,0,0,0v110.82l0,0
		h-67.68l0,0V148.46C380.06,129.77,395.22,114.62,413.91,114.62L413.91,114.62z"/>
	<path id="Rectangle_56_1_" class="st40" d="M510.94,114.62L510.94,114.62c18.69,0,33.84,15.15,33.84,33.84c0,0,0,0,0,0v110.82l0,0
		H477.1l0,0V148.46C477.1,129.77,492.25,114.62,510.94,114.62L510.94,114.62z"/>
	<path id="Rectangle_57_1_" class="st40" d="M607.98,114.62L607.98,114.62c18.69,0,33.84,15.15,33.84,33.84c0,0,0,0,0,0v110.82l0,0
		h-67.68l0,0V148.46C574.14,129.77,589.29,114.62,607.98,114.62L607.98,114.62z"/>
	<path id="Rectangle_58_1_" class="st44" d="M126.68,142.47L126.68,142.47c5.46,0,9.88,4.43,9.88,9.88l0,0v106.92l0,0H116.8l0,0
		V152.35C116.8,146.9,121.23,142.47,126.68,142.47L126.68,142.47z"/>
	<path id="Rectangle_59_1_" class="st44" d="M103.32,162.24L103.32,162.24c5.46,0,9.88,4.43,9.88,9.88l0,0v87.15l0,0H93.44l0,0
		v-87.15C93.44,166.66,97.87,162.24,103.32,162.24L103.32,162.24z"/>
	<path id="Rectangle_60_1_" class="st44" d="M149.15,162.24L149.15,162.24c5.46,0,9.88,4.43,9.88,9.88l0,0v87.15l0,0h-19.77l0,0
		v-87.15C139.26,166.66,143.69,162.24,149.15,162.24L149.15,162.24z"/>
	<path id="Rectangle_61_1_" class="st44" d="M220.13,142.47L220.13,142.47c5.46,0,9.88,4.43,9.88,9.88l0,0v106.92l0,0h-19.77l0,0
		V152.35C210.25,146.9,214.67,142.47,220.13,142.47L220.13,142.47z"/>
	<path id="Rectangle_62_1_" class="st44" d="M196.77,162.24L196.77,162.24c5.46,0,9.88,4.43,9.88,9.88l0,0v87.15l0,0h-19.77l0,0
		v-87.15C186.88,166.66,191.31,162.24,196.77,162.24L196.77,162.24z"/>
	<path id="Rectangle_63_1_" class="st44" d="M242.59,162.24L242.59,162.24c5.46,0,9.88,4.43,9.88,9.88l0,0v87.15l0,0h-19.77l0,0
		v-87.15C232.71,166.66,237.13,162.24,242.59,162.24L242.59,162.24z"/>
	<path id="Rectangle_64_1_" class="st44" d="M317.17,142.47L317.17,142.47c5.46,0,9.88,4.43,9.88,9.88l0,0v106.92l0,0h-19.77l0,0
		V152.35C307.29,146.9,311.71,142.47,317.17,142.47L317.17,142.47z"/>
	<path id="Rectangle_65_1_" class="st44" d="M293.81,162.24L293.81,162.24c5.46,0,9.88,4.43,9.88,9.88l0,0v87.15l0,0h-19.77l0,0
		v-87.15C283.92,166.66,288.35,162.24,293.81,162.24L293.81,162.24z"/>
	<path id="Rectangle_66_1_" class="st44" d="M339.63,162.24L339.63,162.24c5.46,0,9.88,4.43,9.88,9.88l0,0v87.15l0,0h-19.77l0,0
		v-87.15C329.75,166.66,334.17,162.24,339.63,162.24L339.63,162.24z"/>
	<path id="Rectangle_67_1_" class="st44" d="M414.21,142.47L414.21,142.47c5.46,0,9.88,4.43,9.88,9.88l0,0v106.92l0,0h-19.77l0,0
		V152.35C404.32,146.9,408.75,142.47,414.21,142.47L414.21,142.47z"/>
	<path id="Rectangle_68_1_" class="st44" d="M390.85,162.24L390.85,162.24c5.46,0,9.88,4.43,9.88,9.88l0,0v87.15l0,0h-19.77l0,0
		v-87.15C380.96,166.66,385.39,162.24,390.85,162.24L390.85,162.24z"/>
	<path id="Rectangle_69_1_" class="st44" d="M436.67,162.24L436.67,162.24c5.46,0,9.88,4.43,9.88,9.88l0,0v87.15l0,0h-19.77l0,0
		v-87.15C426.79,166.66,431.21,162.24,436.67,162.24L436.67,162.24z"/>
	<path id="Rectangle_70_1_" class="st44" d="M511.25,142.47L511.25,142.47c5.46,0,9.88,4.43,9.88,9.88l0,0v106.92l0,0h-19.77l0,0
		V152.35C501.36,146.9,505.79,142.47,511.25,142.47L511.25,142.47z"/>
	<path id="Rectangle_71_1_" class="st44" d="M487.88,162.24L487.88,162.24c5.46,0,9.88,4.43,9.88,9.88l0,0v87.15l0,0H478l0,0v-87.15
		C478,166.66,482.43,162.24,487.88,162.24L487.88,162.24z"/>
	<path id="Rectangle_72_1_" class="st44" d="M533.71,162.24L533.71,162.24c5.46,0,9.88,4.43,9.88,9.88l0,0v87.15l0,0h-19.77l0,0
		v-87.15C523.82,166.66,528.25,162.24,533.71,162.24L533.71,162.24z"/>
	<path id="Rectangle_73_1_" class="st44" d="M609.18,142.47L609.18,142.47c5.46,0,9.88,4.43,9.88,9.88l0,0v106.92l0,0H599.3l0,0
		V152.35C599.3,146.9,603.72,142.47,609.18,142.47L609.18,142.47z"/>
	<path id="Rectangle_74_1_" class="st44" d="M585.82,162.24L585.82,162.24c5.46,0,9.88,4.43,9.88,9.88l0,0v87.15l0,0h-19.77l0,0
		v-87.15C575.94,166.66,580.36,162.24,585.82,162.24L585.82,162.24z"/>
	<path id="Rectangle_75_1_" class="st44" d="M631.65,162.24L631.65,162.24c5.46,0,9.88,4.43,9.88,9.88l0,0v87.15l0,0h-19.77l0,0
		v-87.15C621.76,166.66,626.19,162.24,631.65,162.24L631.65,162.24z"/>
	<rect id="Rectangle_76_1_" x="35.04" y="270.96" class="st8" width="677.47" height="8.98"/>
	<path id="Path_108_1_" class="st39" d="M704.42,69.69H43.12l-3.59,8.99h8.09v17.97H58.4V78.68h8.09v17.97h10.78V78.68h8.08v17.97
		h10.78V78.68h8.09v17.97H115V78.68h8.09v17.97h10.78V78.68h8.09v17.97h10.78V78.68h8.09v17.97h10.79V78.68h8.09v17.97h10.78V78.68
		h8.09v17.97h10.79V78.68h8.09v17.97h10.78V78.68h8.09v17.97h10.78V78.68h8.09v17.97h10.78V78.68h8.09v17.97h10.78V78.68h8.09v17.97
		h10.78V78.68h8.09v17.97h10.78V78.68h8.09v17.97h10.78V78.68h8.09v17.97h10.78V78.68h8.09v17.97h10.78V78.68h8.09v17.97h10.78
		V78.68h8.09v17.97h10.78V78.68h8.09v17.97h10.78V78.68h8.09v17.97h10.78V78.68h8.09v17.97h10.78V78.68h8.09v17.97h10.78V78.68h8.09
		v17.97h10.79V78.68h8.09v17.97h10.78V78.68h8.09v17.97h10.78V78.68h8.09v17.97h10.78V78.68h8.09v17.97h10.78V78.68h8.09v17.97
		h10.78V78.68h8.09v17.97h10.78V78.68h8.09v17.97h10.78V78.68h8.09v17.97h10.78V78.68h8.09v17.97h10.78V78.68h8.09v17.97h10.78
		V78.68h8.09L704.42,69.69z"/>
	<path id="Path_109_1_" class="st8" d="M711.66,100.24H36.12l0.32-4.49h674.9L711.66,100.24z"/>
	<path id="Path_110_1_" class="st39" d="M641.53,235.91h-67.39v6.29h0.19v17.07h7.05V242.2h4.39v17.07h7.05V242.2h5.29v17.07h7.05
		V242.2h5.29v17.07h7.05V242.2h5.29v17.07h7.05V242.2h4.68v17.07h7.05v-23.36H641.53z"/>
	<path id="Path_111_1_" class="st39" d="M544.49,235.91H477.1v6.29h0.19v17.07h7.05V242.2h4.39v17.07h7.05V242.2h5.29v17.07h7.05
		V242.2h5.29v17.07h7.05V242.2h5.29v17.07h7.05V242.2h4.68v17.07h7.05v-23.36H544.49z"/>
	<path id="Path_112_1_" class="st39" d="M447.45,235.91h-67.39v6.29h0.19v17.07h7.05V242.2h4.39v17.07h7.05V242.2h5.29v17.07h7.05
		V242.2h5.29v17.07h7.05V242.2h5.29v17.07h7.05V242.2h4.68v17.07h7.05v-23.36H447.45z"/>
	<path id="Path_113_1_" class="st39" d="M350.41,235.91h-67.39v6.29h0.19v17.07h7.05V242.2h4.39v17.07h7.05V242.2H307v17.07h7.05
		V242.2h5.29v17.07h7.05V242.2h5.29v17.07h7.05V242.2h4.68v17.07h7.05v-23.36H350.41z"/>
	<path id="Path_114_1_" class="st39" d="M253.37,235.91h-67.39v6.29h0.19v17.07h7.05V242.2h4.39v17.07h7.05V242.2h5.29v17.07h7.05
		V242.2h5.29v17.07h7.05V242.2h5.29v17.07h7.05V242.2h4.68v17.07h7.05v-23.36H253.37z"/>
	<path id="Path_115_1_" class="st39" d="M159.93,235.91H92.54v6.29h0.19v17.07h7.05V242.2h4.39v17.07h7.05V242.2h5.29v17.07h7.05
		V242.2h5.29v17.07h7.05V242.2h5.29v17.07h7.06V242.2h4.68v17.07h7.05v-23.36H159.93z"/>
	<g id="Group_20_1_">
		<path id="Path_116_1_" class="st38" d="M176.1,427.3v-8.98h-21.61v-17.07h-21.61v-17.07h-21.61V367.1H89.64v-17.03H68.03v-16.22
			H35.04v102.43H176.1V427.3L176.1,427.3z"/>
		<g id="Group_19_1_">
			<path id="Path_117_1_" class="st38" d="M63.84,316.78h-28.8v17.07h31.45v-17.07H63.84z"/>
			<path id="Path_118_1_" class="st45" d="M56.18,299.71H35.04v17.07h28.8v-17.07L56.18,299.71L56.18,299.71z"/>
			<path id="Path_119_1_" class="st38" d="M53.54,282.64h-18.5v17.07H61.2v-17.07H53.54L53.54,282.64z"/>
			<path id="Path_120_1_" class="st45" d="M50.89,265.57H35.04v17.07h23.52v-17.07H50.89z"/>
			<path id="Path_121_1_" class="st38" d="M48.25,248.49H35.04v17.07h20.88v-17.07L48.25,248.49L48.25,248.49z"/>
			<path id="Path_122_1_" class="st45" d="M45.61,231.42H35.04v17.07h18.23v-17.07H45.61L45.61,231.42z"/>
			<path id="Path_123_1_" class="st38" d="M43.23,231.42h7.4v-17.07H35.04v17.07H43.23z"/>
		</g>
	</g>
	<g id="Group_22_1_">
		<path id="Path_124_1_" class="st38" d="M571.45,427.3v-8.98h21.61v-17.07h21.61v-17.07h21.61V367.1h21.61v-17.03h21.61v-16.22
			h32.99v102.43H571.45V427.3L571.45,427.3z"/>
		<g id="Group_21_1_">
			<path id="Path_125_1_" class="st38" d="M683.71,316.78h28.81v17.07h-31.45v-17.07H683.71z"/>
			<path id="Path_126_1_" class="st45" d="M691.37,299.71h21.14v17.07h-28.81v-17.07L691.37,299.71L691.37,299.71z"/>
			<path id="Path_127_1_" class="st38" d="M694.01,282.64h18.5v17.07h-26.16v-17.07H694.01L694.01,282.64z"/>
			<path id="Path_128_1_" class="st45" d="M696.66,265.57h15.86v17.07h-23.52v-17.07H696.66L696.66,265.57z"/>
			<path id="Path_129_1_" class="st38" d="M699.3,248.49h13.21v17.07h-20.88v-17.07L699.3,248.49L699.3,248.49z"/>
			<path id="Path_130_1_" class="st45" d="M701.94,231.42h10.57v17.07h-18.23v-17.07H701.94L701.94,231.42z"/>
			<path id="Path_131_1_" class="st38" d="M704.32,231.42h-7.4v-17.07h15.59v17.07H704.32z"/>
		</g>
	</g>
	<path id="Path_132_1_" class="st31" d="M50.31,152.36c0-12.41-6.03-22.47-13.48-22.47l0,0v84.46h13.48V152.36z"/>
	<path id="Path_133_1_" class="st31" d="M698.14,152.36c0-12.41,6.03-22.47,13.48-22.47l0,0v84.46h-13.48V152.36z"/>
	
		<linearGradient id="Rectangle_136_2_" gradientUnits="userSpaceOnUse" x1="-7313.625" y1="1663.6007" x2="-7313.6357" y2="1662.9788" gradientTransform="matrix(58.285 0 0 -121.164 426688.7812 201929.2031)">
		<stop  offset="1.000000e-03" style="stop-color:#393D75;stop-opacity:0.2"/>
		<stop  offset="0.14" style="stop-color:#4D3C73;stop-opacity:0.29"/>
		<stop  offset="0.438" style="stop-color:#823C6F;stop-opacity:0.518"/>
		<stop  offset="0.867" style="stop-color:#D73B69;stop-opacity:0.882"/>
		<stop  offset="0.999" style="stop-color:#F23B68"/>
	</linearGradient>
	<path id="Rectangle_136_1_" class="st49" d="M413.91,315.37L413.91,315.37c16.09,0,29.14,13.05,29.14,29.14v92.02l0,0h-58.29l0,0
		v-92.02C384.76,328.42,397.81,315.37,413.91,315.37z"/>
	
		<linearGradient id="Rectangle_137_2_" gradientUnits="userSpaceOnUse" x1="-7313.625" y1="1663.6007" x2="-7313.6357" y2="1662.9788" gradientTransform="matrix(58.285 0 0 -121.164 426785.7812 201929.2031)">
		<stop  offset="1.000000e-03" style="stop-color:#393D75;stop-opacity:0.2"/>
		<stop  offset="0.14" style="stop-color:#4D3C73;stop-opacity:0.29"/>
		<stop  offset="0.438" style="stop-color:#823C6F;stop-opacity:0.518"/>
		<stop  offset="0.867" style="stop-color:#D73B69;stop-opacity:0.882"/>
		<stop  offset="0.999" style="stop-color:#F23B68"/>
	</linearGradient>
	<path id="Rectangle_137_1_" class="st50" d="M510.91,315.37L510.91,315.37c16.09,0,29.14,13.05,29.14,29.14v92.02l0,0h-58.28l0,0
		v-92.02C481.76,328.42,494.81,315.37,510.91,315.37z"/>
	<g id="Group_26_1_">
		<circle id="Ellipse_11_1_" class="st51" cx="605.57" cy="357.87" r="6.38"/>
		<path id="Rectangle_153_1_" class="st51" d="M611.64,365.81l6.47,11.2c0.51,0.88,0.21,2.02-0.68,2.53l0,0
			c-0.88,0.51-2.02,0.21-2.53-0.68l-6.47-11.2c-0.51-0.88-0.21-2.02,0.68-2.53l0,0C610,364.62,611.13,364.92,611.64,365.81z"/>
		<path id="Rectangle_154_1_" class="st51" d="M609.4,379.31L609.4,379.31c1.06,0,1.91,0.86,1.91,1.91v16.84
			c0,1.06-0.86,1.91-1.91,1.91l0,0c-1.06,0-1.91-0.86-1.91-1.91v-16.84C607.48,380.16,608.34,379.31,609.4,379.31z"/>
		<path id="Rectangle_155_1_" class="st51" d="M603.15,379.31L603.15,379.31c1.06,0,1.91,0.86,1.91,1.91v16.84
			c0,1.06-0.86,1.91-1.91,1.91l0,0c-1.06,0-1.91-0.86-1.91-1.91v-16.84C601.23,380.16,602.09,379.31,603.15,379.31z"/>
		<path id="Rectangle_156_1_" class="st51" d="M605.82,364.25L605.82,364.25c3.66,0,6.64,2.97,6.64,6.64v4.85
			c0,3.66-2.97,6.64-6.64,6.64l0,0c-3.66,0-6.64-2.97-6.64-6.64v-4.85C599.19,367.22,602.16,364.25,605.82,364.25z"/>
		<path id="Rectangle_157_1_" class="st51" d="M602.5,367.37l-1.96,11.61c-0.17,1.01-1.13,1.69-2.13,1.52l0,0
			c-1.01-0.17-1.69-1.13-1.52-2.13l1.96-11.61c0.17-1.01,1.13-1.69,2.13-1.52l0,0C602,365.41,602.67,366.36,602.5,367.37z"/>
	</g>
	<g id="Group_27_1_">
		<circle id="Ellipse_12_1_" class="st51" cx="692.57" cy="253.87" r="6.38"/>
		<path id="Rectangle_158_1_" class="st51" d="M698.64,261.81l6.47,11.2c0.51,0.88,0.21,2.02-0.68,2.53l0,0
			c-0.88,0.51-2.02,0.21-2.53-0.68l-6.47-11.2c-0.51-0.88-0.21-2.02,0.68-2.53l0,0C697,260.62,698.13,260.92,698.64,261.81z"/>
		<path id="Rectangle_159_1_" class="st51" d="M696.4,275.31L696.4,275.31c1.06,0,1.91,0.86,1.91,1.91v16.84
			c0,1.06-0.86,1.91-1.91,1.91l0,0c-1.06,0-1.91-0.86-1.91-1.91v-16.84C694.48,276.16,695.34,275.31,696.4,275.31z"/>
		<path id="Rectangle_160_1_" class="st51" d="M690.15,275.31L690.15,275.31c1.06,0,1.91,0.86,1.91,1.91v16.84
			c0,1.06-0.86,1.91-1.91,1.91l0,0c-1.06,0-1.91-0.86-1.91-1.91v-16.84C688.23,276.16,689.09,275.31,690.15,275.31z"/>
		<path id="Rectangle_161_1_" class="st51" d="M692.82,260.25L692.82,260.25c3.66,0,6.64,2.97,6.64,6.64v4.85
			c0,3.66-2.97,6.64-6.64,6.64l0,0c-3.66,0-6.64-2.97-6.64-6.64v-4.85C686.19,263.22,689.16,260.25,692.82,260.25z"/>
		<path id="Rectangle_162_1_" class="st51" d="M689.5,263.37l-1.96,11.61c-0.17,1.01-1.13,1.69-2.13,1.52l0,0
			c-1.01-0.17-1.69-1.13-1.52-2.13l1.96-11.61c0.17-1.01,1.13-1.69,2.13-1.52l0,0C689,261.41,689.67,262.36,689.5,263.37z"/>
	</g>
	<g id="Group_28_1_">
		<circle id="Ellipse_13_1_" class="st51" cx="708.57" cy="187.87" r="6.38"/>
		<path id="Rectangle_163_1_" class="st51" d="M714.64,195.81l6.47,11.2c0.51,0.88,0.21,2.02-0.68,2.53l0,0
			c-0.88,0.51-2.02,0.21-2.53-0.68l-6.47-11.2c-0.51-0.88-0.21-2.02,0.68-2.53l0,0C713,194.62,714.13,194.92,714.64,195.81z"/>
		<path id="Rectangle_164_1_" class="st51" d="M712.4,209.31L712.4,209.31c1.06,0,1.91,0.86,1.91,1.91v16.84
			c0,1.06-0.86,1.91-1.91,1.91l0,0c-1.06,0-1.91-0.86-1.91-1.91v-16.84C710.48,210.16,711.34,209.31,712.4,209.31z"/>
		<path id="Rectangle_165_1_" class="st51" d="M706.15,209.31L706.15,209.31c1.06,0,1.91,0.86,1.91,1.91v16.84
			c0,1.06-0.86,1.91-1.91,1.91l0,0c-1.06,0-1.91-0.86-1.91-1.91v-16.84C704.23,210.16,705.09,209.31,706.15,209.31z"/>
		<path id="Rectangle_166_1_" class="st51" d="M708.82,194.25L708.82,194.25c3.66,0,6.64,2.97,6.64,6.63v4.85
			c0,3.66-2.97,6.63-6.64,6.63l0,0c-3.66,0-6.64-2.97-6.64-6.63v-4.85C702.19,197.22,705.16,194.25,708.82,194.25z"/>
		<path id="Rectangle_167_1_" class="st51" d="M705.5,197.37l-1.96,11.61c-0.17,1.01-1.13,1.69-2.13,1.52l0,0
			c-1.01-0.17-1.69-1.13-1.52-2.13l1.96-11.61c0.17-1.01,1.13-1.69,2.13-1.52l0,0C705,195.41,705.67,196.36,705.5,197.37z"/>
	</g>
	<g id="Group_30_1_">
		<circle id="Ellipse_15_1_" class="st51" cx="167.57" cy="374.87" r="6.38"/>
		<path id="Rectangle_173_1_" class="st51" d="M173.64,382.81l6.47,11.2c0.51,0.88,0.21,2.02-0.68,2.53l0,0
			c-0.88,0.51-2.02,0.21-2.53-0.68l-6.47-11.2c-0.51-0.88-0.21-2.02,0.68-2.53l0,0C172,381.62,173.13,381.92,173.64,382.81z"/>
		<path id="Rectangle_174_1_" class="st51" d="M171.4,396.31L171.4,396.31c1.06,0,1.91,0.86,1.91,1.91v16.84
			c0,1.06-0.86,1.91-1.91,1.91l0,0c-1.06,0-1.91-0.86-1.91-1.91v-16.84C169.48,397.16,170.34,396.31,171.4,396.31z"/>
		<path id="Rectangle_175_1_" class="st51" d="M165.15,396.31L165.15,396.31c1.06,0,1.91,0.86,1.91,1.91v16.84
			c0,1.06-0.86,1.91-1.91,1.91l0,0c-1.06,0-1.91-0.86-1.91-1.91v-16.84C163.23,397.16,164.09,396.31,165.15,396.31z"/>
		<path id="Rectangle_176_1_" class="st51" d="M167.83,381.25L167.83,381.25c3.66,0,6.64,2.97,6.64,6.64v4.85
			c0,3.66-2.97,6.64-6.64,6.64l0,0c-3.66,0-6.63-2.97-6.63-6.64v-4.85C161.19,384.22,164.16,381.25,167.83,381.25z"/>
		<path id="Rectangle_177_1_" class="st51" d="M164.5,384.37l-1.96,11.61c-0.17,1.01-1.13,1.69-2.13,1.52l0,0
			c-1.01-0.17-1.69-1.13-1.52-2.13l1.96-11.61c0.17-1.01,1.13-1.69,2.13-1.52l0,0C164,382.41,164.67,383.36,164.5,384.37z"/>
	</g>
	<g id="Group_31_1_">
		<circle id="Ellipse_16_1_" class="st51" cx="75.57" cy="308.87" r="6.38"/>
		<path id="Rectangle_178_1_" class="st51" d="M81.64,316.81l6.47,11.2c0.51,0.88,0.21,2.02-0.68,2.53l0,0
			c-0.88,0.51-2.02,0.21-2.53-0.68l-6.47-11.2c-0.51-0.88-0.21-2.02,0.68-2.53l0,0C80,315.62,81.13,315.92,81.64,316.81z"/>
		<path id="Rectangle_179_1_" class="st51" d="M79.4,330.31L79.4,330.31c1.06,0,1.91,0.86,1.91,1.91v16.84
			c0,1.06-0.86,1.91-1.91,1.91l0,0c-1.06,0-1.91-0.86-1.91-1.91v-16.84C77.48,331.16,78.34,330.31,79.4,330.31z"/>
		<path id="Rectangle_180_1_" class="st51" d="M73.15,330.31L73.15,330.31c1.06,0,1.91,0.86,1.91,1.91v16.84
			c0,1.06-0.86,1.91-1.91,1.91l0,0c-1.06,0-1.91-0.86-1.91-1.91v-16.84C71.23,331.16,72.09,330.31,73.15,330.31z"/>
		<path id="Rectangle_181_1_" class="st51" d="M75.83,315.25L75.83,315.25c3.66,0,6.64,2.97,6.64,6.64v4.85
			c0,3.66-2.97,6.64-6.64,6.64l0,0c-3.66,0-6.64-2.97-6.64-6.64v-4.85C69.19,318.22,72.16,315.25,75.83,315.25z"/>
		<path id="Rectangle_182_1_" class="st51" d="M72.5,318.37l-1.96,11.61c-0.17,1.01-1.13,1.69-2.13,1.52l0,0
			c-1.01-0.17-1.69-1.13-1.52-2.13l1.96-11.61c0.17-1.01,1.13-1.69,2.13-1.52l0,0C72,316.41,72.67,317.36,72.5,318.37z"/>
	</g>
	<g id="Group_32_1_">
		<circle id="Ellipse_17_1_" class="st51" cx="43.57" cy="239.87" r="6.38"/>
		<path id="Rectangle_183_1_" class="st51" d="M49.64,247.81l6.47,11.2c0.51,0.88,0.21,2.02-0.68,2.53l0,0
			c-0.88,0.51-2.02,0.21-2.53-0.68l-6.47-11.2c-0.51-0.88-0.21-2.02,0.68-2.53l0,0C48,246.62,49.13,246.92,49.64,247.81z"/>
		<path id="Rectangle_184_1_" class="st51" d="M47.4,261.31L47.4,261.31c1.06,0,1.91,0.86,1.91,1.91v16.84
			c0,1.06-0.86,1.91-1.91,1.91l0,0c-1.06,0-1.91-0.86-1.91-1.91v-16.84C45.48,262.16,46.34,261.31,47.4,261.31z"/>
		<path id="Rectangle_185_1_" class="st51" d="M41.15,261.31L41.15,261.31c1.06,0,1.91,0.86,1.91,1.91v16.84
			c0,1.06-0.86,1.91-1.91,1.91l0,0c-1.06,0-1.91-0.86-1.91-1.91v-16.84C39.23,262.16,40.09,261.31,41.15,261.31z"/>
		<path id="Rectangle_186_1_" class="st51" d="M43.83,246.25L43.83,246.25c3.66,0,6.63,2.97,6.63,6.63v4.85
			c0,3.66-2.97,6.64-6.63,6.64l0,0c-3.66,0-6.64-2.97-6.64-6.64v-4.85C37.19,249.22,40.16,246.25,43.83,246.25z"/>
		<path id="Rectangle_187_1_" class="st51" d="M40.01,249.66l-3.06,11.37c-0.27,0.99-1.28,1.57-2.27,1.31l0,0
			c-0.99-0.27-1.57-1.28-1.31-2.27l3.06-11.37c0.27-0.99,1.28-1.57,2.27-1.31l0,0C39.69,247.66,40.28,248.67,40.01,249.66z"/>
	</g>
	<g id="Groep2_1_">
		<g id="Group_24_1_">
			<circle id="Ellipse_9_1_" class="st51" cx="451.63" cy="395.15" r="6.38"/>
			<path id="Rectangle_143_1_" class="st51" d="M457.67,403.11l6.43,11.22c0.51,0.89,0.2,2.02-0.69,2.52l0,0
				c-0.89,0.51-2.02,0.2-2.52-0.69l-6.43-11.22c-0.51-0.89-0.2-2.02,0.69-2.52l0,0C456.04,401.91,457.17,402.22,457.67,403.11z"/>
			<path id="Rectangle_144_1_" class="st51" d="M455.39,416.6L455.39,416.6c1.06,0,1.91,0.86,1.91,1.92l-0.06,16.84
				c0,1.06-0.86,1.91-1.92,1.91l0,0c-1.06,0-1.91-0.86-1.91-1.92l0.06-16.84C453.47,417.45,454.33,416.59,455.39,416.6z"/>
			<path id="Rectangle_145_1_" class="st51" d="M449.13,416.58L449.13,416.58c1.06,0,1.91,0.86,1.91,1.92l-0.06,16.84
				c0,1.06-0.86,1.91-1.92,1.91l0,0c-1.06,0-1.91-0.86-1.91-1.92l0.06-16.84C447.22,417.43,448.08,416.57,449.13,416.58z"/>
			<path id="Rectangle_146_1_" class="st51" d="M451.87,401.53L451.87,401.53c3.66,0.01,6.62,2.99,6.61,6.66l-0.02,4.85
				c-0.01,3.66-2.99,6.62-6.66,6.61l0,0c-3.66-0.01-6.62-2.99-6.61-6.66l0.02-4.85C445.22,404.48,448.2,401.52,451.87,401.53z"/>
			<path id="Rectangle_147_1_" class="st51" d="M448.53,404.63l-2,11.6c-0.17,1.01-1.13,1.68-2.14,1.51l0,0
				c-1.01-0.17-1.68-1.13-1.51-2.14l2-11.6c0.17-1.01,1.13-1.68,2.14-1.51l0,0C448.03,402.67,448.71,403.63,448.53,404.63z"/>
		</g>
		<g id="Group_25_1_">
			<circle id="Ellipse_10_1_" class="st51" cx="314.63" cy="396.9" r="6.38"/>
			<path id="Rectangle_148_1_" class="st51" d="M320.67,404.86l6.43,11.22c0.51,0.89,0.2,2.02-0.69,2.52l0,0
				c-0.89,0.51-2.02,0.2-2.52-0.69l-6.43-11.22c-0.51-0.89-0.2-2.02,0.69-2.52l0,0C319.04,403.67,320.17,403.98,320.67,404.86z"/>
			<path id="Rectangle_149_1_" class="st51" d="M318.39,418.35L318.39,418.35c1.06,0,1.91,0.86,1.91,1.92l-0.06,16.84
				c0,1.06-0.86,1.91-1.92,1.91l0,0c-1.06,0-1.91-0.86-1.91-1.92l0.06-16.84C316.47,419.2,317.33,418.35,318.39,418.35z"/>
			<path id="Rectangle_150_1_" class="st51" d="M312.14,418.33L312.14,418.33c1.06,0,1.91,0.86,1.91,1.92l-0.06,16.84
				c0,1.06-0.86,1.91-1.92,1.91l0,0c-1.06,0-1.91-0.86-1.91-1.92l0.06-16.84C310.22,419.18,311.08,418.33,312.14,418.33z"/>
			<path id="Rectangle_151_1_" class="st51" d="M314.87,403.28L314.87,403.28c3.66,0.01,6.62,2.99,6.61,6.66l-0.02,4.85
				c-0.01,3.66-2.99,6.62-6.66,6.61l0,0c-3.66-0.01-6.62-2.99-6.61-6.66l0.02-4.85C308.22,406.23,311.2,403.27,314.87,403.28z"/>
			<path id="Rectangle_152_1_" class="st51" d="M311.53,406.39l-2,11.6c-0.17,1.01-1.13,1.68-2.14,1.51l0,0
				c-1.01-0.17-1.68-1.13-1.51-2.14l2-11.6c0.17-1.01,1.13-1.68,2.14-1.51l0,0C311.03,404.43,311.71,405.38,311.53,406.39z"/>
		</g>
		<g id="Group_35_1_">
			<circle id="Ellipse_20_1_" class="st51" cx="218.46" cy="403.45" r="5.6"/>
			<path id="Rectangle_198_1_" class="st51" d="M223.64,410.99l2.61,11.04c0.21,0.87-0.33,1.75-1.21,1.95l0,0
				c-0.87,0.21-1.75-0.33-1.95-1.21l-2.61-11.04c-0.21-0.87,0.33-1.75,1.21-1.95l0,0C222.56,409.58,223.43,410.12,223.64,410.99z"/>
			<path id="Rectangle_199_1_" class="st51" d="M220.41,421.55L220.41,421.55c0.75,0,1.36,0.61,1.36,1.37l-0.05,15.41
				c0,0.75-0.61,1.36-1.37,1.36l0,0c-0.75,0-1.36-0.61-1.36-1.37l0.05-15.41C219.04,422.15,219.65,421.55,220.41,421.55z"/>
			<path id="Rectangle_200_1_" class="st51" d="M215.95,421.53L215.95,421.53c0.75,0,1.36,0.61,1.36,1.37l-0.05,15.41
				c0,0.75-0.61,1.36-1.37,1.36l0,0c-0.75,0-1.36-0.61-1.36-1.37l0.05-15.41C214.59,422.14,215.2,421.53,215.95,421.53z"/>
			<path id="Rectangle_201_1_" class="st51" d="M218.66,409.19L218.66,409.19c1.89,0.01,3.41,1.54,3.4,3.43l-0.03,8.78
				c-0.01,1.89-1.54,3.41-3.43,3.4h0c-1.89-0.01-3.41-1.54-3.4-3.43l0.03-8.78C215.24,410.71,216.78,409.19,218.66,409.19z"/>
			<path id="Rectangle_202_1_" class="st51" d="M216.82,411.78l-1.76,10.18c-0.15,0.88-0.99,1.48-1.88,1.32l0,0
				c-0.88-0.15-1.48-0.99-1.32-1.88l1.76-10.18c0.15-0.88,0.99-1.48,1.88-1.32l0,0C216.38,410.06,216.98,410.9,216.82,411.78z"/>
		</g>
		<g id="Group_36_1_">
			<circle id="Ellipse_21_1_" class="st51" cx="241.84" cy="401.73" r="5.6"/>
			<path id="Rectangle_203_1_" class="st51" d="M239.77,410l-2.69,11.02c-0.21,0.87-1.09,1.4-1.96,1.19l0,0
				c-0.87-0.21-1.4-1.09-1.19-1.96l2.69-11.02c0.21-0.87,1.09-1.4,1.96-1.19l0,0C239.45,408.25,239.98,409.13,239.77,410z"/>
			<path id="Rectangle_204_1_" class="st51" d="M239.71,437.95L239.71,437.95c-0.75,0-1.36-0.61-1.36-1.37l0.05-15.41
				c0-0.75,0.61-1.36,1.37-1.36l0,0c0.75,0,1.36,0.61,1.36,1.37l-0.05,15.41C241.07,437.34,240.46,437.95,239.71,437.95z"/>
			<path id="Rectangle_205_1_" class="st51" d="M244.16,437.96L244.16,437.96c-0.75,0-1.36-0.61-1.36-1.37l0.05-15.41
				c0-0.75,0.61-1.36,1.37-1.36l0,0c0.75,0,1.36,0.61,1.36,1.37l-0.05,15.41C245.53,437.36,244.91,437.96,244.16,437.96z"/>
			<path id="Rectangle_206_1_" class="st51" d="M241.54,423.08L241.54,423.08c-1.89-0.01-3.41-1.54-3.4-3.43l0.03-8.78
				c0.01-1.89,1.54-3.41,3.43-3.4h0c1.89,0.01,3.41,1.54,3.4,3.43l-0.03,8.78C244.96,421.56,243.43,423.09,241.54,423.08z"/>
			<path id="Rectangle_207_1_" class="st51" d="M246.62,409.54l1.69,10.2c0.15,0.88-0.45,1.72-1.34,1.87l0,0
				c-0.88,0.15-1.72-0.45-1.87-1.34l-1.69-10.2c-0.15-0.88,0.45-1.72,1.34-1.87l0,0C245.64,408.05,246.48,408.65,246.62,409.54z"/>
		</g>
	</g>
	<g id="Groep1_1_">
		<g id="Group_33_1_">
			<circle id="Ellipse_18_1_" class="st51" cx="336.76" cy="403.75" r="5.6"/>
			<path id="Rectangle_188_1_" class="st51" d="M334.72,412.03l-2.65,11.03c-0.21,0.87-1.09,1.41-1.96,1.2l0,0
				c-0.87-0.21-1.41-1.09-1.2-1.96l2.65-11.03c0.21-0.87,1.09-1.41,1.96-1.2l0,0C334.39,410.28,334.93,411.16,334.72,412.03z"/>
			<path id="Rectangle_189_1_" class="st51" d="M334.76,439.98L334.76,439.98c-0.75,0-1.36-0.61-1.36-1.36V423.2
				c0-0.75,0.61-1.36,1.36-1.36l0,0c0.75,0,1.36,0.61,1.36,1.36v15.41C336.12,439.37,335.51,439.98,334.76,439.98z"/>
			<path id="Rectangle_190_1_" class="st51" d="M339.21,439.98L339.21,439.98c-0.75,0-1.36-0.61-1.36-1.36V423.2
				c0-0.75,0.61-1.36,1.36-1.36l0,0c0.75,0,1.36,0.61,1.36,1.36v15.41C340.57,439.37,339.96,439.98,339.21,439.98z"/>
			<path id="Rectangle_191_1_" class="st51" d="M336.54,425.11L336.54,425.11c-1.89,0-3.42-1.53-3.42-3.42v-8.78
				c0-1.89,1.53-3.42,3.42-3.42h0c1.89,0,3.42,1.53,3.42,3.42v8.78C339.96,423.58,338.43,425.11,336.54,425.11z"/>
			<path id="Rectangle_192_1_" class="st51" d="M341.57,411.54l1.72,10.19c0.15,0.88-0.45,1.72-1.33,1.87l0,0
				c-0.88,0.15-1.72-0.45-1.87-1.33l-1.72-10.19c-0.15-0.88,0.45-1.72,1.33-1.87l0,0C340.59,410.06,341.42,410.66,341.57,411.54z"/>
		</g>
		<g id="Group_34_1_">
			<circle id="Ellipse_19_1_" class="st51" cx="428.45" cy="400.95" r="5.6"/>
			<path id="Rectangle_193_1_" class="st51" d="M433.65,408.46l2.65,11.03c0.21,0.87-0.33,1.75-1.2,1.96l0,0
				c-0.87,0.21-1.75-0.33-1.96-1.2l-2.65-11.03c-0.21-0.87,0.33-1.75,1.2-1.96l0,0C432.57,407.05,433.44,407.59,433.65,408.46z"/>
			<path id="Rectangle_194_1_" class="st51" d="M430.46,419.03L430.46,419.03c0.75,0,1.36,0.61,1.36,1.36v15.41
				c0,0.75-0.61,1.36-1.36,1.36l0,0c-0.75,0-1.36-0.61-1.36-1.36V420.4C429.1,419.64,429.71,419.03,430.46,419.03z"/>
			<path id="Rectangle_195_1_" class="st51" d="M426.01,419.03L426.01,419.03c0.75,0,1.36,0.61,1.36,1.36v15.41
				c0,0.75-0.61,1.36-1.36,1.36l0,0c-0.75,0-1.36-0.61-1.36-1.36V420.4C424.64,419.64,425.25,419.03,426.01,419.03z"/>
			<path id="Rectangle_196_1_" class="st51" d="M428.67,406.69L428.67,406.69c1.89,0,3.42,1.53,3.42,3.42v8.78
				c0,1.89-1.53,3.42-3.42,3.42h0c-1.89,0-3.42-1.53-3.42-3.42v-8.78C425.26,408.22,426.79,406.69,428.67,406.69z"/>
			<path id="Rectangle_197_1_" class="st51" d="M426.84,409.28l-1.72,10.19c-0.15,0.88-0.99,1.48-1.87,1.33l0,0
				c-0.88-0.15-1.48-0.99-1.33-1.87l1.72-10.19c0.15-0.88,0.99-1.48,1.87-1.33l0,0C426.4,407.56,426.99,408.4,426.84,409.28z"/>
		</g>
		<g id="Group_37_1_">
			<circle id="Ellipse_22_1_" class="st51" cx="272.42" cy="402.75" r="5.6"/>
			<path id="Rectangle_208_1_" class="st51" d="M277.62,410.27l2.65,11.03c0.21,0.87-0.33,1.75-1.2,1.96l0,0
				c-0.87,0.21-1.75-0.33-1.96-1.2l-2.65-11.03c-0.21-0.87,0.33-1.75,1.2-1.96l0,0C276.54,408.86,277.41,409.4,277.62,410.27z"/>
			<path id="Rectangle_209_1_" class="st51" d="M274.43,420.84L274.43,420.84c0.75,0,1.36,0.61,1.36,1.36v15.41
				c0,0.75-0.61,1.36-1.36,1.36l0,0c-0.75,0-1.36-0.61-1.36-1.36V422.2C273.07,421.45,273.68,420.84,274.43,420.84z"/>
			<path id="Rectangle_210_1_" class="st51" d="M269.98,420.84L269.98,420.84c0.75,0,1.36,0.61,1.36,1.36v15.41
				c0,0.75-0.61,1.36-1.36,1.36l0,0c-0.75,0-1.36-0.61-1.36-1.36V422.2C268.61,421.45,269.22,420.84,269.98,420.84z"/>
			<path id="Rectangle_211_1_" class="st51" d="M272.64,408.49L272.64,408.49c1.89,0,3.42,1.53,3.42,3.42v8.78
				c0,1.89-1.53,3.42-3.42,3.42h0c-1.89,0-3.42-1.53-3.42-3.42v-8.78C269.23,410.02,270.76,408.49,272.64,408.49z"/>
			<path id="Rectangle_212_1_" class="st51" d="M270.81,411.09l-1.72,10.19c-0.15,0.88-0.99,1.48-1.87,1.33l0,0
				c-0.88-0.15-1.48-0.99-1.33-1.87l1.72-10.19c0.15-0.88,0.99-1.48,1.87-1.33l0,0C270.37,409.36,270.96,410.2,270.81,411.09z"/>
		</g>
		<g id="Group_38_1_">
			<circle id="Ellipse_23_1_" class="st51" cx="295.8" cy="400.95" r="5.6"/>
			<path id="Rectangle_213_1_" class="st51" d="M293.75,409.22l-2.65,11.03c-0.21,0.87-1.09,1.41-1.96,1.2l0,0
				c-0.87-0.21-1.41-1.09-1.2-1.96l2.65-11.03c0.21-0.87,1.09-1.41,1.96-1.2l0,0C293.42,407.47,293.96,408.35,293.75,409.22z"/>
			<path id="Rectangle_214_1_" class="st51" d="M293.79,437.17L293.79,437.17c-0.75,0-1.36-0.61-1.36-1.36V420.4
				c0-0.75,0.61-1.36,1.36-1.36l0,0c0.75,0,1.36,0.61,1.36,1.36v15.41C295.15,436.56,294.54,437.17,293.79,437.17z"/>
			<path id="Rectangle_215_1_" class="st51" d="M298.24,437.17L298.24,437.17c-0.75,0-1.36-0.61-1.36-1.36V420.4
				c0-0.75,0.61-1.36,1.36-1.36l0,0c0.75,0,1.36,0.61,1.36,1.36v15.41C299.6,436.56,298.99,437.17,298.24,437.17z"/>
			<path id="Rectangle_216_1_" class="st51" d="M295.57,422.3L295.57,422.3c-1.89,0-3.42-1.53-3.42-3.42v-8.78
				c0-1.89,1.53-3.42,3.42-3.42h0c1.89,0,3.42,1.53,3.42,3.42v8.78C298.99,420.77,297.46,422.3,295.57,422.3z"/>
			<path id="Rectangle_217_1_" class="st51" d="M300.6,408.74l1.72,10.19c0.15,0.88-0.45,1.72-1.33,1.87l0,0
				c-0.88,0.15-1.72-0.45-1.87-1.33l-1.72-10.19c-0.15-0.88,0.45-1.72,1.33-1.87l0,0C299.62,407.26,300.45,407.85,300.6,408.74z"/>
		</g>
	</g>
	<g id="Group_40_1_">
		<circle id="Ellipse_25_1_" class="st51" cx="585.8" cy="379.95" r="5.6"/>
		<path id="Rectangle_223_1_" class="st51" d="M583.75,388.22l-2.65,11.03c-0.21,0.87-1.09,1.41-1.96,1.2l0,0
			c-0.87-0.21-1.41-1.09-1.2-1.96l2.65-11.03c0.21-0.87,1.09-1.41,1.96-1.2l0,0C583.42,386.47,583.96,387.35,583.75,388.22z"/>
		<path id="Rectangle_224_1_" class="st51" d="M583.79,416.17L583.79,416.17c-0.75,0-1.36-0.61-1.36-1.36V399.4
			c0-0.75,0.61-1.36,1.36-1.36l0,0c0.75,0,1.36,0.61,1.36,1.36v15.41C585.15,415.56,584.54,416.17,583.79,416.17z"/>
		<path id="Rectangle_225_1_" class="st51" d="M588.24,416.17L588.24,416.17c-0.75,0-1.36-0.61-1.36-1.36V399.4
			c0-0.75,0.61-1.36,1.36-1.36l0,0c0.75,0,1.36,0.61,1.36,1.36v15.41C589.6,415.56,588.99,416.17,588.24,416.17z"/>
		<path id="Rectangle_226_1_" class="st51" d="M585.57,401.3L585.57,401.3c-1.89,0-3.42-1.53-3.42-3.42v-8.78
			c0-1.89,1.53-3.42,3.41-3.42h0c1.89,0,3.41,1.53,3.41,3.42v8.78C588.99,399.77,587.46,401.3,585.57,401.3z"/>
		<path id="Rectangle_227_1_" class="st51" d="M590.6,387.74l1.72,10.19c0.15,0.88-0.45,1.72-1.33,1.87l0,0
			c-0.88,0.15-1.72-0.45-1.87-1.33l-1.72-10.19c-0.15-0.88,0.45-1.72,1.33-1.87l0,0C589.62,386.26,590.45,386.85,590.6,387.74z"/>
	</g>
	<g id="Group_41_1_">
		<circle id="Ellipse_26_1_" class="st51" cx="704.45" cy="224.95" r="5.6"/>
		<path id="Rectangle_228_1_" class="st51" d="M709.65,232.46l2.65,11.03c0.21,0.87-0.33,1.75-1.2,1.96l0,0
			c-0.87,0.21-1.75-0.33-1.96-1.2l-2.65-11.03c-0.21-0.87,0.33-1.75,1.2-1.96l0,0C708.57,231.05,709.44,231.59,709.65,232.46z"/>
		<path id="Rectangle_229_1_" class="st51" d="M706.46,243.03L706.46,243.03c0.75,0,1.36,0.61,1.36,1.36v15.41
			c0,0.75-0.61,1.36-1.36,1.36l0,0c-0.75,0-1.36-0.61-1.36-1.36V244.4C705.1,243.64,705.71,243.03,706.46,243.03z"/>
		<path id="Rectangle_230_1_" class="st51" d="M702.01,243.03L702.01,243.03c0.75,0,1.36,0.61,1.36,1.36v15.41
			c0,0.75-0.61,1.36-1.36,1.36l0,0c-0.75,0-1.36-0.61-1.36-1.36V244.4C700.64,243.64,701.25,243.03,702.01,243.03z"/>
		<path id="Rectangle_231_1_" class="st51" d="M704.67,230.69L704.67,230.69c1.89,0,3.42,1.53,3.42,3.41v8.78
			c0,1.89-1.53,3.42-3.41,3.42h0c-1.89,0-3.41-1.53-3.41-3.42v-8.78C701.26,232.22,702.79,230.69,704.67,230.69z"/>
		<path id="Rectangle_232_1_" class="st51" d="M702.84,233.28l-1.72,10.19c-0.15,0.88-0.99,1.48-1.87,1.33l0,0
			c-0.88-0.15-1.48-0.99-1.33-1.87l1.72-10.19c0.15-0.88,0.99-1.48,1.87-1.33l0,0C702.4,231.56,702.99,232.4,702.84,233.28z"/>
	</g>
	<g id="Groep3_1_">
		<circle id="Ellipse_8_1_" class="st51" cx="364.57" cy="394.87" r="6.38"/>
		<path id="Rectangle_138_1_" class="st51" d="M370.64,402.81l6.47,11.2c0.51,0.88,0.21,2.02-0.68,2.53l0,0
			c-0.88,0.51-2.02,0.21-2.53-0.68l-6.47-11.2c-0.51-0.88-0.21-2.02,0.68-2.53l0,0C369,401.62,370.13,401.92,370.64,402.81z"/>
		<path id="Rectangle_139_1_" class="st51" d="M368.4,416.31L368.4,416.31c1.06,0,1.91,0.86,1.91,1.91v16.84
			c0,1.06-0.86,1.91-1.91,1.91l0,0c-1.06,0-1.91-0.86-1.91-1.91v-16.84C366.48,417.16,367.34,416.31,368.4,416.31z"/>
		<path id="Rectangle_140_1_" class="st51" d="M362.15,416.31L362.15,416.31c1.06,0,1.91,0.86,1.91,1.91v16.84
			c0,1.06-0.86,1.91-1.91,1.91l0,0c-1.06,0-1.91-0.86-1.91-1.91v-16.84C360.23,417.16,361.09,416.31,362.15,416.31z"/>
		<path id="Rectangle_141_1_" class="st51" d="M364.82,401.25L364.82,401.25c3.66,0,6.63,2.97,6.63,6.64v4.85
			c0,3.66-2.97,6.64-6.63,6.64l0,0c-3.66,0-6.64-2.97-6.64-6.64v-4.85C358.19,404.22,361.16,401.25,364.82,401.25z"/>
		<path id="Rectangle_142_1_" class="st51" d="M361.5,404.37l-1.96,11.61c-0.17,1.01-1.13,1.69-2.13,1.52l0,0
			c-1.01-0.17-1.69-1.13-1.52-2.13l1.96-11.61c0.17-1.01,1.13-1.69,2.13-1.52l0,0C361,402.41,361.67,403.36,361.5,404.37z"/>
		<circle id="Ellipse_14_1_" class="st51" cx="521.57" cy="394.87" r="6.38"/>
		<path id="Rectangle_168_1_" class="st51" d="M527.64,402.81l6.47,11.2c0.51,0.88,0.21,2.02-0.68,2.53l0,0
			c-0.88,0.51-2.02,0.21-2.53-0.68l-6.47-11.2c-0.51-0.88-0.21-2.02,0.68-2.53l0,0C526,401.62,527.13,401.92,527.64,402.81z"/>
		<path id="Rectangle_169_1_" class="st51" d="M525.4,416.31L525.4,416.31c1.06,0,1.91,0.86,1.91,1.91v16.84
			c0,1.06-0.86,1.91-1.91,1.91l0,0c-1.06,0-1.91-0.86-1.91-1.91v-16.84C523.48,417.16,524.34,416.31,525.4,416.31z"/>
		<path id="Rectangle_170_1_" class="st51" d="M519.15,416.31L519.15,416.31c1.06,0,1.91,0.86,1.91,1.91v16.84
			c0,1.06-0.86,1.91-1.91,1.91l0,0c-1.06,0-1.91-0.86-1.91-1.91v-16.84C517.23,417.16,518.09,416.31,519.15,416.31z"/>
		<path id="Rectangle_171_1_" class="st51" d="M521.82,401.25L521.82,401.25c3.66,0,6.64,2.97,6.64,6.64v4.85
			c0,3.66-2.97,6.64-6.64,6.64l0,0c-3.66,0-6.64-2.97-6.64-6.64v-4.85C515.19,404.22,518.16,401.25,521.82,401.25z"/>
		<path id="Rectangle_172_1_" class="st51" d="M518.5,404.37l-1.96,11.61c-0.17,1.01-1.13,1.69-2.13,1.52l0,0
			c-1.01-0.17-1.69-1.13-1.52-2.13l1.96-11.61c0.17-1.01,1.13-1.69,2.13-1.52l0,0C518,402.41,518.67,403.36,518.5,404.37z"/>
		<circle id="Ellipse_24_1_" class="st51" cx="481.45" cy="399.95" r="5.6"/>
		<path id="Rectangle_218_1_" class="st51" d="M486.65,407.46l2.65,11.03c0.21,0.87-0.33,1.75-1.2,1.96l0,0
			c-0.87,0.21-1.75-0.33-1.96-1.2l-2.65-11.03c-0.21-0.87,0.33-1.75,1.2-1.96l0,0C485.57,406.05,486.44,406.59,486.65,407.46z"/>
		<path id="Rectangle_219_1_" class="st51" d="M483.46,418.03L483.46,418.03c0.75,0,1.36,0.61,1.36,1.36v15.41
			c0,0.75-0.61,1.36-1.36,1.36l0,0c-0.75,0-1.36-0.61-1.36-1.36V419.4C482.1,418.64,482.71,418.03,483.46,418.03z"/>
		<path id="Rectangle_220_1_" class="st51" d="M479.01,418.03L479.01,418.03c0.75,0,1.36,0.61,1.36,1.36v15.41
			c0,0.75-0.61,1.36-1.36,1.36l0,0c-0.75,0-1.36-0.61-1.36-1.36V419.4C477.64,418.64,478.25,418.03,479.01,418.03z"/>
		<path id="Rectangle_221_1_" class="st51" d="M481.67,405.69L481.67,405.69c1.89,0,3.42,1.53,3.42,3.42v8.78
			c0,1.89-1.53,3.42-3.42,3.42h0c-1.89,0-3.42-1.53-3.42-3.42v-8.78C478.26,407.22,479.79,405.69,481.67,405.69z"/>
		<path id="Rectangle_222_1_" class="st51" d="M479.84,408.28l-1.72,10.19c-0.15,0.88-0.99,1.48-1.87,1.33l0,0
			c-0.88-0.15-1.48-0.99-1.33-1.87l1.72-10.19c0.15-0.88,0.99-1.48,1.87-1.33l0,0C479.4,406.56,479.99,407.4,479.84,408.28z"/>
		<circle id="Ellipse_27_1_" class="st51" cx="408.8" cy="401.95" r="5.6"/>
		<path id="Rectangle_233_1_" class="st51" d="M406.75,410.22l-2.65,11.03c-0.21,0.87-1.09,1.41-1.96,1.2l0,0
			c-0.87-0.21-1.41-1.09-1.2-1.96l2.65-11.03c0.21-0.87,1.09-1.41,1.96-1.2l0,0C406.42,408.47,406.96,409.35,406.75,410.22z"/>
		<path id="Rectangle_234_1_" class="st51" d="M406.79,438.17L406.79,438.17c-0.75,0-1.36-0.61-1.36-1.36V421.4
			c0-0.75,0.61-1.36,1.36-1.36l0,0c0.75,0,1.36,0.61,1.36,1.36v15.41C408.15,437.56,407.54,438.17,406.79,438.17z"/>
		<path id="Rectangle_235_1_" class="st51" d="M411.24,438.17L411.24,438.17c-0.75,0-1.36-0.61-1.36-1.36V421.4
			c0-0.75,0.61-1.36,1.36-1.36l0,0c0.75,0,1.36,0.61,1.36,1.36v15.41C412.6,437.56,411.99,438.17,411.24,438.17z"/>
		<path id="Rectangle_236_1_" class="st51" d="M408.57,423.3L408.57,423.3c-1.89,0-3.42-1.53-3.42-3.42v-8.78
			c0-1.89,1.53-3.42,3.42-3.42h0c1.89,0,3.42,1.53,3.42,3.42v8.78C411.99,421.77,410.46,423.3,408.57,423.3z"/>
		<path id="Rectangle_237_1_" class="st51" d="M413.6,409.74l1.72,10.19c0.15,0.88-0.45,1.72-1.33,1.87l0,0
			c-0.88,0.15-1.72-0.45-1.87-1.33l-1.72-10.19c-0.15-0.88,0.45-1.72,1.33-1.87l0,0C412.62,408.26,413.45,408.85,413.6,409.74z"/>
	</g>
	<g id="Group_43_1_">
		<path id="Path_149_1_" class="st52" d="M281.23,196.46c0.47,1.99,0.47,4.06,0,6.05c-0.28,1.78-1.16,3.41-2.49,4.63
			c-0.44,0.35-1.41,1.02-4.63,1.42c-2.48,0.31-5,0.31-7.48,0c-2.76,0.89-6.39,2.01-10.68,3.21c-2.14,0.59-7.65,2.09-16.03,3.92
			c-10.17,2.21-17.29,3.32-30.27,5.34c-23.02,3.58-12.25,1-18.52,2.14c-3.62,0.66-7.36-0.07-11.04,0c-1.27,0.07-2.53-0.31-3.56-1.07
			c-0.3-0.25-1.14-0.93-1.07-1.78c0.09-1.09,1.58-1.7,1.78-1.78c1.33-0.54,2.16-0.02,4.27,0c1.08-0.01,2.15-0.13,3.2-0.36
			c3.82-0.61,11.17-1.09,14.6-1.42c8.27-0.95,16.4-2.86,24.22-5.7c4.02-1.26,7.95-2.81,11.75-4.63c2.51-1.24,6.28-3.28,11.04-5.34
			c0.38-0.16,2.18-0.94,4.63-1.78c1.61-0.63,3.28-1.11,4.98-1.42c1.89-0.2,3.81-0.2,5.7,0c4.06,0.22,4.7,0.56,6.05,0
			c1.34-0.6,2.45-1.59,3.21-2.85c1.74-2.84,0.38-5.04,1.78-6.05c1.44-1.04,4.4,0.2,6.05,1.78S280.8,194.32,281.23,196.46z"/>
		<path id="Path_150_1_" class="st52" d="M291.56,182.22c0.79-0.35,1.63-0.59,2.49-0.71c1.62-0.21,2.23,0.18,3.2-0.36
			c0.76-0.42,0.69-0.83,1.42-1.07c0.92-0.3,1.28,0.27,2.14,0c0.98-0.3,0.87-1.14,1.78-1.42c1.04-0.33,1.53,0.65,2.49,0.36
			c1.14-0.35,1.04-1.89,2.14-2.14c0.88-0.2,1.41,0.69,2.14,0.36c0.61-0.28,0.42-0.99,1.07-1.42c0.71-0.48,1.24,0.18,2.49,0
			c1.58-0.23,1.78-1.43,3.2-1.42c0.87,0,1.03,0.45,1.78,0.36c0.94-0.26,1.71-0.91,2.14-1.78c1.43-2.5,0.67-6.96-1.78-8.55
			c-0.97-0.63-2.11-0.74-2.49-1.78c-0.28-0.76,0.1-1.3-0.36-2.14c-0.29-0.54-0.92-1.18-1.42-1.07c-0.76,0.17-0.97,1.98-1.07,2.85
			c-0.07,0.45-0.08,0.91-0.06,1.37c0.04,0.49,0.11,0.75,0.06,0.77c-0.21,0.08-1-3.02-2.49-3.21c-0.75,0-1.43,0.41-1.78,1.07
			c-0.76,1.37,0.56,3.12,0,3.56c-0.18,0.14-0.55,0.16-1.42-0.36c0.07-0.47,0.07-0.95,0-1.42c-0.05-0.3-0.3-1.99-1.07-2.14
			c-0.49-0.09-1.13,0.46-1.42,1.07c-0.57,1.16,0.35,1.95,0,3.92c-0.08,0.44-0.24,1.31-0.71,1.42c-0.36,0.09-0.84-0.29-1.07-0.71
			c-0.48-0.88,0.33-1.55,0-2.85c-0.04-0.15-0.32-1.26-1.07-1.42c-0.39-0.04-0.78,0.09-1.07,0.36c-0.4,0.37-0.66,0.88-0.71,1.42
			c-0.24,1.28,0.32,1.66,0,2.85c-0.23,0.83-0.61,1.02-0.71,1.07c-0.04,0.02-0.47,0.2-0.71,0c-0.36-0.29,0.15-1.03,0-2.14
			c-0.01-0.07-0.23-1.58-1.07-1.78c-0.69-0.17-1.39,0.67-1.42,0.71c-1.06,1.31-0.06,3.45,0,3.56c0.01,0.39-0.12,0.76-0.36,1.07
			c-0.61,0.73-1.91,0.75-2.14,0.36c-0.13-0.22,0.17-0.41,0.36-1.07c0.24-0.84,0.11-1.75-0.36-2.49c-0.15-0.2-0.55-0.73-1.07-0.71
			c-0.7,0.03-1.23,1.05-1.42,1.78c-0.39,1.44,0.46,2.05,0,3.21c-0.35,0.89-1.27,1.6-1.78,1.42c-0.26-0.09-0.36-0.38-0.71-2.14
			c-0.4-2.03-0.47-2.7-1.07-3.2c-0.05-0.04-0.67-0.56-1.07-0.36s-0.18,0.94-0.36,2.14c-0.16,1.01-0.52,1.98-1.07,2.85
			c-0.85,1.26-1.46,1.01-1.78,1.78c-0.58,1.41,1.36,2.54,2.85,6.05c1.01,2.38,0.89,3.7,1.78,3.92
			C288.82,184.2,289.24,183.15,291.56,182.22z"/>
		<path id="Path_151_1_" class="st52" d="M338.57,204.3c0.5-1.41,1.22-2.73,2.14-3.92c1.37-2.01,1.78-1.91,2.85-3.56
			c1.12-1.72,1.85-3.67,2.14-5.7c0.15-1.09,0.54-3.9-0.71-4.63c-0.5-0.29-0.94-0.06-1.78,0c-1.65,0-3.26-0.5-4.63-1.42
			c-3.37-1.73-7.98-1.53-10.33-1.42c-3.19,0.15-6.33,0.87-9.26,2.14c-2.46,1.06-6.22,2.69-8.55,6.41c-0.87,1.42-1.48,2.99-1.78,4.63
			c-0.32,1.55-0.53,2.59,0,3.56c0.57,1.03,1.49,1.08,3.92,2.14c2.32,1.01,1.85,1.13,5.34,2.85c3.11,1.53,2.99,1.19,4.63,2.14
			c1.9,0.98,3.59,2.31,4.99,3.92c1.88,2.3,1.56,3.53,2.85,3.92c1.55,0.47,3.47-0.85,5.34-2.14c0.66-0.38,1.26-0.86,1.78-1.42
			C339.1,209.68,337.48,207.77,338.57,204.3z"/>
		<path id="Path_152_1_" class="st52" d="M342.84,218.54c-0.3-1.47-3.08-1.07-3.92-2.85c-0.38-0.81,0.14-1,0-3.56
			c-0.09-1.55-0.14-2.33-0.71-2.85c-0.74-0.67-1.88-0.5-2.85-0.36c-1.61,0.26-3.1,1.01-4.27,2.14c-1.09,1.06-1.83,2.43-2.14,3.92
			c-0.11,0.47-0.11,0.96,0,1.42c0.25,0.88,0.87,1.11,1.78,2.14c0.57,0.64,1.05,1.36,1.42,2.14c0.78,1.65,0.38,2.28,1.07,2.85
			c0.55,0.46,0.93,0.14,2.85,0.36c2.13,0.24,2.45,0.71,3.2,0.36c0.3-0.14,0.25-0.21,1.78-2.14c0.4-0.44,0.75-0.92,1.07-1.42
			C342.6,220.07,342.85,219.32,342.84,218.54z"/>
		<path id="Path_153_1_" class="st52" d="M341.77,224.24l9.97,10.68c1.11,0.89,2.38,1.56,3.74,1.96c1.09,0.2,2.12,0.62,3.03,1.25
			c0.4,0.31,0.76,0.67,1.07,1.07l-1.42,2.14c-1.38-0.54-2.51-1.55-3.21-2.85l-4.27-1.42l-0.34-0.29l-4.64-3.98l-3.92-6.41
			c-0.32-1.37-1-2.21-1.43-2.14c-0.4,0.07-0.73,0.97-0.71,2.14c-0.95,0.6-2.09,0.85-3.2,0.71c-0.93-0.15-1.46-0.59-1.78-0.36
			c-0.29,0.21-0.39,0.97,0.71,3.56l7.48,7.48l4.27,3.56c1.69,0.83,3.12,2.13,4.09,3.74c0.18,0.33,0.55,1.09,1.25,1.25
			c0.67,0.05,1.33-0.22,1.78-0.71c0.25,0.76,0.61,1.48,1.07,2.14c0.6,0.81,1.32,1.53,2.14,2.14c1.66,1.22,6.64,3.12,13.53,4.63h3.92
			l2.14,2.14h6.77l5.34,2.85l10.68-0.71l1.78,1.42c7.2,0.52,9.63-0.64,10.51-1.25c0.32-0.22,1.38-0.95,1.25-1.25
			c-0.12-0.27-1.13-0.06-1.42,0c-2.95,0.42-5.93,0.54-8.9,0.36l-1.78-1.42l-7.48,0.36l-1.42-1.07l-4.99-0.36l-1.07-0.71l-3.21-0.71
			h-4.63l-2.49-2.49l-3.56-0.36l-5.7-2.49l-3.21-1.78l1.78-0.71l3.56,1.78l7.12,2.14h3.2l1.78,1.78l9.26,0.71l4.27,2.49l9.97-1.07
			l1.78,1.78l10.51-0.89c1.18-0.33,2.01-0.87,1.96-1.25c-0.05-0.4-1.06-0.75-2.49-0.71l-7.48,0.71l-2.14-1.42h-7.12l-2.49-1.07
			l-4.09-0.18l-1.78-1.07l-6.77-1.07l-3.2-1.07h-1.43l-2.85-1.07l-8.9-3.56l0.36-1.78l8.55,3.92h2.14l2.14,1.42l7.12,0.36l3.2,1.78
			h8.9l1.42,0.71l10.33-0.36c0.24-0.16,0.37-0.43,0.36-0.71c-0.04-0.37-0.34-0.67-0.71-0.71l-7.48-0.36l-2.49-1.07l-1.42,0.71
			l-8.55-1.42l-2.85-0.71l-6.77-0.71l-1.07-1.07h-2.14l-1.07-0.71h-1.43l-6.05-3.21h1.79l6.41,2.85h6.41l3.56,2.14l8.55-0.36
			l1.78,1.07l6.41-0.36c2.59-0.3,3.9-0.65,3.92-1.07c0.01-0.22-0.35-0.46-1.07-0.71h-7.83l-1.78-1.07h-2.49l-7.48-1.42l-2.49-0.36
			l-7.83-1.42l-3.92-0.71l-10.68-5.34c-0.41-0.3-0.92-0.43-1.43-0.36c-0.91,0.2-0.98,1.21-1.78,1.42c-0.83,0.22-1.37-0.71-2.85-1.42
			c-1.02-0.43-2.1-0.67-3.2-0.71c-1.5-0.24-3.59-1.35-6.05-5.34c-2.32-1.66-3.02-3.17-3.2-4.27c-0.1-0.57-0.12-1.4-0.36-1.42
			c-0.33-0.04-0.49,1.58-1.78,2.85C342.66,223.71,342.24,224.01,341.77,224.24z"/>
		<path id="Path_154_1_" class="st52" d="M542.63,200.02c-4.97-1.46-9.75-3.49-14.24-6.05c-5.99-3.43-7.34-5.5-14.24-8.9
			c-4.4-2.17-9.61-4.27-9.62-4.27c-0.67-0.27-2.39-0.96-4.63-1.78c-11.09-4.07-21.72-7.12-21.72-7.12
			c-30.97-8.89-28.1-10.04-35.97-10.68c-15.8-1.29-26.04,3.46-29.2-1.78c-1.36-2.26-2.17-7.63,0-9.62c0.81-0.74,2.17-1.14,2.49-2.49
			c0.19-0.82-0.11-1.52,0.36-2.85c0.27-0.77,0.52-0.97,0.71-1.07c0.64-0.31,1.44,0.16,1.78,0.36c0.48,0.2,0.86,0.59,1.07,1.07
			c0.06,0.23,0.08,0.56-0.71,2.14c-0.59,1.17-0.8,1.39-0.71,1.78c0.17,0.64,0.76,1.08,1.42,1.07c0.6-0.07,0.92-0.74,1.43-1.78
			c0.42-0.92,0.78-1.88,1.07-2.85c0.24-0.79,0.32-1.18,0.71-1.42c0.45-0.21,0.97-0.21,1.43,0c0.57,0.26,0.98,0.8,1.07,1.42
			c0.12,1.03-0.95,1.32-1.07,2.49c-0.11,1.05,0.46,2.05,1.42,2.49c1.16,0.23,2.34-0.35,2.85-1.42c0.38-0.77-0.04-1.12,0.36-2.49
			c0.21-0.72,0.44-1.5,1.07-1.78c0.58-0.17,1.2-0.17,1.78,0l0,0c0,0,0.27,1.44,0.36,2.49c0.17,2.23-0.49,3.24,0,3.56
			c0.4,0.27,1.3-0.1,1.78-0.71c0.82-1.06-0.13-2.22,0.71-3.56c0.31-0.53,0.83-0.92,1.42-1.07c0.9-0.17,2,0.36,2.14,1.07
			c0.06,0.33-0.1,0.61-0.36,1.07c-0.49,0.87-0.89,0.86-1.07,1.42c-0.11,0.62,0.02,1.25,0.36,1.78c0.32,0.73,0.57,1.3,1.07,1.42
			c0.76,0.19,1.84-0.75,2.14-1.78c0.28-0.98-0.34-1.38,0-2.49c0.15-0.6,0.54-1.11,1.07-1.42c0.54-0.34,1.24-0.34,1.78,0
			c0.32,0.4,0.45,0.92,0.36,1.42c-0.06,0.6-0.18,1.2-0.36,1.78c-0.2,0.7-0.2,1.44,0,2.14c0.22,0.59,0.8,1.46,1.42,1.42
			c0.59-0.03,1-0.87,1.78-2.49c0.3-0.92,0.79-1.77,1.42-2.49c0.36-0.43,0.87-0.68,1.43-0.71c0.65,0.03,1.21,0.46,1.42,1.07
			c0.18,0.67-0.43,0.95-0.71,2.14c-0.06,0.25-0.44,1.88,0.36,2.49c0.54,0.34,1.24,0.34,1.78,0c0.67-0.41,0.61-1.1,1.42-3.21
			c0.55-1.42,0.79-1.66,1.07-1.78c0.79-0.32,1.69-0.02,2.14,0.71c0.26,0.66-0.56,1.14-1.07,2.49c-0.61,1.62-0.53,3.83,0.36,4.27
			c0.75,0.37,2.11-0.52,2.85-1.42c0.93-1.15,0.61-2.02,1.43-2.49c0.98-0.58,2.66-0.02,2.85,0.71c0.1,0.38-0.29,0.85-1.07,1.78
			c-0.95,1.14-1.3,1.22-1.42,1.78c-0.2,0.9,0.4,2.05,1.07,2.14c0.48,0.06,0.9-0.44,1.43-1.07c0.71-0.85,0.69-1.24,1.42-2.14
			c0.53-0.64,0.92-1.11,1.43-1.07c0.55,0.04,0.93,0.67,1.07,1.07c0.24,0.61,0.1,1.31-0.36,1.78c-0.39,0.32-0.71,0.08-1.07,0.36
			c-0.63,0.71-0.63,1.78,0,2.49c0.71,0.66,2.12,0.34,2.85-0.36c1.15-1.1,0.3-2.82,1.42-3.56c0.54-0.36,1.24-0.36,1.78,0
			c0.43,0.49,0.57,1.17,0.36,1.78c-0.31,1.15-1.39,1.26-1.43,2.14c0,0.66,0.44,1.24,1.07,1.42c0.69,0.14,1.33-0.57,1.78-1.07
			c1.09-1.2,0.88-2.03,1.78-2.49c0.56-0.28,1.22-0.28,1.78,0c0.38,0.23,0.64,0.62,0.71,1.07c0.04,0.59-0.46,0.81-1.07,1.78
			c-0.48,0.77-0.93,1.48-0.71,2.14c0.34,0.84,1.26,1.3,2.14,1.07c0.61-0.32,0.21-1.26,1.07-2.49c0.28-0.39,0.73-1.05,1.43-1.07
			c0.66,0.01,1.23,0.44,1.42,1.07c0.16,0.81-0.9,1.15-1.07,2.49c-0.02,0.14-0.14,1.13,0.36,1.42s1.27-0.25,1.43-0.36
			c1.12-0.77,0.89-1.78,1.78-2.14c0.61-0.23,1.3-0.09,1.78,0.36c0.19,0.19,0.32,0.44,0.36,0.71c0.08,0.63-0.44,0.88-0.71,1.78
			c-0.12,0.38-0.3,1.23,0,1.42c0.35,0.22,1.26-0.52,1.78-1.07c0.87-0.92,0.77-1.45,1.42-1.78c0.75-0.38,1.87-0.19,2.14,0.36
			c0.17,0.35-0.04,0.79-0.36,1.42c-0.52,1.05-0.95,1.13-1.07,1.78c-0.14,0.74,0.21,1.67,0.71,1.78c0.55,0.13,1.2-0.76,1.42-1.07
			c0.7-0.95,0.57-1.6,1.07-1.78c0.58-0.1,1.16,0.19,1.42,0.71c0.17,0.46,0.17,0.97,0,1.42c-0.19,0.88-0.48,1.06-0.36,1.42
			c0.26,0.53,0.84,0.82,1.42,0.71c0.85-0.2,1.35-1.58,1.42-1.78c0.13-0.37,0.14-0.58,0.36-0.71c0.5-0.2,1.07-0.05,1.42,0.36
			c0.2,0.19,0.32,0.44,0.36,0.71c0.04,0.54-0.42,0.73-0.71,1.42c-0.32,0.74-0.28,1.66,0,1.78c0.18,0.08,0.47-0.19,1.07-0.71
			c0.26-0.21,0.5-0.45,0.71-0.71c0.57-0.76,0.38-1.28,0.71-1.42c0.46-0.2,1.5,0.49,1.78,1.42c0.29,0.97-0.41,1.62,0,2.14
			c0.35,0.44,1.16,0.38,1.42,0.36c0.83-0.06,1.07-0.48,1.42-0.36c0.59,0.2,0.28,1.42,0.71,2.49c0.18,0.44,0.69,1.37,5.7,3.21
			c2.67,0.98,2.84,0.83,3.92,1.42c1.54,0.9,2.87,2.12,3.92,3.56c1.08,1.3,4.64,3.59,11.75,8.19c2.02,1.3,4.03,2.62,6.05,3.92
			c3.67,2.34,6.23,3.92,6.05,4.27C543.28,200.14,542.92,200.09,542.63,200.02z"/>
		<path id="Path_155_1_" class="st52" d="M415.85,177.59c1.37-0.85,1.68-3.2,1.07-7.84c-0.58-4.5-1.66-8.91-3.2-13.18
			c-1.47-3.76-3.2-6.96-1.78-8.9c0.48-0.66,1.46-1.35,1.42-2.49c-0.01-0.74-0.42-1.42-1.07-1.78c-0.72-0.33-1.57-0.19-2.14,0.36
			c-0.67,0.73,0.06,1.6-0.36,3.56c-0.09,1-0.61,1.91-1.43,2.49c-0.57,0.3-1.43,0.4-1.78,0c-0.27-0.31-0.15-0.82,0-1.42
			c0.2-0.61,0.44-1.2,0.71-1.78c0.23-0.44,0.35-0.93,0.36-1.42c-0.11-0.62-0.5-1.15-1.07-1.42c-0.56-0.3-1.22-0.3-1.78,0
			c-0.73,0.47-0.43,1.36-1.07,3.56c-0.57,1.99-1.13,2.35-1.43,2.49c-0.45,0.21-0.97,0.21-1.42,0c-0.57-0.4-0.85-1.1-0.71-1.78
			c0.19-1.04,1.24-1.1,1.43-2.14c0.12-0.68-0.15-1.37-0.71-1.78c-0.55-0.33-1.23-0.33-1.78,0c-0.98,0.63-0.35,1.96-1.42,3.92
			c-0.34,0.8-0.98,1.44-1.78,1.78c-0.82,0.27-1.93,0.14-2.14-0.36c-0.24-0.58,0.95-1.12,1.43-2.85c0.24-0.57,0.24-1.21,0-1.78
			c-0.56-0.79-1.6-1.09-2.49-0.71c-0.73,0.39-0.58,1.21-1.43,3.56c-0.94,2.62-1.57,2.81-1.78,2.85c-0.58,0.1-1.16-0.19-1.43-0.71
			c-0.12-0.37,0.14-0.66,1.07-2.49c0.28-0.56,0.38-0.77,0.36-1.07c-0.12-0.61-0.52-1.14-1.07-1.42c-0.75-0.51-1.74-0.51-2.49,0
			c-0.65,0.72,0.45,1.78,0,3.56c-0.22,1.15-1.03,2.1-2.14,2.49c-0.89,0.21-2.01-0.17-2.14-0.71c-0.12-0.52,0.76-0.81,1.42-2.14
			c0.28-0.56,0.75-1.49,0.36-2.14c-0.64-0.7-1.68-0.85-2.49-0.36c-0.57,0.44-0.95,1.07-1.07,1.78c-0.35,1.13-0.03,1.38-0.36,2.14
			c-0.44,0.86-1.21,1.51-2.14,1.78c-0.83,0.23-2.19,0.26-2.49-0.36c-0.24-0.49,0.39-0.97,1.07-2.85c0.32-0.9,0.48-1.35,0.36-1.78
			c-0.34-1.2-2.34-2-3.2-1.42c-0.36,0.24-0.32,0.58-0.71,2.85c-0.09,0.98-0.33,1.94-0.71,2.85c-0.32,0.65-0.88,1.76-1.78,1.78
			c-0.65-0.02-1.23-0.45-1.43-1.07c-0.15-0.63,0.43-0.89,0.71-2.14c0.18-0.58,0.18-1.2,0-1.78c-0.28-0.74-1.05-1.55-1.78-1.42
			c-0.58,0.1-0.91,0.75-1.07,1.07c-0.47,0.95-0.13,1.44-0.36,2.85c-0.03,0.94-0.41,1.83-1.07,2.49c-0.6,0.49-1.62,0.79-2.14,0.36
			c-0.26-0.29-0.39-0.68-0.36-1.07c-0.02-0.87,0.41-1.2,0.71-2.14c0.17-0.52,0.6-1.84,0-2.49c-0.55-0.59-1.75-0.41-2.49,0
			c-0.75,0.48-1.27,1.26-1.42,2.14c-0.33,1.32,0.28,1.68,0,2.85c-0.32,1.35-1.58,2.71-2.49,2.49c-0.7-0.3-1.13-1.02-1.07-1.78
			c0.06-0.88,0.84-1.03,1.07-2.14c0.03-0.14,0.25-1.24-0.36-1.78c-0.65-0.57-1.79-0.13-2.14,0c-0.59,0.17-1.1,0.55-1.42,1.07
			c-0.47,0.88,0.24,1.42,0,2.85c-0.14,0.8-0.51,1.54-1.07,2.14c-0.24,0.26-1.26,1.37-2.14,1.07c-0.32-0.13-0.58-0.39-0.71-0.71
			c-0.34-0.82,0.4-1.4,0.71-3.21c0.15-0.46,0.15-0.96,0-1.42c-0.72-1.03-2.11-1.34-3.21-0.71c-0.65,0.58,0.04,1.44-0.36,3.56
			c-0.1,0.53-0.55,2.97-2.14,3.56c-0.07,0.03-0.81,0.29-1.07,0c-0.33-0.38,0.53-1.23,0.71-2.85c0.2-0.73,0.07-1.51-0.36-2.14
			c-0.82-0.71-2.03-0.71-2.85,0c-0.48,0.49-0.25,1.03-0.36,2.49c-0.08,1.15-0.28,3.83-1.78,4.63c-0.55,0.34-1.23,0.34-1.78,0
			c-0.51-0.47-0.27-1.58,0-2.85c0.3-1.39,0.61-1.77,0.36-2.14c-0.72-0.6-1.77-0.6-2.49,0c-0.9,0.79-0.05,2.01-0.71,3.92
			c-0.72,2.07-2.72,3.5-3.2,3.21c-0.13-0.08-0.12-0.27,0-1.78c0.18-0.94,0.18-1.91,0-2.85c-0.5-0.87-1.52-1.31-2.49-1.07
			c-0.84,0.29-1.15,1.28-1.43,2.14c-0.35,1.1-0.08,1.33-0.36,2.49c-0.17,0.7-0.62,2.63-1.78,2.85c-0.77,0.12-1.52-0.33-1.78-1.07
			c-0.1-0.69,0.9-0.91,1.42-2.14c0.41-0.95,0.56-2.57-0.36-3.21c-0.81-0.47-1.84-0.32-2.49,0.36c-0.47,0.53-0.34,1.16-0.36,2.49
			c0.01,1.2-0.11,2.39-0.36,3.56c-1.06,3.11-8.91,2.15-9.26,3.92c-0.21,1.06,2.51,1.9,6.41,4.99c2.61,2.07,4.4,3.48,5.7,5.7
			c3.16,5.38,0.71,10.9,3.2,12.11c0.62,0.3,1.68,0.4,3.56-0.71c-0.6-1.73-1.2-3.51-1.78-5.34c-1.5-4.71-1.01-5.26-2.14-7.12
			c-0.84-1.38-1.68-2.16-1.42-3.21c0.27-0.98,1.12-1.69,2.14-1.78c2.27,0.04,4.23,5.36,4.99,8.19c0.98,3.7,0.74,6.32,2.49,7.12
			c0.56,0.29,1.22,0.29,1.78,0c0.17-0.12,0.86-0.69,0.36-3.56c-0.48-2.74-1.27-3.16-2.85-7.48c-0.36-1.23-0.83-2.42-1.43-3.56
			c-0.68-1.19-1.28-1.79-1.07-2.14c0.3-0.5,2.03-0.27,3.2,0.36c3.03,1.61,3.55,6.43,3.92,10.33c0.58,6.16-0.46,10.06,1.07,10.68
			c0.85,0.35,1.95-0.56,2.14-0.71c1.12-0.93,1.69-2.6,1.42-6.41c-0.27-3.85-0.39-7.69-2.85-11.4c-0.82-1.23-1.84-2.39-1.42-3.21
			c0.4-0.79,1.93-0.82,3.2-0.71c0.71,1.49,1.31,3.04,1.78,4.63c0.48,1.63,0.84,3.3,1.07,4.98c0.76,4.88,1.38,5.42,2.14,9.62
			c1.44,8.04,2.16,12.07,0.36,15.31c-1.05,1.98-1.66,4.17-1.78,6.41c-0.01,1.27,0.28,1.4,0.36,1.42c0.39,0.13,1.02-0.8,1.43-1.42
			c1.75-2.71,2.62-4.06,3.2-6.05c0.96-3.29,0.66-6.75,0-13.53c-0.38-3.91-0.67-5.02-1.07-9.97c-0.2-2.47-0.17-2.75-0.36-3.92
			c-0.8-5.08-2.67-8.23-2.14-8.55c0.28-0.17,1.08,0.58,1.78,1.42c2.55,3.08,3.1,6.68,3.56,11.4c0.47,4.26,0.7,8.54,0.71,12.82
			c0.08,3.21-0.04,6.42-0.36,9.61c-0.52,4.62-1.38,7.58-0.71,7.84c0.56,0.22,1.81-1.6,2.49-2.85c1.2-2.31,1.81-4.88,1.78-7.48
			c0.43-13.7,0.53-13.42,0.36-15.31c-0.51-5.55-0.77-8.32-1.78-10.33c-1.04-2.42-1.87-4.92-2.49-7.48c-0.16-0.56-0.49-1.75,0-2.14
			s1.51,0.2,1.78,0.36c2.39,1.34,3.23,5.44,4.27,12.46c0.54,3.63,0.81,5.44,1.07,7.84c0.68,6.36,1.03,9.54,0.71,12.82
			c-0.47,4.92-1.87,8.57-1.07,8.9c0.53,0.22,1.88-1.07,2.49-1.78c1.38-2.66,2.23-5.56,2.49-8.55c0.11-2.38-0.01-4.76-0.36-7.12
			c-0.24-2.37-0.46-3.75-1.07-7.84c-2.01-13.41-2-13.92-2.85-15.31c-0.68-1.12-2.06-3.06-1.42-3.92c0.34-0.46,1.14-0.44,1.78-0.36
			c0.52,1.24,1.14,2.8,1.78,4.63c0.31,0.87,1.27,3.66,2.14,7.12c1.72,6.84,3.19,12.68,2.49,19.94c-0.28,2.9-0.88,5.77-1.78,8.55
			c-0.01,0.6,0.03,1.31,0.36,1.42c0.52,0.18,1.46-1.28,1.78-1.78c1.56-2.61,2.53-5.52,2.85-8.55c0.3-4.64,0.06-9.3-0.71-13.89
			c-0.63-4.1-1.58-8.15-2.85-12.11c-0.65-2.04-1.29-3.74-1.78-4.99c0.35-0.43,0.87-0.69,1.42-0.71c1.55,0.13,2.41,3.49,3.2,6.77
			c2.18,8.92,3.27,13.39,3.56,16.74c0.55,6.35,0.82,9.52-0.71,11.4c-0.99,1.27-1.72,2.72-2.14,4.27c-0.46,1.73-0.1,2.06,0,2.14
			c0.47,0.35,1.5-0.16,2.14-0.71c0.78-0.77,1.28-1.77,1.43-2.85c0.69-3.09,1.63-3.2,2.49-6.05c0.37-1.21,0.93-3.62,0.36-8.55
			c-1.1-9.45-5.74-22.36-6.41-24.22h4.28c1.35,2.73,2.42,5.6,3.2,8.55c0.71,2.8,1.19,5.66,1.43,8.55c0.43,4.11,0.65,6.16,0.36,8.55
			c-0.48,4-1.43,8.19-1.43,8.19c-0.4,1.79-0.73,3.01-0.36,3.21c0.54,0.28,2.2-1.63,3.2-3.21c1.58-2.47,2.21-5.14,2.49-8.9
			c0.91-8.78-0.96-17.62-5.34-25.28l2.85,0.36c0.98,1.95,1.81,3.98,2.49,6.05c1.26,3.8,1.98,7.75,2.14,11.75
			c0.1,3.97-0.38,7.92-1.42,11.75c-0.38,1.47-0.77,2.68-1.07,3.56c0.61,0.04,1.23-0.08,1.78-0.36c1.13-0.73,1.9-1.89,2.14-3.21
			c1.05-3.59,1.65-7.3,1.78-11.04c-0.01-4.45-0.61-8.88-1.78-13.18c-0.5-1.81-1.09-3.6-1.78-5.34l1.78-1.07
			c0.56,1.27,1.34,3.09,2.14,5.34c1.68,4.72,2.7,7.59,2.85,11.4c0.08,3-0.27,6-1.07,8.9c-1.09,3.84-2.77,6.61-1.78,7.48
			c0.55,0.32,1.23,0.32,1.78,0c1.29-0.64,1.47-2.49,1.78-4.63c0.76-5.21,1-3.4,1.42-7.48c0.52-5.05,0.83-8.02,0-11.75
			c-0.76-3.35-2.22-6.5-4.27-9.26l2.85-0.36c0.99,1.83,1.82,3.73,2.49,5.7c1.39,4.07,1.67,7.19,2.14,12.46
			c0.46,5.11,0.14,6.56,0,7.12c-0.42,1.7-1.15,3.27-0.71,3.56c0.35,0.23,1.24-0.47,1.78-1.07c0.9-1.11,1.4-2.49,1.42-3.92
			c0.38-5.25,0.57-7.88,0.36-10.33c-0.1-2.29-0.46-4.56-1.07-6.77c-0.72-2.4-1.8-4.68-3.2-6.77h3.56c0.97,1.59,1.81,3.25,2.49,4.99
			c1.73,4.38,3.06,7.74,2.14,11.4c-0.66,2.64-2.35,4.87-1.43,6.77c0.09,0.18,0.34,0.7,0.71,0.71c0.81,0.04,1.52-2.34,1.78-3.21
			c1.41-3.88,1.66-8.09,0.71-12.11c-1.18-4.63-3.75-7.8-2.85-8.55c0.28-0.23,0.74-0.09,2.49,0l0,0c1.99,5.51,2.99,8.28,3.2,9.26
			c0.78,3.57,1.79,8.21,0,12.47c-0.36,0.85-1.06,2.23-0.71,2.49s1.68-0.61,2.49-1.78c0.84-1.2,0.9-2.38,1.07-4.99
			c0.34-5.35,0.37-4.86,0.36-5.34c-0.26-4.25-1.47-8.39-3.56-12.11c0.44-0.57,1.07-0.95,1.78-1.07c0.78-0.05,1.55,0.2,2.14,0.71
			c1.97,1.46,2.34,4.61,2.49,6.05c0.41,4.02,0.53,8.07,0.36,12.11C414.92,177.98,415.42,177.85,415.85,177.59z"/>
		<path id="Path_156_1_" class="st52" d="M296.9,200.02c-1.28,1.13-4.22,0.1-6.05-1.42c-1.42-1.18-1.01-1.69-2.49-3.21
			c-1.66-1.63-3.77-2.75-6.05-3.21c-1.76-0.38-3.58-0.38-5.34,0l-6.41,1.78l-4.27,0.36l-4.99-0.71l-4.27-2.85l-2.49,1.78
			l-10.33,4.63l-19.23,4.99l-21.72,5.7l-12.82,3.92l-9.26,2.49l-6.41,2.49h-1.43l3.92-2.85l18.52-11.4l16.03-8.9l15.67-7.48
			c5.66-3.34,9.9-5.85,12.11-7.12c0.76-0.39,1.48-0.87,2.14-1.42c1.59-1.4,1.69-2.42,3.2-3.21c0.72-0.37,0.84-0.21,1.78-0.71
			c1.06-0.56,1.3-0.97,2.14-1.42c0.79-0.35,1.63-0.59,2.49-0.71c3.1-0.69,3.47-0.66,4.27-1.07c0.83-0.44,1.56-1.04,2.14-1.78
			l2.49-1.42l2.85-1.07h6.41l6.05,1.78l5.7,2.49l4.63,2.85c1.45,0.78,2.58,2.04,3.2,3.56c0.54,1.45,0.19,2.39,0.71,4.27
			c0.36,1.29,0.97,2.5,1.78,3.56l2.85,5.34l2.49,4.27c0.66,1.19,0.91,2.57,0.71,3.92C297.59,198.9,297.34,199.53,296.9,200.02z"/>
		<path id="Path_159_1_" class="st53" d="M258.08,189.7c-0.43-0.92,1.55-2.65,1.78-2.85c1.01-0.9,2.24-1.52,3.56-1.78
			c1.97-0.28,3.97,0.1,5.7,1.07c1.31,0.59,3.65,1.64,3.56,2.85c-0.06,0.81-1.19,1.34-2.14,1.78c-1.68,0.74-3.53,0.99-5.34,0.71
			c-1.78-0.25-1.6-0.67-3.92-1.07C259.26,190.06,258.34,190.25,258.08,189.7z"/>
	</g>
</g>
<g id="Layer_2">
</g>
<g id="intro">
</g>
</svg>
