<?xml version="1.0" encoding="utf-8"?>
<!-- Generator: Adobe Illustrator 23.0.4, SVG Export Plug-In . SVG Version: 6.00 Build 0)  -->
<svg  id="DinoTijd" version="1.1" xmlns="http://www.w3.org/2000/svg" xmlns:xlink="http://www.w3.org/1999/xlink" x="0px" y="0px"
	 viewBox="0 0 1920 1071" style="enable-background:new 0 0 1920 1071;" xml:space="preserve">
<style type="text/css">
	.st0{fill:url(#Ozonlaag_2_);}
	.st1{fill:#FABB56;}
	.st2{fill:#DDBE9B;}
	.st3{fill:#489374;}
	.st4{fill:#D3424D;}
	.st5{fill:#AF2C3C;}
	.st6{fill:#287F5C;}
	.st7{fill:#38A179;}
	.st8{fill:#754C24;}
	.st9{fill:#2C966A;}
	.st10{fill:url(#Path_8_2_);}
	.st11{fill:url(#Path_9_2_);}
	.st12{fill:url(#Path_11_2_);}
	.st13{fill:url(#Path_17_2_);}
	.st14{fill:url(#Path_18_2_);}
	.st15{fill:url(#Path_20_2_);}
	.st16{fill:url(#Path_26_3_);}
	.st17{fill:url(#Path_27_3_);}
	.st18{fill:url(#Path_29_3_);}
	.st19{fill:url(#Path_26_4_);}
	.st20{fill:url(#Path_27_4_);}
	.st21{fill:url(#Path_29_4_);}
	.st22{fill:url(#Path_31_3_);}
	.st23{fill:url(#Path_31_4_);}
	.st24{fill:url(#Path_34_2_);}
	.st25{fill:#68A8C1;}
	.st26{fill:#71B5D8;}
	.st27{fill:#62A3BC;}
	.st28{fill:#78BFEA;}
	.st29{fill:#B3D9E5;}
	.st30{opacity:0.5;fill:#B3D9E5;enable-background:new    ;}
	.st31{fill:#3B5093;}
	.st32{fill:#485CAF;}
	.st33{fill:url(#Path_2_2_);}
	.st34{fill:#393D75;}
	.st35{fill:#585D89;}
	.st36{fill:#F23B68;}
	.st37{fill:#D32F5E;}
	.st38{fill:none;stroke:#585D89;stroke-miterlimit:10;}
	.st39{fill:#29C6B5;}
	.st40{fill:url(#Path_106_1_);}
	.st41{fill:#B72C5A;}
	.st42{fill:#445FB5;}
	.st43{opacity:0.7;fill:#393D75;enable-background:new    ;}
	.st44{opacity:0.7;fill:url(#Rectangle_47_2_);enable-background:new    ;}
	.st45{opacity:0.7;fill:url(#Rectangle_48_2_);enable-background:new    ;}
	.st46{opacity:0.7;fill:url(#Rectangle_49_2_);enable-background:new    ;}
	.st47{opacity:0.4;fill:#FDB65B;enable-background:new    ;}
	.st48{fill:#A52556;}
	.st49{fill:#5F3D75;}
	.st50{opacity:0.2;fill:#38A179;enable-background:new    ;}
	.st51{fill:url(#Rectangle_88_1_);}
	.st52{opacity:0.7;fill:url(#Rectangle_136_2_);enable-background:new    ;}
	.st53{opacity:0.7;fill:url(#Rectangle_137_2_);enable-background:new    ;}
	.st54{fill:#E6E6E6;}
	.st55{fill:#FFFFFF;}
	.st56{fill:#E2E2E2;}
	.st57{fill:none;}
	.st58{fill:#42477A;}
	.st59{fill:#394072;}
	.st60{fill:#888FB5;}
	.st61{fill:#2D3159;}
	.st62{fill:#E79DC0;}
	.st63{fill:#B72757;}
	.st64{fill:#337C5B;}
	.st65{fill:url(#Path_214_1_);}
	.st66{fill:url(#Path_216_1_);}
	.st67{fill:url(#Path_219_1_);}
	.st68{fill:url(#SVGID_1_);}
	.st69{fill:url(#SVGID_2_);}
	.st70{fill:url(#SVGID_3_);}
	.st71{fill:url(#SVGID_4_);}
	.st72{opacity:0.7;fill:url(#Rectangle_47_3_);enable-background:new    ;}
	.st73{opacity:0.7;fill:url(#Rectangle_48_3_);enable-background:new    ;}
	.st74{opacity:0.7;fill:url(#Rectangle_49_3_);enable-background:new    ;}
	.st75{opacity:0.7;fill:url(#Rectangle_136_3_);enable-background:new    ;}
	.st76{opacity:0.7;fill:url(#Rectangle_137_3_);enable-background:new    ;}
	.st77{fill:url(#Path_2_3_);}
	.st78{fill:#0071BC;}
	.st79{fill:#485EB0;}
	.st80{fill:url(#Path_77_1_);}
	.st81{fill:none;stroke:#485EB0;stroke-width:5;stroke-miterlimit:10;}
	.st82{fill:#CCCCCC;}
	.st83{opacity:0.54;fill:#CCCCCC;enable-background:new    ;}
	
		.st84{opacity:0.35;fill:none;stroke:#808080;stroke-width:0.5;stroke-linecap:round;stroke-miterlimit:10;enable-background:new    ;}
	.st85{fill:url(#Path_92_2_);}
	.st86{fill:url(#Path_93_2_);}
	.st87{fill:url(#Path_94_2_);}
	.st88{fill:url(#Path_95_2_);}
	.st89{fill:url(#Waterdunner_2_);}
	.st90{fill:url(#Waterdikker_5_);}
	.st91{fill:url(#Ozonlaag_3_);}
	.st92{fill:url(#Waterdikker_7_);}
	.st93{fill:url(#Waterdikker_8_);}
	.st94{fill:url(#Path_94_3_);}
	.st95{fill:url(#Path_95_3_);}
	.st96{fill:url(#Waterdikker_9_);}
	.st97{fill:url(#Waterdikker_10_);}
	.st98{fill:url(#SVGID_5_);}
	.st99{fill:url(#Waterdikker_11_);}
	.st100{fill:url(#Path_92_3_);}
	.st101{fill:url(#Path_93_3_);}
	.st102{fill:url(#Waterdunner_3_);}
	.st103{fill:#F2F2F2;}
</style>
<g id="Layer_1">
	
		<linearGradient id="Ozonlaag_2_" gradientUnits="userSpaceOnUse" x1="1.2126" y1="1081.5208" x2="1.2106" y2="1080.0127" gradientTransform="matrix(1921 0 0 -709.0353 -1366 767032.625)">
		<stop  offset="0" style="stop-color:#FFFFFF;stop-opacity:0"/>
		<stop  offset="0.586" style="stop-color:#D6E4E0"/>
		<stop  offset="0.956" style="stop-color:#7FAA9F"/>
	</linearGradient>
	<path id="Ozonlaag_1_" class="st0" d="M0.03,1070.5h1923.09c-0.33-156.2-0.67-312.4-1-468.6
		c-161.22-85.95-508.04-243.14-973.57-240.4C496.6,364.16,159.74,516.21-0.98,601.9C-0.64,758.1-0.31,914.3,0.03,1070.5z"/>
	<ellipse id="Zon_2_" class="st1" cx="269.46" cy="200.5" rx="130.21" ry="130"/>
	<rect id="Zand_1_" x="-0.98" y="882.5" class="st2" width="1924.09" height="189"/>
	<g id="Group_1_1_" transform="translate(191.316 -134.311)">
		<path id="Path_36_1_" class="st3" d="M1224.35,1058.15h91.42c1.3-7.34,1.8-14.81,1.5-22.26c-0.58-14.42-0.93-23.1-7.57-27.82
			c-6.96-4.95-18.17-3.67-25.73,1.46c-9.72,6.6-10.51,17.59-10.59,19.04c0.14-4.48,0.18-22.95-13.92-36.9
			c-13.67-13.52-39.06-21.27-53.27-10.25c-13.38,10.38-9.88,32-9.08,36.9C1200.95,1042.01,1219.93,1055.22,1224.35,1058.15z"/>
		<path id="Path_37_1_" class="st4" d="M1218.77,992.25c0.63,0.09,0.99,1.53,0.91,2.64c-0.06,0.76-0.39,2.02-0.91,2.05
			c-0.68,0.05-1.82-1.98-1.21-3.51C1217.77,992.88,1218.3,992.18,1218.77,992.25z"/>
		<path id="Path_38_1_" class="st5" d="M1229.54,1005.72c-0.48,0.07-0.75,1.14-0.68,1.98c0.05,0.57,0.29,1.51,0.68,1.54
			c0.51,0.03,1.37-1.49,0.91-2.63C1230.29,1006.2,1229.9,1005.68,1229.54,1005.72z"/>
		<path id="Path_39_1_" class="st4" d="M1237.42,995.18c-0.48,0.07-0.75,1.14-0.68,1.98c0.05,0.57,0.29,1.51,0.68,1.54
			c0.51,0.03,1.37-1.49,0.91-2.63C1238.16,995.65,1237.77,995.13,1237.42,995.18z"/>
		<path id="Path_40_1_" class="st4" d="M1225.01,982.59c-0.48,0.07-0.75,1.14-0.68,1.97c0.05,0.57,0.29,1.51,0.68,1.54
			c0.51,0.03,1.37-1.49,0.91-2.63C1225.75,983.06,1225.36,982.54,1225.01,982.59z"/>
		<path id="Path_41_1_" class="st4" d="M1250.43,997.82c-0.47,0.07-0.75,1.14-0.68,1.98c0.05,0.57,0.29,1.51,0.68,1.54
			c0.51,0.03,1.37-1.49,0.91-2.63C1251.18,998.29,1250.78,997.77,1250.43,997.82z"/>
		<path id="Path_42_1_" class="st4" d="M1290.39,1020.07c-0.48,0.07-0.75,1.14-0.68,1.97c0.05,0.57,0.29,1.51,0.68,1.54
			c0.51,0.03,1.37-1.49,0.91-2.63C1291.13,1020.55,1290.74,1020.03,1290.39,1020.07z"/>
		<path id="Path_43_1_" class="st4" d="M1265.26,1028.28c-0.48,0.06-0.75,1.14-0.68,1.98c0.05,0.57,0.29,1.51,0.68,1.54
			c0.51,0.03,1.37-1.49,0.91-2.63C1266.01,1028.75,1265.62,1028.23,1265.26,1028.28z"/>
		<path id="Path_44_1_" class="st4" d="M1304.91,1017.73c-0.48,0.07-0.75,1.14-0.68,1.98c0.05,0.57,0.29,1.51,0.68,1.54
			c0.51,0.03,1.37-1.49,0.91-2.63C1305.66,1018.21,1305.27,1017.68,1304.91,1017.73z"/>
		<path id="Path_45_1_" class="st4" d="M1301.58,1031.79c-0.48,0.06-0.75,1.14-0.68,1.97c0.05,0.57,0.29,1.51,0.68,1.54
			c0.51,0.03,1.37-1.49,0.91-2.63C1302.33,1032.26,1301.94,1031.75,1301.58,1031.79z"/>
		<path id="Path_46_1_" class="st4" d="M1287.36,1030.03c-0.47,0.06-0.75,1.14-0.68,1.98c0.05,0.57,0.29,1.51,0.68,1.54
			c0.51,0.03,1.37-1.49,0.91-2.63C1288.1,1030.51,1287.71,1029.98,1287.36,1030.03z"/>
		<path id="Path_47_1_" class="st5" d="M1251.34,1023.59c-0.48,0.07-0.75,1.14-0.68,1.98c0.05,0.57,0.29,1.51,0.68,1.54
			c0.51,0.03,1.37-1.49,0.91-2.63C1252.09,1024.06,1251.7,1023.54,1251.34,1023.59z"/>
		<path id="Path_48_1_" class="st5" d="M1236.51,1034.72c-0.48,0.07-0.75,1.14-0.68,1.98c0.05,0.57,0.29,1.51,0.68,1.54
			c0.51,0.03,1.37-1.49,0.91-2.63C1237.25,1035.19,1236.86,1034.67,1236.51,1034.72z"/>
		<path id="Path_49_1_" class="st5" d="M1216.83,1028.28c-0.48,0.06-0.75,1.14-0.68,1.98c0.05,0.57,0.29,1.51,0.68,1.54
			c0.51,0.03,1.37-1.49,0.91-2.63C1217.58,1028.75,1217.18,1028.23,1216.83,1028.28z"/>
		<path id="Path_50_1_" class="st4" d="M1210.13,1005.14c-0.63,0.09-0.99,1.53-0.91,2.64c0.06,0.76,0.39,2.02,0.91,2.05
			c0.68,0.04,1.82-1.99,1.21-3.52C1211.12,1005.77,1210.6,1005.07,1210.13,1005.14z"/>
		<path id="Path_51_1_" class="st4" d="M1221.63,1014.8c-0.63,0.09-0.99,1.53-0.91,2.64c0.06,0.76,0.39,2.02,0.91,2.05
			c0.68,0.05,1.82-1.98,1.21-3.51C1222.62,1015.43,1222.1,1014.73,1221.63,1014.8z"/>
		<path id="Path_52_1_" class="st4" d="M1250.39,1008.65c-0.63,0.09-0.99,1.53-0.91,2.64c0.06,0.76,0.39,2.02,0.91,2.05
			c0.68,0.05,1.82-1.98,1.21-3.51C1251.38,1009.28,1250.86,1008.59,1250.39,1008.65z"/>
		<path id="Path_53_1_" class="st4" d="M1239.49,1017.14c-0.63,0.09-0.99,1.53-0.91,2.64c0.06,0.76,0.39,2.02,0.91,2.05
			c0.68,0.05,1.82-1.99,1.21-3.52C1240.49,1017.77,1239.96,1017.08,1239.49,1017.14z"/>
	</g>
	<g id="DinoBoom1_1_" transform="translate(96.055 -145)">
		<path id="Path_3_1_" class="st6" d="M1636.97,832.36c-18.05-5.9-15.64-12.6-42.93-30.64c-38.26-25.28-72.48-31.58-71.05-38.49
			c0.5-2.39,8.66-4.74,24.98-9.43c10.49-3.01,14.24-3.49,16.4-7.07c4.61-7.64-4.6-18.53-1.56-21.21c4.54-4,27.08,18.53,32.79,14.14
			c4.62-3.56-5.29-22.04-1.56-24.35c3.85-2.39,14.22,17.44,27.33,16.5c12.61-0.91,17.34-20.32,25.76-18.85
			c7.38,1.29,4.97,16.4,14.05,22.78c18.42,12.94,63.04-24.85,68.7-18.07c3.6,4.31-12.43,21.98-9.37,25.14
			c4.4,4.53,40.02-29.47,51.53-21.21c5.9,4.24-0.12,15.58,6.25,21.21c11.9,10.52,48.85-15.12,51.53-11
			c2.19,3.36-22.25,20.76-19.52,25.92c3.02,5.72,35.4-11.12,39.04-5.5c4.94,7.64-40.66,60.47-102.28,74.63
			c-9.78,2.25-20.31,3.33-41.38,5.5C1670.84,835.94,1653.09,837.63,1636.97,832.36z"/>
		<path id="Path_4_1_" class="st7" d="M1643.22,848.07c-18.05-5.9-15.64-12.6-42.94-30.64c-38.26-25.28-72.48-31.58-71.05-38.49
			c0.5-2.39,8.66-4.74,24.98-9.43c10.49-3.01,14.24-3.49,16.4-7.07c4.61-7.64-4.6-18.53-1.56-21.21c4.54-4,27.08,18.53,32.79,14.14
			c4.62-3.56-5.29-22.04-1.56-24.35c3.85-2.39,14.22,17.44,27.33,16.5c12.61-0.91,17.34-20.32,25.76-18.85
			c7.38,1.29,4.97,16.4,14.05,22.78c18.42,12.94,63.05-24.85,68.7-18.07c3.6,4.31-12.43,21.98-9.37,25.14
			c4.4,4.53,40.02-29.47,51.53-21.21c5.9,4.24-0.12,15.58,6.25,21.21c11.9,10.52,48.85-15.12,51.53-11
			c2.19,3.36-22.25,20.76-19.52,25.92c3.02,5.72,35.4-11.12,39.04-5.5c4.94,7.64-40.66,60.47-102.28,74.63
			c-9.78,2.25-20.31,3.33-41.38,5.5C1677.09,851.65,1659.34,853.34,1643.22,848.07z"/>
		<path id="Path_5_1_" class="st8" d="M1716.6,827.65c-7.73,1.06-8.71,6.58-17.96,9.43c-2.86,0.87-5.85,1.27-8.84,1.17
			c3.73-12.22,6.08-18.84,10.4-23.17c3.52-3.53,11.29-9.16,28.11-8.64c-3.47-2.49-7.49-4.1-11.71-4.71
			c-6.25-0.75-12.58,0.63-17.96,3.93c-5.61,3.65-6.11,7.3-12.49,15.71c-0.87,1.14-1.61,2.05-2.29,2.84
			c-2.13-4.87-4.77-9.51-7.85-13.83c-4.42-6.18-7.79-10.76-14.05-13.35c-4.21-1.68-8.79-2.23-13.27-1.57
			c5.6,2.66,10.44,6.72,14.05,11.78c5.1,7.31,6.57,15.72,7.58,22.78h-2.14c-0.46-1.31-0.96-2.62-1.54-3.93
			c-6.16-13.8-16.88-21.31-21.86-24.35c3.71,5.57,6.6,11.66,8.59,18.07c1.03,3.33,1.78,6.75,2.24,10.21h-1.78
			c-0.41-0.54-0.82-1.07-1.24-1.57c-5.33-6.4-8.69-6.17-14.83-11.78c-5.67-5.17-12.25-13.98-15.61-29.85
			c-1.92,8.09-1.56,16.55,1.06,24.44c0.49,1.41,1.06,2.79,1.7,4.13c-6.61-6.16-9.7-9.52-15.25-13.64
			c-5.56-4.11-11.59-7.54-17.96-10.21c8,5.44,14.89,12.37,20.3,20.42c4.73,7.15,6.74,13.08,13.27,16.5c3.2,1.61,6.75,2.4,10.32,2.28
			c4.24,4.36,8.06,7.25,10.76,12.65c0.27,0.53,0.53,1.11,0.78,1.72v327.42h39.04V853.59c5.96-0.79,13.75-4.19,19.52-8.67
			c4.09-3.17,4.76-5.01,9.37-7.86c5-3.03,10.6-4.91,16.4-5.5C1727.84,829.3,1722.55,826.83,1716.6,827.65z"/>
		<path id="Path_6_1_" class="st9" d="M1690.27,869.56c-3.49-1.26-3.03-2.68-8.31-6.52c-7.41-5.38-14.03-6.72-13.75-8.19
			c0.1-0.51,1.68-1.01,4.84-2.01c2.03-0.64,2.76-0.74,3.17-1.5c0.89-1.62-0.89-3.94-0.3-4.51c0.88-0.85,5.24,3.94,6.35,3.01
			c0.89-0.76-1.02-4.69-0.3-5.18c0.74-0.51,2.75,3.71,5.29,3.51c2.44-0.19,3.36-4.32,4.99-4.01c1.43,0.27,0.96,3.49,2.72,4.85
			c3.57,2.75,12.2-5.29,13.3-3.84c0.7,0.92-2.41,4.68-1.81,5.35c0.85,0.96,7.75-6.27,9.97-4.51c1.14,0.9-0.02,3.32,1.21,4.51
			c2.3,2.24,9.45-3.22,9.97-2.34c0.42,0.72-4.31,4.42-3.78,5.52c0.59,1.22,6.85-2.37,7.55-1.17c0.96,1.62-7.87,12.86-19.79,15.88
			c-2.64,0.56-5.32,0.95-8.01,1.17C1696.82,870.32,1693.39,870.68,1690.27,869.56z"/>
		<path id="Path_7_1_" class="st6" d="M1613.23,928.97c-5.39-1.76-4.67-3.77-12.83-9.15c-11.43-7.55-21.66-9.44-21.23-11.5
			c0.15-0.72,2.58-1.41,7.46-2.82c3.13-0.9,4.25-1.04,4.9-2.11c1.38-2.28-1.37-5.54-0.47-6.34c1.35-1.2,8.09,5.54,9.8,4.22
			c1.38-1.06-1.58-6.59-0.47-7.28c1.15-0.71,4.25,5.21,8.17,4.93c3.77-0.27,5.18-6.07,7.7-5.63c2.2,0.39,1.48,4.9,4.2,6.81
			c5.51,3.87,18.84-7.42,20.53-5.4c1.08,1.29-3.71,6.57-2.8,7.51c1.32,1.35,11.96-8.8,15.4-6.34c1.76,1.27-0.04,4.66,1.87,6.34
			c3.56,3.14,14.6-4.52,15.4-3.29c0.65,1.01-6.65,6.2-5.83,7.75c0.9,1.71,10.58-3.32,11.67-1.64c1.48,2.28-12.15,18.07-30.56,22.3
			c-4.09,0.79-8.21,1.34-12.36,1.64C1623.35,930.04,1618.04,930.55,1613.23,928.97z"/>
		
			<linearGradient id="Path_8_2_" gradientUnits="userSpaceOnUse" x1="-106.2038" y1="1231.0461" x2="-105.3598" y2="1230.4034" gradientTransform="matrix(48.6547 0 0 -40.0869 6786.0229 50263.5156)">
			<stop  offset="0" style="stop-color:#A06227"/>
			<stop  offset="0.318" style="stop-color:#9C6026"/>
			<stop  offset="0.608" style="stop-color:#915A25"/>
			<stop  offset="0.887" style="stop-color:#7E5124"/>
			<stop  offset="1" style="stop-color:#754C24"/>
		</linearGradient>
		<path id="Path_8_1_" class="st10" d="M1656.49,942.34c-1.71-3.51-4.37-5.32-7.03-7.07c-6.33-4.18-11-4.66-16.27-6.08
			c0.12-1.32,0.16-2.92,1.44-4.14c1.32-1.25,2.44-0.66,4.69-1.57c4.49-1.82,6.52-6.84,6.25-7.07c-0.28-0.23-2.35,4.12-7.03,5.5
			c-2.9,0.85-3.93-0.27-7.03,0.78c-0.45,0.16-4.62,1.59-5.34,3.95c-10.75-5.04-16.03-13.11-16.52-12.59
			c-0.55,0.58,6.44,10.29,17.96,18.07c6.09,4.11,8.37,4.2,14.83,8.64c5.5,3.79,10.48,8.27,14.83,13.35
			C1658.43,950.22,1658.15,946.04,1656.49,942.34z"/>
		
			<linearGradient id="Path_9_2_" gradientUnits="userSpaceOnUse" x1="-66.8327" y1="1199.0657" x2="-65.9893" y2="1198.4241" gradientTransform="matrix(32.418 0 0 -26.711 5314.915 33809.75)">
			<stop  offset="0" style="stop-color:#A06227"/>
			<stop  offset="0.318" style="stop-color:#9C6026"/>
			<stop  offset="0.608" style="stop-color:#915A25"/>
			<stop  offset="0.887" style="stop-color:#7E5124"/>
			<stop  offset="1" style="stop-color:#754C24"/>
		</linearGradient>
		<path id="Path_9_1_" class="st11" d="M1682.43,877.92c1.08-1.99,2.7-3.63,4.68-4.71c4.22-2.78,7.33-3.11,10.84-4.05
			c0.05-1.01-0.3-2-0.96-2.76c-0.88-0.83-1.63-0.44-3.12-1.05c-2.99-1.21-4.35-4.56-4.16-4.71s1.56,2.75,4.68,3.66
			c1.93,0.57,2.62-0.18,4.68,0.52c0.3,0.1,3.08,1.06,3.56,2.63c7.16-3.36,10.68-8.73,11-8.39c0.36,0.39-4.29,6.86-11.96,12.04
			c-4.05,2.74-5.58,2.8-9.88,5.76c-3.66,2.52-6.99,5.51-9.88,8.9C1681.14,883.18,1681.33,880.39,1682.43,877.92z"/>
		<path id="Path_10_1_" class="st6" d="M1689.74,1005.17c-5.39-1.76-4.67-3.77-12.83-9.15c-11.43-7.55-21.66-9.44-21.23-11.5
			c0.15-0.72,2.58-1.41,7.46-2.82c3.13-0.9,4.25-1.04,4.9-2.11c1.38-2.28-1.37-5.54-0.47-6.34c1.36-1.2,8.09,5.54,9.8,4.22
			c1.38-1.06-1.58-6.59-0.47-7.28c1.15-0.72,4.25,5.21,8.16,4.93c3.77-0.27,5.18-6.07,7.7-5.63c2.21,0.39,1.48,4.9,4.2,6.81
			c5.51,3.87,18.84-7.42,20.53-5.4c1.07,1.29-3.71,6.57-2.8,7.51c1.32,1.35,11.96-8.8,15.4-6.34c1.76,1.27-0.04,4.66,1.87,6.34
			c3.56,3.14,14.6-4.52,15.4-3.29c0.65,1.01-6.65,6.2-5.83,7.75c0.9,1.71,10.58-3.32,11.66-1.64c1.48,2.28-12.15,18.07-30.56,22.3
			c-4.09,0.79-8.21,1.34-12.36,1.64C1699.86,1006.24,1694.55,1006.74,1689.74,1005.17z"/>
		
			<linearGradient id="Path_11_2_" gradientUnits="userSpaceOnUse" x1="-79.8533" y1="1211.413" x2="-79.0108" y2="1210.7715" gradientTransform="matrix(60.0708 0 0 -49.4845 7931.6704 61858.8984)">
			<stop  offset="0" style="stop-color:#A06227"/>
			<stop  offset="0.318" style="stop-color:#9C6026"/>
			<stop  offset="0.608" style="stop-color:#915A25"/>
			<stop  offset="0.887" style="stop-color:#7E5124"/>
			<stop  offset="1" style="stop-color:#754C24"/>
		</linearGradient>
		<path id="Path_11_1_" class="st12" d="M1671.57,1022.84c2.11-4.34,5.4-6.57,8.67-8.73c7.82-5.16,13.58-5.76,20.09-7.5
			c-0.15-1.62-0.2-3.6-1.78-5.1c-1.62-1.54-3.02-0.82-5.78-1.94c-5.54-2.25-8.06-8.45-7.71-8.73c0.33-0.27,2.9,5.09,8.67,6.79
			c3.58,1.05,4.85-0.34,8.67,0.97c0.56,0.19,5.7,1.96,6.6,4.87c13.27-6.22,19.78-16.18,20.39-15.54c0.68,0.72-7.95,12.71-22.17,22.3
			c-7.51,5.07-10.34,5.18-18.31,10.67c-6.79,4.67-12.94,10.22-18.31,16.49C1669.94,1035,1668.63,1028.89,1671.57,1022.84z"/>
	</g>
	<g id="DinoBoom1-2_1_" transform="translate(-412.945 -140.376)">
		<path id="Path_12_1_" class="st6" d="M1640.09,832.36c-18.05-5.9-15.64-12.6-42.93-30.64c-38.26-25.28-72.48-31.58-71.05-38.49
			c0.5-2.39,8.66-4.74,24.98-9.43c10.49-3.01,14.24-3.49,16.4-7.07c4.61-7.64-4.6-18.53-1.56-21.21c4.54-4,27.08,18.53,32.79,14.14
			c4.62-3.56-5.29-22.04-1.56-24.35c3.85-2.39,14.22,17.44,27.33,16.5c12.61-0.91,17.34-20.32,25.76-18.85
			c7.38,1.29,4.97,16.4,14.05,22.78c18.42,12.94,63.04-24.85,68.7-18.07c3.6,4.31-12.43,21.98-9.37,25.14
			c4.4,4.53,40.02-29.47,51.53-21.21c5.9,4.24-0.12,15.58,6.25,21.21c11.9,10.52,48.85-15.12,51.53-11
			c2.19,3.36-22.25,20.76-19.52,25.92c3.02,5.72,35.4-11.12,39.04-5.5c4.94,7.64-40.66,60.47-102.28,74.63
			c-9.78,2.25-20.31,3.33-41.38,5.5C1673.96,835.94,1656.22,837.63,1640.09,832.36z"/>
		<path id="Path_13_1_" class="st7" d="M1646.34,848.07c-18.05-5.9-15.64-12.6-42.94-30.64c-38.26-25.28-72.48-31.58-71.05-38.49
			c0.5-2.39,8.66-4.74,24.98-9.43c10.49-3.01,14.24-3.49,16.4-7.07c4.61-7.64-4.6-18.53-1.56-21.21c4.54-4,27.08,18.53,32.79,14.14
			c4.62-3.56-5.29-22.04-1.56-24.35c3.85-2.39,14.22,17.44,27.33,16.5c12.61-0.91,17.34-20.32,25.76-18.85
			c7.38,1.29,4.97,16.4,14.05,22.78c18.42,12.94,63.05-24.85,68.7-18.07c3.6,4.31-12.43,21.98-9.37,25.14
			c4.4,4.53,40.02-29.47,51.53-21.21c5.9,4.24-0.12,15.58,6.25,21.21c11.9,10.52,48.85-15.12,51.53-11
			c2.19,3.36-22.25,20.76-19.52,25.92c3.02,5.72,35.4-11.12,39.04-5.5c4.94,7.64-40.66,60.47-102.28,74.63
			c-9.78,2.25-20.31,3.33-41.38,5.5C1680.21,851.65,1662.46,853.34,1646.34,848.07z"/>
		<path id="Path_14_1_" class="st8" d="M1719.72,827.65c-7.73,1.06-8.71,6.58-17.96,9.43c-2.86,0.87-5.85,1.27-8.84,1.17
			c3.73-12.22,6.08-18.84,10.4-23.17c3.52-3.53,11.29-9.16,28.11-8.64c-3.47-2.49-7.49-4.1-11.71-4.71
			c-6.25-0.75-12.58,0.63-17.96,3.93c-5.61,3.65-6.11,7.3-12.49,15.71c-0.87,1.14-1.61,2.05-2.29,2.84
			c-2.13-4.87-4.77-9.51-7.85-13.83c-4.42-6.18-7.79-10.76-14.05-13.35c-4.21-1.68-8.79-2.23-13.27-1.57
			c5.6,2.66,10.44,6.72,14.05,11.78c5.1,7.31,6.57,15.72,7.58,22.78h-2.14c-0.46-1.31-0.96-2.62-1.54-3.93
			c-6.16-13.8-16.88-21.31-21.86-24.35c3.71,5.57,6.6,11.66,8.59,18.07c1.03,3.33,1.78,6.75,2.24,10.21h-1.78
			c-0.41-0.54-0.82-1.07-1.24-1.57c-5.33-6.4-8.69-6.17-14.83-11.78c-5.66-5.17-12.25-13.98-15.61-29.85
			c-1.92,8.09-1.56,16.55,1.06,24.44c0.49,1.41,1.06,2.79,1.7,4.13c-6.61-6.16-9.7-9.52-15.25-13.64
			c-5.56-4.11-11.59-7.54-17.96-10.21c8,5.44,14.89,12.37,20.3,20.42c4.73,7.15,6.74,13.08,13.27,16.5c3.2,1.61,6.75,2.4,10.32,2.28
			c4.24,4.36,8.06,7.25,10.76,12.65c0.27,0.53,0.53,1.11,0.78,1.72v327.42h39.04V853.59c5.96-0.79,13.75-4.19,19.52-8.67
			c4.09-3.17,4.76-5.01,9.37-7.86c5-3.03,10.6-4.91,16.4-5.5C1730.96,829.3,1725.67,826.83,1719.72,827.65z"/>
		<path id="Path_15_1_" class="st9" d="M1693.39,869.56c-3.49-1.26-3.03-2.68-8.31-6.52c-7.41-5.38-14.03-6.72-13.75-8.19
			c0.1-0.51,1.68-1.01,4.84-2.01c2.03-0.64,2.76-0.74,3.17-1.5c0.89-1.62-0.89-3.94-0.3-4.51c0.88-0.85,5.24,3.94,6.35,3.01
			c0.89-0.76-1.02-4.69-0.3-5.18c0.74-0.51,2.75,3.71,5.29,3.51c2.44-0.19,3.36-4.32,4.99-4.01c1.43,0.27,0.96,3.49,2.72,4.85
			c3.57,2.75,12.2-5.29,13.3-3.84c0.7,0.92-2.41,4.68-1.81,5.35c0.85,0.96,7.75-6.27,9.97-4.51c1.14,0.9-0.02,3.32,1.21,4.51
			c2.3,2.24,9.45-3.22,9.97-2.34c0.42,0.72-4.31,4.42-3.78,5.52c0.59,1.22,6.85-2.37,7.55-1.17c0.96,1.62-7.87,12.86-19.79,15.88
			c-2.64,0.56-5.32,0.95-8.01,1.17C1699.95,870.32,1696.51,870.68,1693.39,869.56z"/>
		<path id="Path_16_1_" class="st6" d="M1616.35,928.97c-5.39-1.76-4.67-3.77-12.83-9.15c-11.43-7.55-21.66-9.44-21.23-11.5
			c0.15-0.72,2.58-1.41,7.46-2.82c3.13-0.9,4.25-1.04,4.9-2.11c1.38-2.28-1.37-5.54-0.47-6.34c1.35-1.2,8.09,5.54,9.8,4.22
			c1.38-1.06-1.58-6.59-0.47-7.28c1.15-0.71,4.25,5.21,8.17,4.93c3.77-0.27,5.18-6.07,7.7-5.63c2.2,0.39,1.48,4.9,4.2,6.81
			c5.5,3.87,18.84-7.42,20.53-5.4c1.08,1.29-3.71,6.57-2.8,7.51c1.32,1.35,11.96-8.8,15.4-6.34c1.76,1.27-0.04,4.66,1.87,6.34
			c3.56,3.14,14.6-4.52,15.4-3.29c0.65,1.01-6.65,6.2-5.83,7.75c0.9,1.71,10.58-3.32,11.67-1.64c1.48,2.28-12.15,18.07-30.56,22.3
			c-4.09,0.79-8.21,1.34-12.36,1.64C1626.47,930.04,1621.17,930.55,1616.35,928.97z"/>
		
			<linearGradient id="Path_17_2_" gradientUnits="userSpaceOnUse" x1="402.8604" y1="1226.4222" x2="403.7044" y2="1225.7794" gradientTransform="matrix(48.6547 0 0 -40.0869 -17979.2012 50078.1523)">
			<stop  offset="0" style="stop-color:#A06227"/>
			<stop  offset="0.318" style="stop-color:#9C6026"/>
			<stop  offset="0.608" style="stop-color:#915A25"/>
			<stop  offset="0.887" style="stop-color:#7E5124"/>
			<stop  offset="1" style="stop-color:#754C24"/>
		</linearGradient>
		<path id="Path_17_1_" class="st13" d="M1659.61,942.34c-1.71-3.51-4.37-5.32-7.03-7.07c-6.33-4.18-11-4.66-16.27-6.08
			c0.12-1.32,0.16-2.92,1.44-4.14c1.32-1.25,2.44-0.66,4.69-1.57c4.49-1.82,6.52-6.84,6.25-7.07s-2.35,4.12-7.03,5.5
			c-2.9,0.85-3.93-0.27-7.03,0.78c-0.45,0.16-4.62,1.59-5.35,3.95c-10.75-5.04-16.03-13.11-16.51-12.59
			c-0.55,0.58,6.44,10.29,17.96,18.07c6.09,4.11,8.37,4.2,14.83,8.64c5.5,3.79,10.48,8.27,14.83,13.35
			C1661.55,950.22,1661.27,946.04,1659.61,942.34z"/>
		
			<linearGradient id="Path_18_2_" gradientUnits="userSpaceOnUse" x1="442.2636" y1="1194.4417" x2="443.107" y2="1193.8002" gradientTransform="matrix(32.418 0 0 -26.711 -11185.8311 33686.2383)">
			<stop  offset="0" style="stop-color:#A06227"/>
			<stop  offset="0.318" style="stop-color:#9C6026"/>
			<stop  offset="0.608" style="stop-color:#915A25"/>
			<stop  offset="0.887" style="stop-color:#7E5124"/>
			<stop  offset="1" style="stop-color:#754C24"/>
		</linearGradient>
		<path id="Path_18_1_" class="st14" d="M1685.56,877.92c1.08-1.99,2.7-3.63,4.68-4.71c4.22-2.78,7.33-3.11,10.84-4.05
			c0.05-1.01-0.3-2-0.96-2.76c-0.88-0.83-1.63-0.44-3.12-1.05c-2.99-1.21-4.35-4.56-4.16-4.71c0.19-0.15,1.56,2.75,4.68,3.66
			c1.93,0.57,2.62-0.18,4.68,0.52c0.3,0.1,3.08,1.06,3.56,2.63c7.16-3.36,10.68-8.73,11-8.39c0.36,0.39-4.29,6.86-11.96,12.04
			c-4.05,2.74-5.58,2.8-9.88,5.76c-3.66,2.52-6.99,5.51-9.88,8.9C1684.27,883.18,1684.45,880.39,1685.56,877.92z"/>
		<path id="Path_19_1_" class="st6" d="M1692.86,1005.17c-5.39-1.76-4.67-3.77-12.83-9.15c-11.43-7.55-21.66-9.44-21.23-11.5
			c0.15-0.72,2.58-1.41,7.46-2.82c3.13-0.9,4.25-1.04,4.9-2.11c1.38-2.28-1.37-5.54-0.47-6.34c1.36-1.2,8.09,5.54,9.8,4.22
			c1.38-1.06-1.58-6.59-0.47-7.28c1.15-0.72,4.25,5.21,8.16,4.93c3.77-0.27,5.18-6.07,7.7-5.63c2.21,0.39,1.48,4.9,4.2,6.81
			c5.5,3.87,18.84-7.42,20.53-5.4c1.07,1.29-3.71,6.57-2.8,7.51c1.32,1.35,11.96-8.8,15.4-6.34c1.76,1.27-0.04,4.66,1.87,6.34
			c3.56,3.14,14.6-4.52,15.4-3.29c0.65,1.01-6.65,6.2-5.83,7.75c0.9,1.71,10.58-3.32,11.66-1.64c1.48,2.28-12.15,18.07-30.56,22.3
			c-4.09,0.79-8.21,1.34-12.36,1.64C1702.98,1006.24,1697.68,1006.74,1692.86,1005.17z"/>
		
			<linearGradient id="Path_20_2_" gradientUnits="userSpaceOnUse" x1="429.1987" y1="1206.7889" x2="430.0412" y2="1206.1475" gradientTransform="matrix(60.0708 0 0 -49.4845 -22644.3672 61630.082)">
			<stop  offset="0" style="stop-color:#A06227"/>
			<stop  offset="0.318" style="stop-color:#9C6026"/>
			<stop  offset="0.608" style="stop-color:#915A25"/>
			<stop  offset="0.887" style="stop-color:#7E5124"/>
			<stop  offset="1" style="stop-color:#754C24"/>
		</linearGradient>
		<path id="Path_20_1_" class="st15" d="M1674.69,1022.84c2.11-4.34,5.4-6.57,8.67-8.73c7.82-5.16,13.58-5.76,20.09-7.5
			c-0.15-1.62-0.2-3.6-1.78-5.1c-1.62-1.54-3.02-0.82-5.78-1.94c-5.54-2.25-8.06-8.45-7.71-8.73c0.33-0.27,2.9,5.09,8.67,6.79
			c3.58,1.05,4.86-0.34,8.67,0.97c0.56,0.19,5.7,1.96,6.6,4.87c13.27-6.22,19.78-16.18,20.39-15.54c0.68,0.72-7.95,12.71-22.17,22.3
			c-7.51,5.07-10.34,5.18-18.31,10.67c-6.79,4.67-12.94,10.22-18.31,16.49C1673.07,1035,1671.75,1028.89,1674.69,1022.84z"/>
	</g>
	<g id="DinoBoom1-3_1_" transform="translate(-842.945 -249)">
		<path id="Path_21_1_" class="st6" d="M1633.98,832.36c-18.19-5.9-15.76-12.6-43.27-30.64c-38.56-25.28-73.04-31.58-71.6-38.49
			c0.5-2.39,8.73-4.74,25.18-9.43c10.57-3.01,14.35-3.49,16.53-7.07c4.64-7.64-4.63-18.53-1.57-21.21
			c4.57-4,27.29,18.53,33.05,14.14c4.66-3.56-5.33-22.04-1.57-24.35c3.88-2.39,14.33,17.44,27.54,16.5
			c12.71-0.91,17.48-20.32,25.96-18.85c7.44,1.29,5.01,16.4,14.16,22.78c18.57,12.94,63.54-24.85,69.24-18.07
			c3.62,4.31-12.53,21.98-9.44,25.14c4.44,4.53,40.33-29.47,51.93-21.21c5.95,4.24-0.12,15.58,6.29,21.21
			c12,10.52,49.24-15.12,51.93-11c2.2,3.36-22.42,20.76-19.67,25.92c3.05,5.72,35.67-11.12,39.34-5.5
			c4.98,7.64-40.98,60.47-103.07,74.63c-9.85,2.25-20.47,3.33-41.7,5.5C1668.11,835.94,1650.22,837.63,1633.98,832.36z"/>
		<path id="Path_22_1_" class="st7" d="M1640.27,848.07c-18.19-5.9-15.76-12.6-43.27-30.64c-38.56-25.28-73.04-31.58-71.6-38.49
			c0.5-2.39,8.73-4.74,25.18-9.43c10.57-3.01,14.35-3.49,16.53-7.07c4.64-7.64-4.63-18.53-1.57-21.21
			c4.57-4,27.29,18.53,33.05,14.14c4.66-3.56-5.33-22.04-1.57-24.35c3.88-2.39,14.33,17.44,27.54,16.5
			c12.71-0.91,17.48-20.32,25.96-18.85c7.44,1.29,5.01,16.4,14.16,22.78c18.57,12.94,63.54-24.85,69.24-18.07
			c3.63,4.31-12.53,21.98-9.44,25.14c4.44,4.53,40.33-29.47,51.93-21.21c5.95,4.24-0.12,15.58,6.29,21.21
			c12,10.52,49.24-15.12,51.93-11c2.2,3.36-22.42,20.76-19.67,25.92c3.05,5.72,35.67-11.12,39.34-5.5
			c4.98,7.64-40.98,60.47-103.07,74.63c-9.85,2.25-20.47,3.33-41.7,5.5C1674.4,851.65,1656.52,853.34,1640.27,848.07z"/>
		<path id="Path_23_1_" class="st8" d="M1714.23,827.65c-7.79,1.06-8.78,6.58-18.1,9.43c-2.89,0.87-5.89,1.27-8.91,1.17
			c3.76-12.22,6.13-18.84,10.48-23.17c3.55-3.53,11.38-9.16,28.33-8.64c-3.5-2.49-7.55-4.1-11.8-4.71
			c-6.3-0.75-12.68,0.63-18.1,3.93c-5.66,3.65-6.16,7.3-12.59,15.71c-0.88,1.14-1.62,2.05-2.31,2.84c-2.15-4.87-4.8-9.51-7.91-13.83
			c-4.45-6.18-7.85-10.76-14.16-13.35c-4.24-1.68-8.86-2.23-13.38-1.57c5.65,2.66,10.52,6.72,14.16,11.78
			c5.14,7.31,6.62,15.72,7.64,22.78h-2.15c-0.46-1.31-0.97-2.62-1.56-3.93c-6.21-13.8-17.01-21.31-22.04-24.35
			c3.74,5.57,6.66,11.66,8.65,18.07c1.04,3.33,1.8,6.75,2.26,10.21h-1.79c-0.41-0.54-0.83-1.07-1.25-1.57
			c-5.37-6.4-8.75-6.17-14.95-11.78c-5.71-5.17-12.34-13.98-15.74-29.85c-1.94,8.09-1.57,16.55,1.06,24.44
			c0.49,1.41,1.06,2.79,1.72,4.13c-6.66-6.16-9.78-9.52-15.37-13.64c-5.6-4.11-11.68-7.54-18.1-10.21
			c8.06,5.44,15.01,12.37,20.46,20.42c4.76,7.15,6.79,13.08,13.38,16.5c3.22,1.61,6.8,2.4,10.4,2.28
			c4.28,4.36,8.12,7.25,10.84,12.65c0.27,0.53,0.53,1.11,0.79,1.72v327.42h39.34V853.59c6.01-0.79,13.85-4.19,19.67-8.67
			c4.12-3.17,4.79-5.01,9.44-7.86c5.04-3.03,10.68-4.91,16.53-5.5C1725.55,829.3,1720.22,826.83,1714.23,827.65z"/>
		<path id="Path_24_1_" class="st9" d="M1687.69,869.56c-3.52-1.26-3.05-2.68-8.38-6.52c-7.46-5.38-14.14-6.72-13.86-8.19
			c0.1-0.51,1.69-1.01,4.87-2.01c2.05-0.64,2.78-0.74,3.2-1.5c0.9-1.62-0.9-3.94-0.3-4.51c0.88-0.85,5.28,3.94,6.4,3.01
			c0.9-0.76-1.03-4.69-0.3-5.18c0.75-0.51,2.77,3.71,5.33,3.51c2.46-0.19,3.38-4.32,5.03-4.01c1.44,0.27,0.97,3.49,2.74,4.85
			c3.59,2.75,12.3-5.29,13.4-3.84c0.7,0.92-2.42,4.68-1.83,5.35c0.86,0.96,7.81-6.27,10.05-4.51c1.15,0.9-0.02,3.32,1.22,4.51
			c2.32,2.24,9.53-3.22,10.05-2.34c0.43,0.72-4.34,4.42-3.81,5.52c0.59,1.22,6.9-2.37,7.61-1.17c0.96,1.62-7.93,12.86-19.95,15.88
			c-2.66,0.56-5.36,0.95-8.07,1.17C1694.3,870.32,1690.83,870.68,1687.69,869.56z"/>
		<path id="Path_25_1_" class="st6" d="M1610.05,928.97c-5.44-1.76-4.71-3.77-12.93-9.15c-11.52-7.55-21.83-9.44-21.39-11.5
			c0.15-0.72,2.6-1.41,7.52-2.82c3.16-0.9,4.29-1.04,4.94-2.11c1.39-2.28-1.38-5.54-0.47-6.34c1.37-1.2,8.15,5.54,9.87,4.22
			c1.39-1.06-1.59-6.59-0.47-7.28c1.16-0.71,4.28,5.21,8.23,4.93c3.8-0.27,5.22-6.07,7.76-5.63c2.22,0.39,1.5,4.9,4.23,6.81
			c5.55,3.87,18.98-7.42,20.69-5.4c1.08,1.29-3.74,6.57-2.82,7.51c1.33,1.35,12.05-8.8,15.52-6.34c1.78,1.27-0.04,4.66,1.88,6.34
			c3.58,3.14,14.71-4.52,15.52-3.29c0.66,1.01-6.7,6.2-5.88,7.75c0.91,1.71,10.66-3.32,11.76-1.64c1.49,2.28-12.24,18.07-30.8,22.3
			c-4.12,0.79-8.28,1.34-12.46,1.64C1620.25,930.04,1614.9,930.55,1610.05,928.97z"/>
		
			<linearGradient id="Path_26_3_" gradientUnits="userSpaceOnUse" x1="832.7332" y1="1335.049" x2="833.581" y2="1334.4034" gradientTransform="matrix(48.6547 0 0 -40.0869 -38900.707 54432.5469)">
			<stop  offset="0" style="stop-color:#A06227"/>
			<stop  offset="0.318" style="stop-color:#9C6026"/>
			<stop  offset="0.608" style="stop-color:#915A25"/>
			<stop  offset="0.887" style="stop-color:#7E5124"/>
			<stop  offset="1" style="stop-color:#754C24"/>
		</linearGradient>
		<path id="Path_26_1_" class="st16" d="M1653.65,942.34c-1.72-3.51-4.41-5.32-7.08-7.07c-6.38-4.18-11.09-4.66-16.4-6.08
			c0.12-1.32,0.16-2.92,1.45-4.14c1.33-1.25,2.46-0.66,4.72-1.57c4.52-1.82,6.58-6.84,6.29-7.07c-0.28-0.23-2.37,4.12-7.08,5.5
			c-2.92,0.85-3.96-0.27-7.08,0.78c-0.46,0.16-4.65,1.59-5.39,3.95c-10.83-5.04-16.15-13.11-16.64-12.59
			c-0.55,0.58,6.49,10.29,18.1,18.07c6.13,4.11,8.44,4.2,14.95,8.64c5.54,3.79,10.57,8.27,14.95,13.35
			C1655.6,950.22,1655.32,946.04,1653.65,942.34z"/>
		
			<linearGradient id="Path_27_3_" gradientUnits="userSpaceOnUse" x1="872.3981" y1="1302.8309" x2="873.2473" y2="1302.1851" gradientTransform="matrix(32.418 0 0 -26.711 -25125.5586 36587.6953)">
			<stop  offset="0" style="stop-color:#A06227"/>
			<stop  offset="0.318" style="stop-color:#9C6026"/>
			<stop  offset="0.608" style="stop-color:#915A25"/>
			<stop  offset="0.887" style="stop-color:#7E5124"/>
			<stop  offset="1" style="stop-color:#754C24"/>
		</linearGradient>
		<path id="Path_27_1_" class="st17" d="M1679.79,877.92c1.09-1.99,2.72-3.63,4.72-4.71c4.25-2.78,7.39-3.11,10.93-4.05
			c0.05-1.01-0.3-2-0.97-2.76c-0.88-0.83-1.64-0.44-3.15-1.05c-3.01-1.21-4.38-4.56-4.19-4.71c0.19-0.15,1.58,2.75,4.72,3.66
			c1.95,0.57,2.64-0.18,4.72,0.52c0.3,0.1,3.1,1.06,3.59,2.63c7.22-3.36,10.76-8.73,11.09-8.39c0.37,0.39-4.32,6.86-12.06,12.04
			c-4.09,2.74-5.62,2.8-9.96,5.76c-3.69,2.52-7.04,5.51-9.96,8.9C1678.49,883.18,1678.68,880.39,1679.79,877.92z"/>
		<path id="Path_28_1_" class="st6" d="M1687.15,1005.17c-5.44-1.76-4.71-3.77-12.93-9.15c-11.52-7.55-21.83-9.44-21.39-11.5
			c0.15-0.72,2.6-1.41,7.52-2.82c3.16-0.9,4.29-1.04,4.94-2.11c1.39-2.28-1.39-5.54-0.47-6.34c1.37-1.2,8.15,5.54,9.87,4.22
			c1.39-1.06-1.59-6.59-0.47-7.28c1.16-0.72,4.28,5.21,8.23,4.93c3.8-0.27,5.22-6.07,7.76-5.63c2.22,0.39,1.5,4.9,4.23,6.81
			c5.55,3.87,18.98-7.42,20.69-5.4c1.08,1.29-3.74,6.57-2.82,7.51c1.33,1.35,12.05-8.8,15.52-6.34c1.78,1.27-0.04,4.66,1.88,6.34
			c3.58,3.14,14.71-4.52,15.52-3.29c0.66,1.01-6.7,6.2-5.88,7.75c0.91,1.71,10.66-3.32,11.75-1.64c1.49,2.28-12.24,18.07-30.8,22.3
			c-4.12,0.79-8.28,1.34-12.46,1.64C1697.35,1006.24,1692.01,1006.74,1687.15,1005.17z"/>
		
			<linearGradient id="Path_29_3_" gradientUnits="userSpaceOnUse" x1="859.2702" y1="1315.2872" x2="860.1184" y2="1314.6412" gradientTransform="matrix(60.0708 0 0 -49.4845 -48474.8125 67005.2891)">
			<stop  offset="0" style="stop-color:#A06227"/>
			<stop  offset="0.318" style="stop-color:#9C6026"/>
			<stop  offset="0.608" style="stop-color:#915A25"/>
			<stop  offset="0.887" style="stop-color:#7E5124"/>
			<stop  offset="1" style="stop-color:#754C24"/>
		</linearGradient>
		<path id="Path_29_1_" class="st18" d="M1668.84,1022.84c2.12-4.34,5.44-6.57,8.74-8.73c7.88-5.16,13.69-5.76,20.25-7.5
			c-0.15-1.62-0.2-3.6-1.79-5.1c-1.64-1.54-3.04-0.82-5.83-1.94c-5.58-2.25-8.12-8.45-7.77-8.73c0.33-0.27,2.92,5.09,8.74,6.79
			c3.61,1.05,4.89-0.34,8.74,0.97c0.56,0.19,5.74,1.96,6.65,4.87c13.38-6.22,19.94-16.18,20.55-15.54
			c0.68,0.72-8.01,12.71-22.34,22.3c-7.57,5.07-10.42,5.18-18.46,10.67c-6.84,4.67-13.05,10.22-18.46,16.49
			C1667.21,1035,1665.88,1028.89,1668.84,1022.84z"/>
	</g>
	<g id="DinoBoom1-3_2_" transform="translate(-842.945 -249)">
		<path id="Path_21_2_" class="st6" d="M889.98,890.36c-18.19-5.9-15.76-12.6-43.27-30.64c-38.56-25.28-73.04-31.58-71.6-38.49
			c0.5-2.39,8.73-4.74,25.18-9.43c10.57-3.01,14.35-3.49,16.53-7.07c4.64-7.64-4.63-18.53-1.57-21.21
			c4.57-4,27.29,18.53,33.05,14.14c4.66-3.56-5.33-22.04-1.57-24.35c3.88-2.39,14.33,17.44,27.54,16.5
			c12.71-0.91,17.48-20.32,25.96-18.85c7.44,1.29,5.01,16.4,14.16,22.78c18.57,12.94,63.54-24.85,69.24-18.07
			c3.62,4.31-12.53,21.98-9.44,25.14c4.44,4.53,40.33-29.47,51.93-21.21c5.95,4.24-0.12,15.58,6.29,21.21
			c12,10.52,49.24-15.12,51.93-11c2.2,3.36-22.42,20.76-19.67,25.92c3.05,5.72,35.67-11.12,39.34-5.5
			c4.98,7.64-40.98,60.47-103.07,74.63c-9.85,2.25-20.47,3.33-41.7,5.5C924.11,893.94,906.22,895.63,889.98,890.36z"/>
		<path id="Path_22_2_" class="st7" d="M896.27,906.07c-18.19-5.9-15.76-12.6-43.27-30.64c-38.56-25.28-73.04-31.58-71.6-38.49
			c0.5-2.39,8.73-4.74,25.18-9.43c10.57-3.01,14.35-3.49,16.53-7.07c4.64-7.64-4.63-18.53-1.57-21.21
			c4.57-4,27.29,18.53,33.05,14.14c4.66-3.56-5.33-22.04-1.57-24.35c3.88-2.39,14.33,17.44,27.54,16.5
			c12.71-0.91,17.48-20.32,25.96-18.85c7.44,1.29,5.01,16.4,14.16,22.78c18.57,12.94,63.54-24.85,69.24-18.07
			c3.63,4.31-12.53,21.98-9.44,25.14c4.44,4.53,40.33-29.47,51.93-21.21c5.95,4.24-0.12,15.58,6.29,21.21
			c12,10.52,49.24-15.12,51.93-11c2.2,3.36-22.42,20.76-19.67,25.92c3.05,5.72,35.67-11.12,39.34-5.5
			c4.98,7.64-40.98,60.47-103.07,74.63c-9.85,2.25-20.47,3.33-41.7,5.5C930.4,909.65,912.52,911.34,896.27,906.07z"/>
		<path id="Path_23_2_" class="st8" d="M970.23,885.65c-7.79,1.06-8.78,6.58-18.1,9.43c-2.89,0.87-5.89,1.27-8.91,1.17
			c3.76-12.22,6.13-18.84,10.48-23.17c3.55-3.53,11.38-9.16,28.33-8.64c-3.5-2.49-7.55-4.1-11.8-4.71
			c-6.3-0.75-12.68,0.63-18.1,3.93c-5.66,3.65-6.15,7.3-12.59,15.71c-0.88,1.14-1.62,2.05-2.31,2.84c-2.15-4.87-4.8-9.51-7.91-13.83
			c-4.45-6.18-7.85-10.76-14.16-13.35c-4.24-1.68-8.86-2.23-13.38-1.57c5.65,2.66,10.52,6.72,14.16,11.78
			c5.14,7.31,6.62,15.72,7.64,22.78h-2.15c-0.46-1.31-0.97-2.62-1.56-3.93c-6.21-13.8-17.01-21.31-22.04-24.35
			c3.74,5.57,6.66,11.66,8.65,18.07c1.04,3.33,1.8,6.75,2.26,10.21h-1.79c-0.41-0.54-0.83-1.07-1.25-1.57
			c-5.37-6.4-8.75-6.17-14.95-11.78c-5.71-5.17-12.34-13.98-15.74-29.85c-1.94,8.09-1.57,16.55,1.06,24.44
			c0.49,1.41,1.06,2.79,1.72,4.13c-6.66-6.16-9.78-9.52-15.37-13.64c-5.6-4.11-11.68-7.54-18.1-10.21
			c8.06,5.44,15.01,12.37,20.46,20.42c4.76,7.15,6.79,13.08,13.38,16.5c3.22,1.61,6.8,2.4,10.4,2.28
			c4.28,4.36,8.12,7.25,10.84,12.65c0.27,0.53,0.53,1.11,0.79,1.72v327.42h39.34V911.59c6.01-0.79,13.85-4.19,19.67-8.67
			c4.12-3.17,4.79-5.01,9.44-7.86c5.03-3.03,10.68-4.91,16.53-5.5C981.55,887.3,976.22,884.83,970.23,885.65z"/>
		<path id="Path_24_2_" class="st9" d="M943.69,927.56c-3.52-1.26-3.05-2.68-8.38-6.52c-7.46-5.38-14.14-6.72-13.86-8.19
			c0.1-0.51,1.69-1.01,4.87-2.01c2.05-0.64,2.78-0.74,3.2-1.5c0.9-1.62-0.9-3.94-0.3-4.51c0.88-0.85,5.28,3.94,6.4,3.01
			c0.9-0.76-1.03-4.69-0.3-5.18c0.75-0.51,2.77,3.71,5.33,3.51c2.46-0.19,3.38-4.32,5.03-4.01c1.44,0.27,0.97,3.49,2.74,4.85
			c3.59,2.75,12.3-5.29,13.4-3.84c0.7,0.92-2.42,4.68-1.83,5.35c0.86,0.96,7.81-6.27,10.05-4.51c1.15,0.9-0.02,3.32,1.22,4.51
			c2.32,2.24,9.53-3.22,10.05-2.34c0.43,0.72-4.34,4.42-3.81,5.52c0.59,1.22,6.9-2.37,7.61-1.17c0.96,1.62-7.93,12.86-19.95,15.88
			c-2.66,0.56-5.36,0.95-8.07,1.17C950.3,928.32,946.83,928.68,943.69,927.56z"/>
		<path id="Path_25_2_" class="st6" d="M866.05,986.97c-5.44-1.76-4.71-3.77-12.93-9.15c-11.52-7.55-21.83-9.44-21.39-11.5
			c0.15-0.72,2.6-1.41,7.52-2.82c3.16-0.9,4.29-1.04,4.94-2.11c1.39-2.28-1.38-5.54-0.47-6.34c1.37-1.2,8.15,5.54,9.87,4.22
			c1.39-1.06-1.59-6.59-0.47-7.28c1.16-0.71,4.28,5.21,8.23,4.93c3.8-0.27,5.22-6.07,7.76-5.63c2.22,0.39,1.5,4.9,4.23,6.81
			c5.55,3.87,18.98-7.42,20.69-5.4c1.08,1.29-3.74,6.57-2.82,7.51c1.33,1.35,12.05-8.8,15.52-6.34c1.78,1.27-0.04,4.66,1.88,6.34
			c3.58,3.14,14.71-4.52,15.52-3.29c0.66,1.01-6.7,6.2-5.88,7.75c0.91,1.71,10.66-3.32,11.76-1.64c1.49,2.28-12.24,18.07-30.8,22.3
			c-4.12,0.79-8.28,1.34-12.46,1.64C876.25,988.04,870.9,988.55,866.05,986.97z"/>
		
			<linearGradient id="Path_26_4_" gradientUnits="userSpaceOnUse" x1="817.4418" y1="1333.6022" x2="818.2896" y2="1332.9565" gradientTransform="matrix(48.6547 0 0 -40.0869 -38900.707 54432.5469)">
			<stop  offset="0" style="stop-color:#A06227"/>
			<stop  offset="0.318" style="stop-color:#9C6026"/>
			<stop  offset="0.608" style="stop-color:#915A25"/>
			<stop  offset="0.887" style="stop-color:#7E5124"/>
			<stop  offset="1" style="stop-color:#754C24"/>
		</linearGradient>
		<path id="Path_26_2_" class="st19" d="M909.65,1000.34c-1.72-3.51-4.41-5.32-7.08-7.07c-6.38-4.18-11.09-4.66-16.4-6.08
			c0.12-1.32,0.16-2.92,1.45-4.14c1.33-1.25,2.46-0.66,4.72-1.57c4.52-1.82,6.58-6.84,6.29-7.07c-0.28-0.23-2.37,4.12-7.08,5.5
			c-2.92,0.85-3.96-0.27-7.08,0.78c-0.46,0.16-4.65,1.59-5.39,3.95c-10.83-5.04-16.15-13.11-16.64-12.59
			c-0.55,0.58,6.49,10.29,18.1,18.07c6.13,4.11,8.44,4.2,14.95,8.64c5.54,3.79,10.57,8.27,14.95,13.35
			C911.6,1008.22,911.32,1004.04,909.65,1000.34z"/>
		
			<linearGradient id="Path_27_4_" gradientUnits="userSpaceOnUse" x1="849.4478" y1="1300.6595" x2="850.297" y2="1300.0137" gradientTransform="matrix(32.418 0 0 -26.711 -25125.5586 36587.6953)">
			<stop  offset="0" style="stop-color:#A06227"/>
			<stop  offset="0.318" style="stop-color:#9C6026"/>
			<stop  offset="0.608" style="stop-color:#915A25"/>
			<stop  offset="0.887" style="stop-color:#7E5124"/>
			<stop  offset="1" style="stop-color:#754C24"/>
		</linearGradient>
		<path id="Path_27_2_" class="st20" d="M935.79,935.92c1.09-1.99,2.72-3.63,4.72-4.71c4.25-2.78,7.39-3.11,10.93-4.05
			c0.05-1.01-0.3-2-0.97-2.76c-0.88-0.83-1.64-0.44-3.15-1.05c-3.01-1.21-4.38-4.56-4.19-4.71s1.58,2.75,4.72,3.66
			c1.95,0.57,2.64-0.18,4.72,0.52c0.3,0.1,3.1,1.06,3.59,2.63c7.22-3.36,10.76-8.73,11.09-8.39c0.37,0.39-4.32,6.86-12.06,12.04
			c-4.09,2.74-5.62,2.8-9.96,5.76c-3.69,2.52-7.04,5.51-9.96,8.9C934.49,941.18,934.68,938.39,935.79,935.92z"/>
		<path id="Path_28_2_" class="st6" d="M943.15,1063.17c-5.44-1.76-4.71-3.77-12.93-9.15c-11.52-7.55-21.83-9.44-21.39-11.5
			c0.15-0.72,2.6-1.42,7.52-2.82c3.16-0.9,4.29-1.04,4.94-2.11c1.39-2.28-1.39-5.54-0.47-6.34c1.37-1.2,8.15,5.54,9.87,4.22
			c1.39-1.06-1.59-6.58-0.47-7.28c1.16-0.71,4.28,5.21,8.23,4.93c3.8-0.27,5.22-6.07,7.76-5.63c2.22,0.39,1.5,4.9,4.23,6.81
			c5.55,3.87,18.98-7.42,20.69-5.4c1.08,1.29-3.74,6.57-2.82,7.51c1.33,1.35,12.05-8.8,15.52-6.34c1.78,1.27-0.04,4.66,1.88,6.34
			c3.58,3.14,14.71-4.52,15.52-3.29c0.66,1-6.7,6.2-5.88,7.75c0.91,1.71,10.66-3.32,11.75-1.64c1.49,2.28-12.24,18.07-30.8,22.3
			c-4.12,0.79-8.28,1.34-12.46,1.64C953.35,1064.24,948.01,1064.74,943.15,1063.17z"/>
		
			<linearGradient id="Path_29_4_" gradientUnits="userSpaceOnUse" x1="846.8848" y1="1314.1151" x2="847.733" y2="1313.4692" gradientTransform="matrix(60.0708 0 0 -49.4845 -48474.8125 67005.2891)">
			<stop  offset="0" style="stop-color:#A06227"/>
			<stop  offset="0.318" style="stop-color:#9C6026"/>
			<stop  offset="0.608" style="stop-color:#915A25"/>
			<stop  offset="0.887" style="stop-color:#7E5124"/>
			<stop  offset="1" style="stop-color:#754C24"/>
		</linearGradient>
		<path id="Path_29_2_" class="st21" d="M924.84,1080.84c2.12-4.34,5.44-6.57,8.74-8.73c7.88-5.16,13.69-5.76,20.25-7.5
			c-0.15-1.62-0.2-3.6-1.79-5.1c-1.64-1.54-3.04-0.82-5.83-1.94c-5.58-2.25-8.12-8.45-7.77-8.73c0.33-0.27,2.92,5.09,8.74,6.79
			c3.61,1.05,4.89-0.34,8.74,0.97c0.56,0.19,5.74,1.96,6.65,4.87c13.38-6.22,19.94-16.18,20.55-15.54
			c0.68,0.72-8.01,12.71-22.34,22.3c-7.57,5.07-10.42,5.18-18.46,10.67c-6.84,4.67-13.05,10.22-18.46,16.49
			C923.21,1093,921.88,1086.89,924.84,1080.84z"/>
	</g>
	<g id="BoomKlein1_3_" transform="translate(78.999 -223.606)">
		<path id="Path_30_1_" class="st7" d="M990.83,1071.27c3.31,6.52,16.63,1.77,19.4,6.99c4.75,8.96-22.56,45.56-57.11,45.18
			c-15.41-0.17-34.34-7.71-42.02-22.05c-3.69-6.89-1.69-9.56-4.85-19.36c-6.28-19.46-19.13-24.3-26.94-36.04
			c-19.81-29.78,3.05-88.56,23.17-90.9c9.42-1.1,13.46,10.72,23.17,9.15c17.45-2.84,14.97-42.82,30.17-46.8
			c18.19-4.76,55.68,43.59,54.95,86.6c-0.22,12.78-0.44,25.88-7.54,40.34C996.79,1057.48,987.83,1065.35,990.83,1071.27z"/>
		
			<linearGradient id="Path_31_3_" gradientUnits="userSpaceOnUse" x1="-88.1489" y1="1307.1335" x2="-87.2181" y2="1308.3306" gradientTransform="matrix(52.6328 0 0 -61.9154 5600.9067 81917.6328)">
			<stop  offset="0.147" style="stop-color:#38A179"/>
			<stop  offset="0.757" style="stop-color:#2C8864"/>
			<stop  offset="0.966" style="stop-color:#287F5C"/>
		</linearGradient>
		<path id="Path_31_1_" class="st22" d="M941.27,967.99c4.95-2.52,9.34-5.99,12.93-10.22c7.95-9.49,6.98-17.52,11.32-18.29
			c5.93-1.05,16.97,12.35,16.16,24.21c-0.25,3.68-1.47,6.09,0,9.14c2.5,5.2,9.9,3.9,11.85,7.53c1.52,2.83-0.3,8.58-12.93,20.98"/>
		<path id="Path_32_1_" class="st8" d="M978.98,1040.61l-32.33,24.08v-7.41c3.23-15.42,6.47-30.84,9.7-46.26l18.32-36.04
			l-24.78,34.43l-10.58,44.1l-29.29-15.05l-5.39-43.57l-3.23,46.8l35.02,23.13l0.03,0.04l2.67,16.96v104.02h8.08v-104.03l-0.2-0.32
			l9.36-14.53L978.98,1040.61z"/>
	</g>
	<g id="BoomKlein1_1_" transform="translate(78.999 -223.606)">
		<path id="Path_30_2_" class="st7" d="M239.83,1147.27c3.31,6.52,16.63,1.77,19.4,6.99c4.75,8.96-22.56,45.56-57.11,45.18
			c-15.41-0.17-34.34-7.71-42.02-22.05c-3.69-6.89-1.69-9.56-4.85-19.36c-6.28-19.46-19.13-24.3-26.94-36.04
			c-19.81-29.78,3.05-88.56,23.17-90.9c9.42-1.1,13.46,10.72,23.17,9.15c17.45-2.84,14.97-42.82,30.17-46.8
			c18.19-4.76,55.68,43.59,54.95,86.6c-0.22,12.78-0.44,25.88-7.54,40.34C245.79,1133.48,236.83,1141.35,239.83,1147.27z"/>
		
			<linearGradient id="Path_31_4_" gradientUnits="userSpaceOnUse" x1="-102.4176" y1="1305.9061" x2="-101.4868" y2="1307.1031" gradientTransform="matrix(52.6328 0 0 -61.9154 5600.9067 81917.6328)">
			<stop  offset="0.147" style="stop-color:#38A179"/>
			<stop  offset="0.757" style="stop-color:#2C8864"/>
			<stop  offset="0.966" style="stop-color:#287F5C"/>
		</linearGradient>
		<path id="Path_31_2_" class="st23" d="M190.27,1043.99c4.95-2.52,9.34-5.99,12.93-10.22c7.95-9.49,6.98-17.52,11.32-18.29
			c5.93-1.05,16.97,12.35,16.16,24.21c-0.25,3.68-1.47,6.09,0,9.14c2.5,5.2,9.9,3.9,11.85,7.53c1.52,2.83-0.3,8.58-12.93,20.98"/>
		<path id="Path_32_2_" class="st8" d="M227.98,1116.61l-32.33,24.08v-7.41c3.23-15.42,6.47-30.84,9.7-46.26l18.32-36.04
			l-24.78,34.43l-10.58,44.1l-29.29-15.05l-5.39-43.57l-3.23,46.8l35.02,23.13l0.03,0.04l2.67,16.96v104.02h8.08v-104.03l-0.2-0.32
			l9.36-14.53L227.98,1116.61z"/>
	</g>
	<g id="BoomKlein1_2_" transform="translate(275.853 -255.34)">
		<path id="Path_33_1_" class="st7" d="M1367.93,1212.27c3.28,6.52,16.5,1.77,19.25,6.99c4.71,8.96-22.38,45.56-56.67,45.18
			c-15.29-0.17-34.07-7.71-41.7-22.05c-3.66-6.89-1.67-9.56-4.81-19.36c-6.23-19.46-18.98-24.3-26.73-36.04
			c-19.66-29.78,3.02-88.56,22.99-90.9c9.34-1.1,13.36,10.72,22.99,9.15c17.32-2.84,14.86-42.82,29.94-46.8
			c18.04-4.76,55.25,43.6,54.53,86.6c-0.22,12.78-0.44,25.88-7.48,40.34C1373.84,1198.48,1364.95,1206.35,1367.93,1212.27z"/>
		
			<linearGradient id="Path_34_2_" gradientUnits="userSpaceOnUse" x1="-284.9391" y1="1338.8696" x2="-284.0121" y2="1340.0616" gradientTransform="matrix(52.6328 0 0 -61.9104 16335.8867 84016.7734)">
			<stop  offset="0.147" style="stop-color:#38A179"/>
			<stop  offset="0.757" style="stop-color:#2C8864"/>
			<stop  offset="0.966" style="stop-color:#287F5C"/>
		</linearGradient>
		<path id="Path_34_1_" class="st24" d="M1318.75,1108.99c4.91-2.52,9.27-5.99,12.83-10.22c7.89-9.49,6.92-17.52,11.23-18.29
			c5.89-1.05,16.84,12.35,16.04,24.2c-0.25,3.68-1.46,6.09,0,9.14c2.48,5.2,9.82,3.9,11.76,7.53c1.51,2.83-0.3,8.58-12.83,20.98"/>
		<path id="Path_35_1_" class="st8" d="M1356.17,1181.61l-32.08,24.08v-7.41c3.21-15.42,6.42-30.84,9.62-46.26l18.18-36.04
			l-24.59,34.43l-10.5,44.1l-29.06-15.05l-5.35-43.57l-3.21,46.8l34.75,23.13l0.03,0.04l2.65,16.96v104.02h8.02v-104.03l-0.2-0.32
			l9.28-14.53L1356.17,1181.61z"/>
	</g>
	<g id="TREX_1_" transform="translate(-74 -100.202)">
		<path id="Path_54_1_" class="st25" d="M1418.06,1035.43c5.87,2.46,8.45,14.04,4.79,18.6c-1.1,1.37-3.02,2.43-3.77,5.17
			c-0.43,1.59-0.18,2.7-1.03,3.44c-1.07,0.94-2.89,0.41-4.45,0c-7.17-1.91-11.49-3.01-14.72-1.38c-1.14,0.49-2.1,1.34-2.74,2.41
			c-1.13,2.11,0.02,3.93-1.37,5.51c-0.85,0.96-1.71,0.78-2.05,1.72c-0.52,1.39,0.94,2.9,0.68,3.1s-1.85-1.14-3.08-3.1
			c-0.93-1.48-1.8-2.87-1.37-4.13c0.66-1.93,3.86-2.1,3.76-2.76c-0.07-0.48-1.86-0.88-3.42-0.34c-1.52,0.58-2.67,1.86-3.08,3.44
			c-0.58,2.21,0.66,3.98,0.34,4.13c-0.37,0.18-2.24-1.97-2.74-4.82c-0.1-0.58-0.57-3.29,0.68-4.13c0.8-0.53,1.44,0.25,3.08,0
			c1.26-0.19,1.73-0.78,3.76-2.07c1.21-0.77,2.46-1.47,3.77-2.07c1.4-0.59,3.23-0.63,6.85-0.69c6.55-0.11,7.28-0.1,8.56-0.69
			c1.64-0.78,3.05-1.96,4.11-3.44c0.89-1.22,1.88-2.56,1.71-4.13c-0.2-1.91-1.88-2.21-3.42-4.48c-1.73-2.54-2.73-6.69-1.03-8.61
			C1413.21,1034.64,1416.05,1034.58,1418.06,1035.43z"/>
		<path id="Path_55_1_" class="st25" d="M1459.48,1054.37c1.93-0.37,3.79,2.32,8.61,9.13c4.91,6.94,8.75,12.32,10.9,15.32
			c0,0,4.35,8.11,3.08,13.78c-0.28,1.32-0.74,2.6-1.37,3.79c-0.96,1.63-1.75,1.97-3.08,4.13c-1.86,2.36-2.13,5.62-0.68,8.27
			c0.74,2.03,1.27,2.13,1.37,3.44c0.03,0.39,0.05,1.3-1.03,3.79c-0.69,1.55-1.49,3.05-2.4,4.48c-0.56,0.93-1.16,1.87-3.08,4.82
			c-2.52,3.86-2.62,3.95-3.08,4.82c-1.32,2.51-1.09,2.91-2.05,4.13c-1.16,1.44-2.7,2.52-4.45,3.1c-3.09,0.97-4.19-0.67-8.56,0
			c-1.53,0.23-1.1,0.39-4.11,1.03c-3.05,0.65-4.61,0.97-6.5,0.69c-1.65-0.25-1.46-0.62-3.76-1.03c-1.47-0.25-2.96-0.37-4.45-0.34
			c-1.37,0.03-2.75,0.15-4.11,0.34c-4.21,0.53-6.02,1.06-6.16,0.69s1.83-0.93,3.76-3.1c1.33-1.5,1.18-2.13,2.4-3.44
			c1.23-1.28,2.76-2.23,4.45-2.76c3.01-1.01,4.13,0.32,8.22,0.34c2.03,0.01,6.03,0.04,9.24-2.41c1.97-1.5,2.88-3.36,4.45-6.54
			c1.01-2.1,1.82-4.29,2.4-6.54c1.07-3.57,1.53-7.3,1.37-11.02c-0.29-4.63-1.68-8.03-3.77-13.09c-2.19-5.31-2.7-4.8-3.42-7.58
			c-0.43-1.65-1.05-4.88,1.03-14.81C1456.5,1059.11,1457.41,1054.77,1459.48,1054.37z"/>
		<g id="Group_2_1_">
			<path id="Path_56_1_" class="st26" d="M1398.55,992.2c-0.03-8.83-7.14-15.99-15.92-16.02h-42.45
				c-8.78,0.03-15.89,7.18-15.92,16.02v7.4h74.28V992.2z"/>
			<path id="Path_57_1_" class="st26" d="M1324.57,1005.3l0.06,0.51c1.1,8.76,9.04,14.99,17.75,13.92l42.12-5.25
				c8.71-1.11,14.89-9.09,13.84-17.86l-0.06-0.51L1324.57,1005.3z"/>
		</g>
		<path id="Path_58_1_" class="st26" d="M1618.37,1112.09c-0.44-7.07-2.91-12.08-5.85-17.9c-2.99-5.82-6.68-11.25-10.98-16.17
			c-8.07-9.41-17.42-17.62-27.77-24.4l-53.6-30.2c-0.01-0.07-0.02-0.14-0.03-0.21c-0.72-0.29-1.41-0.58-2.09-0.88l-12.2-6.24
			c-3.03-1.81-6.52-4.04-9.62-6.03c-5.28-3.38-4.98-3.31-5.71-3.62c-4.63-1.96-6.81-0.52-16.07-0.84
			c-4.49-0.16-7.45-0.28-11.26-1.38c-4.97-1.43-4.75-2.61-9.46-4.08c-4.87-1.46-10-1.86-15.03-1.16c-5.05,0.71-5.48,1.97-10,2.1
			c-3.37,0.11-6.73-0.47-9.88-1.68c-8.1-3.39-8.75-10.73-12.95-13.15c-0.04-0.02-0.08-0.04-0.12-0.07l0,0
			c-2.91-4.02-6.24-7.71-9.93-11.02c-5.65-5.06-9.75-8.74-15.4-9.99c-12.21-2.7-26.95,6.99-26.36,13.09
			c0.17,1.76,1.69,3.96,7.19,6.2v4.48c0.02,7.13,3.94,13.67,10.19,17.02c-1.5,1.43-3.06,2.96-4.67,4.57
			c1.57,1.11,3.89,2.74,6.71,4.69c4.79,3.32,7.19,4.97,9.06,6.14c4.21,2.84,8.74,5.17,13.48,6.97c2.22,0.79,4.49,1.44,6.79,1.93
			c3.01,12.36,11.75,22.51,23.48,27.26c4.81,1.92,5.76,1.12,10.19,2.73c6.78,2.46,8.53,5.79,16.07,11.87
			c6.93,5.59,13.27,10.7,21.54,12.38c6.18,1.26,10.18-0.07,18.55-1.84l0.13-0.03l8.79-1.68c5.48-0.94,11.88-1.85,19.15-2.53
			l18.88-0.29c13.15,1.66,26.04,4.99,38.36,9.92c7.78,3.14,13.03,6.05,17.82,10.99c2.86,2.95,8.24,8.65,9.62,17.55
			c0.71,5.12,0.13,10.33-1.69,15.16c-3.22,9.37-8.96,13.27-8.19,14.14c1.05,1.2,13.49-4.39,19.48-16.22
			C1617.65,1124.22,1618.83,1118.15,1618.37,1112.09z"/>
		<path id="Path_59_1_" class="st25" d="M1478.99,1039.21c-1.57,1.24-2.43,3.24-2.74,14.47c-0.2,7.37,0.15,7.16,0.34,19.29
			c0.1,6.63,0.02,8.04,1.03,10.33c1.3,2.97,3.03,4.23,9.24,9.3c6.55,5.34,9.82,8.01,12.67,10.68c3.64,3.36,6.96,7.05,9.93,11.02
			c4.86,6.56,5.34,9.4,5.48,10.68c0.26,3.2-0.33,6.41-1.71,9.3c-0.81,2.29-2.23,4.32-4.11,5.85c-2.74,2.03-4.51,1.1-7.87,2.41
			c-5.69,2.21-9.61,8.34-8.56,9.99c0.55,0.87,2.66,0.48,6.85-0.34c5.5-1.08,9.32-3.62,9.93-2.76c0.25,0.36-0.36,0.8-0.34,2.07
			c0.06,1.17,0.55,2.27,1.37,3.1c1.38,1.3,3.24,1.14,4.45,1.03c1.8-0.04,3.52-0.78,4.79-2.07c1.22-1.45,0.57-2.46,2.05-4.82
			c0.99-1.58,2.19-2.56,2.4-2.41c0.25,0.18-1.19,1.77-0.68,3.44c0.25,0.71,0.73,1.32,1.37,1.72c1.36,0.95,2.18,0.21,3.76,1.03
			c1.46,0.75,1.57,1.79,2.4,1.72c0.68-0.06,0.82-0.78,2.05-2.41c1.64-2.16,2.29-2.08,2.74-3.44c0.34-1.01,0.34-2.09,0-3.1
			c-0.34-0.91-0.71-0.86-1.03-1.72c-0.51-1.38,0.19-2.18,0-3.44c-0.23-1.52-1.53-2.29-2.4-3.1c-1.95-1.83-2.25-4.42-2.74-8.61
			c-0.4-5.17-0.29-10.36,0.34-15.5c0.18-1.05,0.06-2.12-0.34-3.1c-0.71-1.31-1.78-2.38-3.08-3.1c-1.44-0.91-1.81-0.69-2.4-1.38
			c-0.87-1.02-0.7-2.29-0.68-4.13c0.02-3.44,0.04-5.16-0.68-6.54c-1.03-1.98-3.26-3.22-6.16-4.82c-0.93-0.37-1.75-0.96-2.4-1.72
			c-1.06-1.47-0.89-3.3-0.68-4.82c0.61-4.52,1.01-7.48,3.08-11.71c1.83-3.75,2.8-4.06,3.42-6.89c0.45-2.04,0.45-4.16,0-6.2
			c-0.75-3.13-2.64-5.51-5.82-8.27c-7.3-6.24-16.2-10.3-25.67-11.71C1481.45,1037.49,1479.64,1038.7,1478.99,1039.21z"/>
		<path id="Path_60_1_" class="st25" d="M1432.1,1044.04c-2.04,2.25-1.92,7.38,0.34,9.99c2.07,2.39,5.53,2.2,7.19,5.51
			c0.37,0.75,0.61,1.57,0.68,2.41c-0.26,0.44-0.49,0.9-0.68,1.38c-1.44,3.42-0.36,5.19-1.03,8.61c-0.71,3.65-2.33,3.68-2.05,6.2
			c0.22,2.04,1.31,2.29,1.71,4.82c0.36,2.31-0.45,2.74-0.34,5.17c0.04,0.93,0.23,5.35,3.08,6.89c2.76,1.49,6.56-0.48,6.5-1.03
			c-0.04-0.42-2.27,0.11-4.11-1.38c-1.54-1.24-2.19-3.38-1.71-3.79c0.37-0.32,1.28,0.57,4.11,1.72c2.5,1.02,3.09,0.86,3.42,0.69
			c1.1-0.57,1.6-2.4,1.03-3.1c-0.38-0.47-1.08-0.23-2.4-0.34c-1.2-0.11-2.36-0.47-3.42-1.03c0.63-1.34,0.5-2.91-0.34-4.13
			c-0.49-0.65-1.06-1.23-1.71-1.72c-0.68-0.71-1.26-1.53-1.71-2.41c-1.13-2.17,0.42-5.34,1.71-7.92c2.71-5.39,4.61-5.55,4.79-8.61
			c0.15-2.38-0.93-3.44,0-5.17c0.6-1.11,1.32-1.18,3.42-3.1c1.78-1.63,2.67-2.45,2.74-3.1
			C1453.69,1046.98,1436.7,1038.95,1432.1,1044.04z"/>
	</g>
	<g id="PLANTENETER_1_" transform="translate(28.442 -273.216)">
		<path id="Path_61_1_" class="st27" d="M567.31,1204.73c1.78-2.38,3.29-4.96,4.48-7.68c3.81-3.73,9.41-10.48,6.7-15.93
			c-0.03-0.07-0.05-0.1-0.11-0.21c-1.95-3.84-3.26-7.97-3.89-12.22c-1.08-6.85-12.66-23.14-22.86-20.89
			c-8.39,1.85-12.75,15.56-13.65,23.02c-0.34,3.08-0.32,6.19,0.05,9.27c0.58,4.98,2.07,9.82,4.39,14.27
			c0.34,3.9,0.17,7.82-0.51,11.67c-0.79,4.43-2.49,5.83-2.64,9.35c-0.22,4.89,2.28,8.51,3.4,10.48c2.69,4.71,4.94,12.94,2.49,28.35
			c-0.86,1.34-1.85,2.59-2.98,3.72c-3.17,3.21-6.41,4.65-5.96,5.59c0.13,0.28,0.61,0.58,2.25,0.61l17.23-0.09
			c1.87-1.87,3.15-4.24,3.71-6.82c0.39-2.16,0.21-4.38-0.53-6.44c1.84-1.87,3.27-4.1,4.21-6.56c0.3-0.79,0.51-1.62,0.62-2.46
			c0.27-2.47,0.3-4.96,0.08-7.44c-0.69-7.2-3.39-14.06-7.79-19.8C560.42,1212.12,564.28,1208.77,567.31,1204.73z"/>
		<path id="Path_62_1_" class="st27" d="M516.28,1206.21c0.17-0.72,0.26-1.46,0.27-2.21c3.62-8.49,5.74-17.55,6.26-26.76
			c4.09-4.85,10.09-13.61,7.17-20.7c-0.31-0.76-1.02-2.21-7.28-7.19c-10.69-8.51-16.03-12.76-22.59-12.74
			c-4.47,0.02-11.01,1.7-13.64,6.5c-0.69,1.24-1.28,3.01,0.06,12.05c1.46,9.84,2.15,15.3,4.73,18.55
			c-1.36,10.17-0.69,20.5,1.96,30.41c0.01,2.13,0.74,4.2,2.06,5.87c-2.56,10.43-2.62,21.32-0.18,31.78
			c-0.28,3.25-0.56,6.49-0.83,9.74c-0.9,1.71-1.97,3.33-3.19,4.84c-3.41,4.17-6.88,6.03-6.4,7.26c0.14,0.36,0.66,0.76,2.42,0.79
			l18.5-0.1c2.07-2.56,3.44-5.61,3.98-8.86c0.42-2.8,0.22-5.66-0.57-8.37c2.03-2.53,3.56-5.42,4.51-8.52
			c1.48-4.9,0.14-6.15,0.74-12.86c0.84-9.34,3.91-12.1,2.32-18.49C516.48,1206.87,516.38,1206.54,516.28,1206.21z"/>
		<path id="Path_63_1_" class="st28" d="M748.07,1169.88c-14.12-2.8-23.38-6.62-41.91-14.24c-22.99-9.46-39.41-16.22-58.88-28.61
			c-0.7-0.45-1.82-1.16-3.32-2.09c0.03-0.1,0.06-0.2,0.09-0.31c-1.82-0.99-3.6-1.94-5.35-2.84c-7.91-4.57-16.09-8.67-24.49-12.27
			c-12.84-5.49-16.47-5.56-18.53-5.53c-0.18,0-0.35,0.02-0.53,0.03c-4.04-1.17-8.17-1.96-12.36-2.37
			c-10.24-0.96-13.63,0.75-21.72,0.92c-27.44,0.56-32.11-18.3-56.4-16.58c-7.22,0.51-8.8,2.32-25.32,7.22
			c-4.76,0.65-12.56,0.74-19.72-3.78c-5.7-3.6-8.61-8.62-10.52-11.99c-3.28-5.93-5.24-12.49-5.73-19.25
			c-1.18-14.03-1.82-64.64-0.69-133.59c0-0.27,0.12-0.53,0.09-0.8c-0.11-1.36-2.38-16.94-2.6-18.21l-3.27-19.27
			c-2.94-8.45-5.38-13.54-7.38-16.39l-0.03-5.25c-0.03-5.32-4.37-9.62-9.7-9.59c-5.33,0.03-9.63,4.37-9.6,9.69v0.8l-12.87,0.07
			c-1.23-0.68-2.64-0.95-4.03-0.78c-1.99,0.34-3.74,1.52-4.81,3.24c-1.32,2.18-1.6,4.83-0.77,7.23l0.01,2.41
			c1.24,2.16,2.89,4.07,4.86,5.6c4.23,3.12,9.48,4.55,14.72,4c1.04,1.08,2.26,2.26,3.69,3.54l5.1,26.07
			c0.07,0.41,0.21,4.51,0.15,4.93c-0.08,0.5-0.12,1-0.12,1.5l0.68,130.12c-0.48,5.88-0.45,11.79,0.09,17.67
			c1.04,11.18,3.9,22.11,8.45,32.37c0.12,0.68,0.31,1.34,0.57,1.97c0.26,0.62,0.57,1.2,0.95,1.76c0.33,0.68,0.74,1.31,1.22,1.89
			l27.84,33.33c1.03,17.7,13.99,31.27,19.43,35.21c0.99,0.72,2.04,1.39,2.04,1.39c5.5,3.46,11.68,5.69,18.11,6.54
			c79.03,12.34,114.58-5.34,124.68-11.98c1.86,0.12,3.73,0.14,5.59,0.06c6.75-0.34,13.47-1.18,20.1-2.51
			c9.12-2.02,11.35-3.77,16.88-4.1c10.02-0.6,17.25,4.29,22.56,7.11c17.46,9.29,37.39,7.67,77.26,4.42
			c12.47-1.02,25.78-2.83,25.72-4.15C788.27,1172.96,770.47,1174.32,748.07,1169.88z"/>
		<path id="Path_64_1_" class="st26" d="M595.38,1200.38c2.12-2.51,3.94-5.28,5.39-8.23c4.59-4,11.32-11.23,8.06-17.07
			c-0.04-0.07-0.06-0.11-0.13-0.22c-2.32-4.05-3.9-8.48-4.67-13.08c-1.29-7.34-15.21-24.76-27.47-22.35
			c-10.09,1.99-15.34,16.67-16.43,24.66c-0.41,3.3-0.39,6.63,0.05,9.93c0.72,5.39,2.51,10.59,5.27,15.28
			c0.41,4.17,0.2,8.38-0.62,12.49c-0.96,4.75-2.99,6.25-3.18,10.02c-0.26,5.24,2.73,9.11,4.08,11.22
			c3.23,5.04,5.94,13.86,2.97,30.36c-1.05,1.46-2.25,2.79-3.58,3.99c-3.82,3.44-7.71,4.98-7.18,5.99c0.16,0.3,0.73,0.62,2.7,0.65
			l20.72-0.11c2.2-1.92,3.75-4.47,4.47-7.3c0.48-2.31,0.26-4.71-0.63-6.9c2.17-1.95,3.9-4.35,5.06-7.02
			c0.36-0.84,0.61-1.72,0.74-2.63c0.33-2.64,0.36-5.31,0.1-7.96c-0.9-7.85-4.16-15.24-9.36-21.2
			C586.98,1208.38,591.62,1204.8,595.38,1200.38z"/>
		<path id="Path_65_1_" class="st26" d="M492.92,1200.49c0.17-0.8,0.26-1.61,0.27-2.43c3.63-9.42,5.74-19.36,6.25-29.45
			c4.09-5.33,10.08-14.97,7.16-22.78c-0.31-0.84-1.02-2.43-7.28-7.92c-10.69-9.37-16.03-14.05-22.6-14.03
			c-4.47,0.02-11,1.86-13.64,7.14c-0.68,1.37-1.28,3.32,0.07,13.26c1.47,10.83,2.16,16.84,4.74,20.42
			c-1.35,11.19-0.69,22.52,1.97,33.47c0,2.32,0.73,4.57,2.07,6.46c-2.56,11.51-2.61,23.44-0.16,34.97
			c-0.28,3.57-0.55,7.14-0.83,10.72c-0.89,1.87-1.96,3.65-3.19,5.32c-3.4,4.59-6.88,6.64-6.4,7.99c0.14,0.39,0.66,0.83,2.42,0.87
			l18.5-0.1c2.1-2.88,3.46-6.22,3.97-9.74c0.42-3.08,0.22-6.21-0.58-9.22c2.05-2.83,3.58-6,4.51-9.37c1.47-5.4,0.13-6.77,0.73-14.15
			c0.83-10.28,3.9-13.32,2.3-20.35C493.12,1201.22,493.02,1200.85,492.92,1200.49z"/>
	</g>
	<g id="DUBBLEWOLK_2_" transform="translate(-51 -55)">
		<path id="Path_66_3_" class="st29" d="M387.41,365.41c15.58-9.36,38.51-24.33,63.46-12.62c7.71,3.62,14.49,9.27,20.42,16.05
			c1.98-1.15,3.93-2.3,5.81-3.43c15.58-9.36,38.51-24.33,63.46-12.62c2.07,0.97,3.44,3.01,6.01,3.33
			c47.16,5.94,66.19,70.23-9.95,72.37H229.14C302.01,410.82,352.91,386.13,387.41,365.41z"/>
		<path id="Path_67_3_" class="st30" d="M526.63,325.41c15.58-9.36,38.51-24.33,63.46-12.62c7.71,3.62,14.49,9.27,20.42,16.05
			c1.98-1.15,3.93-2.3,5.81-3.43c15.58-9.36,38.51-24.33,63.46-12.62c2.07,0.97,3.44,3.01,6.01,3.33
			c47.16,5.94,66.19,70.23-9.95,72.37H368.36C441.23,370.82,492.14,346.13,526.63,325.41z"/>
	</g>
	<path id="GROTEWOLK_2_" class="st29" d="M1723.2,53.91c15.46-9.36,38.22-24.33,62.97-12.62c7.65,3.62,14.38,9.27,20.26,16.05
		c1.97-1.15,3.9-2.3,5.76-3.43c15.46-9.36,38.21-24.33,62.97-12.62c2.05,0.97,3.41,3.01,5.96,3.33c46.8,5.94,65.68,70.23-9.87,72.37
		h-305.1C1638.45,99.32,1688.97,74.63,1723.2,53.91z"/>
	<path id="KLEINEWOLK_1_" class="st29" d="M830.36,227.57h187.65c59.12,0.89,73.87-33.45,72.71-39.39
		C1088.6,177.33,1001.82,190.46,830.36,227.57z"/>
</g>
<g id="Layer_2">
</g>
<g id="intro">
</g>
</svg>
