<?xml version="1.0" encoding="utf-8"?>
<!-- Generator: Adobe Illustrator 23.0.4, SVG Export Plug-In . SVG Version: 6.00 Build 0)  -->
<svg version="1.1" xmlns="http://www.w3.org/2000/svg" xmlns:xlink="http://www.w3.org/1999/xlink" x="0px" y="0px"
	 viewBox="0 0 1924 1161.18" style="enable-background:new 0 0 1924 1161.18;" xml:space="preserve">
<style type="text/css">
	.st0{fill:url(#Ozonlaag_1_);}
	.st1{fill:#FABB56;}
	.st2{fill:#DDBE9B;}
	.st3{fill:#0071BC;}
	.st4{fill:#489374;}
	.st5{fill:#D3424D;}
	.st6{fill:#AF2C3C;}
	.st7{fill:#287F5C;}
	.st8{fill:#38A179;}
	.st9{fill:#754C24;}
	.st10{fill:#2C966A;}
	.st11{fill:url(#Path_8_1_);}
	.st12{fill:url(#Path_9_1_);}
	.st13{fill:url(#Path_11_1_);}
	.st14{fill:url(#Path_17_1_);}
	.st15{fill:url(#Path_18_1_);}
	.st16{fill:url(#Path_20_1_);}
	.st17{fill:url(#Path_26_1_);}
	.st18{fill:url(#Path_27_1_);}
	.st19{fill:url(#Path_29_1_);}
	.st20{fill:url(#Path_31_1_);}
	.st21{fill:url(#Path_34_1_);}
	.st22{fill:#68A8C1;}
	.st23{fill:#71B5D8;}
	.st24{fill:#62A3BC;}
	.st25{fill:#78BFEA;}
	.st26{fill:#B3D9E5;}
	.st27{opacity:0.5;fill:#B3D9E5;enable-background:new    ;}
	.st28{fill:#3B5093;}
	.st29{fill:#485CAF;}
	.st30{fill:url(#Path_2_2_);}
	.st31{fill:#393D75;}
	.st32{fill:#585D89;}
	.st33{fill:#F23B68;}
	.st34{fill:#D32F5E;}
	.st35{fill:none;stroke:#585D89;stroke-miterlimit:10;}
	.st36{fill:#29C6B5;}
	.st37{fill:url(#Path_106_1_);}
	.st38{fill:#B72C5A;}
	.st39{fill:#445FB5;}
	.st40{opacity:0.7;fill:#393D75;enable-background:new    ;}
	.st41{opacity:0.7;fill:url(#Rectangle_47_1_);enable-background:new    ;}
	.st42{opacity:0.7;fill:url(#Rectangle_48_1_);enable-background:new    ;}
	.st43{opacity:0.7;fill:url(#Rectangle_49_1_);enable-background:new    ;}
	.st44{opacity:0.4;fill:#FDB65B;enable-background:new    ;}
	.st45{fill:#A52556;}
	.st46{fill:#5F3D75;}
	.st47{opacity:0.2;fill:#38A179;enable-background:new    ;}
	.st48{fill:url(#Rectangle_88_1_);}
	.st49{opacity:0.7;fill:url(#Rectangle_136_1_);enable-background:new    ;}
	.st50{opacity:0.7;fill:url(#Rectangle_137_1_);enable-background:new    ;}
	.st51{fill:#E6E6E6;}
	.st52{fill:#FFFFFF;}
	.st53{fill:#E2E2E2;}
	.st54{fill:none;}
	.st55{fill:#42477A;}
	.st56{fill:#394072;}
	.st57{fill:#888FB5;}
	.st58{fill:#2D3159;}
	.st59{fill:#E79DC0;}
	.st60{fill:#B72757;}
	.st61{fill:#337C5B;}
	.st62{fill:url(#Path_214_1_);}
	.st63{fill:url(#Path_216_1_);}
	.st64{fill:url(#Path_219_1_);}
	.st65{fill:url(#SVGID_1_);}
	.st66{fill:url(#SVGID_2_);}
	.st67{fill:url(#SVGID_3_);}
	.st68{fill:url(#SVGID_4_);}
	.st69{fill:url(#Path_2_3_);}
	.st70{fill:#485EB0;}
	.st71{fill:url(#Path_77_1_);}
	.st72{fill:none;stroke:#485EB0;stroke-width:5;stroke-miterlimit:10;}
	.st73{fill:#CCCCCC;}
	.st74{opacity:0.54;fill:#CCCCCC;enable-background:new    ;}
	
		.st75{opacity:0.35;fill:none;stroke:#808080;stroke-width:0.5;stroke-linecap:round;stroke-miterlimit:10;enable-background:new    ;}
	.st76{fill:url(#Path_92_1_);}
	.st77{fill:url(#Path_93_1_);}
	.st78{fill:url(#Path_94_1_);}
	.st79{fill:url(#Path_95_1_);}
	.st80{fill:url(#Waterdunner_1_);}
	.st81{fill:url(#Waterdikker_1_);}
</style>
<g id="Layer_1">
	<linearGradient id="SVGID_1_" gradientUnits="userSpaceOnUse" x1="962" y1="-457.8483" x2="962" y2="1413.6173">
		<stop  offset="0" style="stop-color:#FFFFFF;stop-opacity:0.1"/>
		<stop  offset="0.0831" style="stop-color:#D9EAF5;stop-opacity:0.171"/>
		<stop  offset="0.2374" style="stop-color:#98C6E4;stop-opacity:0.3027"/>
		<stop  offset="0.3845" style="stop-color:#62A7D6;stop-opacity:0.4283"/>
		<stop  offset="0.5202" style="stop-color:#3790CB;stop-opacity:0.5442"/>
		<stop  offset="0.6422" style="stop-color:#197FC3;stop-opacity:0.6484"/>
		<stop  offset="0.7461" style="stop-color:#0775BE;stop-opacity:0.7371"/>
		<stop  offset="0.8197" style="stop-color:#0071BC;stop-opacity:0.8"/>
	</linearGradient>
	<path class="st65" d="M1747.81,8.18c-86.82,16.63-93.38,44.25-160.81,57c-119.13,22.52-146.76-54.6-302.65-57
		c-98.12-1.51-96.29,28.9-207.35,24c-99.67-4.4-107.71-29.18-193.65-24c-89.46,5.39-103.89,33.64-184.35,27
		c-67.39-5.56-68.83-26.33-131-27c-73.72-0.79-86.22,28.26-159,30c-78.01,1.87-77.5-31.17-144.34-30
		c-108.48,1.9-159.44,89.81-217.66,64c-15.62-6.92-34.23-23.13-47-64v154v850c0,51.33,0,102.67,0,154
		c42.44,7.69,104.58,13.72,176.19,0c86.82-16.63,93.38-44.25,160.81-57c119.13-22.52,146.76,54.6,302.65,57
		c98.12,1.51,96.29-28.9,207.35-24c99.67,4.4,107.71,29.18,193.65,24c89.46-5.39,103.89-33.64,184.35-27
		c67.39,5.56,68.83,26.33,131,27c73.72,0.79,86.22-28.26,159-30c78.01-1.87,77.5,31.17,144.34,30c108.48-1.9,159.44-89.81,217.66-64
		c15.62,6.92,34.23,23.13,47,64v-154c0-283.33,0-566.67,0-850c0-51.33,0-102.67,0-154C1881.56,0.49,1819.42-5.54,1747.81,8.18z"/>
</g>
<g id="Layer_2">
</g>
</svg>
