<?xml version="1.0" encoding="utf-8"?>
<!-- Generator: Adobe Illustrator 23.0.4, SVG Export Plug-In . SVG Version: 6.00 Build 0)  -->
<svg version="1.1" xmlns="http://www.w3.org/2000/svg" xmlns:xlink="http://www.w3.org/1999/xlink" x="0px" y="0px"
	 viewBox="0 0 1924 1161.18" style="enable-background:new 0 0 1924 1161.18;" xml:space="preserve">
<style type="text/css">
	.st0{fill:url(#Ozonlaag_1_);}
	.st1{fill:#FABB56;}
	.st2{fill:#DDBE9B;}
	.st3{fill:#0071BC;}
	.st4{fill:#489374;}
	.st5{fill:#D3424D;}
	.st6{fill:#AF2C3C;}
	.st7{fill:#287F5C;}
	.st8{fill:#38A179;}
	.st9{fill:#754C24;}
	.st10{fill:#2C966A;}
	.st11{fill:url(#Path_8_1_);}
	.st12{fill:url(#Path_9_1_);}
	.st13{fill:url(#Path_11_1_);}
	.st14{fill:url(#Path_17_1_);}
	.st15{fill:url(#Path_18_1_);}
	.st16{fill:url(#Path_20_1_);}
	.st17{fill:url(#Path_26_1_);}
	.st18{fill:url(#Path_27_1_);}
	.st19{fill:url(#Path_29_1_);}
	.st20{fill:url(#Path_31_1_);}
	.st21{fill:url(#Path_34_1_);}
	.st22{fill:#68A8C1;}
	.st23{fill:#71B5D8;}
	.st24{fill:#62A3BC;}
	.st25{fill:#78BFEA;}
	.st26{fill:#B3D9E5;}
	.st27{opacity:0.5;fill:#B3D9E5;enable-background:new    ;}
	.st28{fill:#3B5093;}
	.st29{fill:#485CAF;}
	.st30{fill:url(#Path_2_2_);}
	.st31{fill:#393D75;}
	.st32{fill:#585D89;}
	.st33{fill:#F23B68;}
	.st34{fill:#D32F5E;}
	.st35{fill:none;stroke:#585D89;stroke-miterlimit:10;}
	.st36{fill:#29C6B5;}
	.st37{fill:url(#Path_106_1_);}
	.st38{fill:#B72C5A;}
	.st39{fill:#445FB5;}
	.st40{opacity:0.7;fill:#393D75;enable-background:new    ;}
	.st41{opacity:0.7;fill:url(#Rectangle_47_1_);enable-background:new    ;}
	.st42{opacity:0.7;fill:url(#Rectangle_48_1_);enable-background:new    ;}
	.st43{opacity:0.7;fill:url(#Rectangle_49_1_);enable-background:new    ;}
	.st44{opacity:0.4;fill:#FDB65B;enable-background:new    ;}
	.st45{fill:#A52556;}
	.st46{fill:#5F3D75;}
	.st47{opacity:0.2;fill:#38A179;enable-background:new    ;}
	.st48{fill:url(#Rectangle_88_1_);}
	.st49{opacity:0.7;fill:url(#Rectangle_136_1_);enable-background:new    ;}
	.st50{opacity:0.7;fill:url(#Rectangle_137_1_);enable-background:new    ;}
	.st51{fill:#E6E6E6;}
	.st52{fill:#FFFFFF;}
	.st53{fill:#E2E2E2;}
	.st54{fill:none;}
	.st55{fill:#42477A;}
	.st56{fill:#394072;}
	.st57{fill:#888FB5;}
	.st58{fill:#2D3159;}
	.st59{fill:#E79DC0;}
	.st60{fill:#B72757;}
	.st61{fill:#337C5B;}
	.st62{fill:url(#Path_214_1_);}
	.st63{fill:url(#Path_216_1_);}
	.st64{fill:url(#Path_219_1_);}
	.st65{fill:url(#SVGID_1_);}
	.st66{fill:url(#SVGID_2_);}
	.st67{fill:url(#SVGID_3_);}
	.st68{fill:url(#SVGID_4_);}
	.st69{fill:url(#Path_2_3_);}
	.st70{fill:#485EB0;}
	.st71{fill:url(#Path_77_1_);}
	.st72{fill:none;stroke:#485EB0;stroke-width:5;stroke-miterlimit:10;}
	.st73{fill:#CCCCCC;}
	.st74{opacity:0.54;fill:#CCCCCC;enable-background:new    ;}
	
		.st75{opacity:0.35;fill:none;stroke:#808080;stroke-width:0.5;stroke-linecap:round;stroke-miterlimit:10;enable-background:new    ;}
	.st76{fill:url(#Path_92_1_);}
	.st77{fill:url(#Path_93_1_);}
	.st78{fill:url(#Path_94_1_);}
	.st79{fill:url(#Path_95_1_);}
	.st80{fill:url(#Waterdunner_1_);}
	.st81{fill:url(#Waterdikker_1_);}
</style>
<g id="Layer_1">
	<g>
		<circle class="st51" cx="1319.76" cy="674.31" r="8.9"/>
		<path class="st51" d="M1327.28,694.57l-17.26-5.21c-1.36-0.41-2.13-1.86-1.72-3.22l0,0c0.41-1.36,1.86-2.13,3.22-1.72l17.26,5.21
			c1.36,0.41,2.13,1.86,1.72,3.22l0,0C1330.08,694.2,1328.64,694.98,1327.28,694.57z"/>
		<path class="st51" d="M1273.51,708.74L1273.51,708.74c-0.66-0.99-0.38-2.34,0.61-3l20.43-13.52c0.99-0.66,2.34-0.38,3,0.61l0,0
			c0.66,0.99,0.38,2.34-0.61,3l-20.43,13.52C1275.51,710.01,1274.16,709.73,1273.51,708.74z"/>
		<path class="st51" d="M1266.75,688.86L1266.75,688.86c0.01-1.19,0.99-2.16,2.18-2.15l24.49,0.21c1.19,0.01,2.16,0.99,2.15,2.18
			l0,0c-0.01,1.19-0.99,2.16-2.19,2.15l-24.49-0.21C1267.71,691.04,1266.74,690.06,1266.75,688.86z"/>
		<path class="st51" d="M1312.35,679.64L1312.35,679.64c1.65,2.5,0.97,5.87-1.53,7.52l-11.64,7.7c-2.5,1.65-5.87,0.97-7.52-1.53v0
			c-1.65-2.5-0.97-5.87,1.53-7.52l11.64-7.7C1307.33,676.45,1310.7,677.14,1312.35,679.64z"/>
		<path class="st51" d="M1303.24,677.84l2.57-16.22c0.22-1.4,1.55-2.37,2.95-2.15l0,0c1.4,0.22,2.37,1.55,2.15,2.95l-2.57,16.22
			c-0.22,1.4-1.55,2.37-2.95,2.15l0,0C1303.98,680.57,1303.01,679.24,1303.24,677.84z"/>
	</g>
	<g>
		<circle class="st51" cx="1096.59" cy="673.31" r="8.9"/>
		<path class="st51" d="M1089.08,693.57l17.26-5.21c1.36-0.41,2.13-1.86,1.72-3.22l0,0c-0.41-1.36-1.86-2.13-3.22-1.72l-17.26,5.21
			c-1.36,0.41-2.13,1.86-1.72,3.22l0,0C1086.27,693.2,1087.72,693.98,1089.08,693.57z"/>
		<path class="st51" d="M1142.85,707.74L1142.85,707.74c0.66-0.99,0.38-2.34-0.61-3l-20.43-13.52c-0.99-0.66-2.34-0.38-3,0.61l0,0
			c-0.66,0.99-0.38,2.34,0.61,3l20.43,13.52C1140.84,709.01,1142.19,708.73,1142.85,707.74z"/>
		<path class="st51" d="M1149.6,687.86L1149.6,687.86c-0.01-1.19-0.99-2.16-2.18-2.15l-24.49,0.21c-1.19,0.01-2.16,0.99-2.15,2.18
			l0,0c0.01,1.19,0.99,2.16,2.18,2.15l24.49-0.21C1148.65,690.04,1149.61,689.06,1149.6,687.86z"/>
		<path class="st51" d="M1104.01,678.64L1104.01,678.64c-1.65,2.5-0.97,5.87,1.53,7.52l11.64,7.7c2.5,1.65,5.87,0.97,7.52-1.53v0
			c1.65-2.5,0.97-5.87-1.53-7.52l-11.64-7.7C1109.03,675.45,1105.66,676.14,1104.01,678.64z"/>
		<path class="st51" d="M1113.12,676.84l-2.57-16.22c-0.22-1.4-1.55-2.37-2.95-2.15l0,0c-1.4,0.22-2.37,1.55-2.15,2.95l2.57,16.22
			c0.22,1.4,1.55,2.37,2.95,2.15l0,0C1112.38,679.57,1113.34,678.24,1113.12,676.84z"/>
	</g>
	<g>
		<circle class="st51" cx="259.46" cy="912.75" r="8.9"/>
		<path class="st51" d="M279.12,903.78l-3.93,17.6c-0.31,1.38-1.7,2.26-3.08,1.96l0,0c-1.38-0.31-2.26-1.7-1.96-3.08l3.93-17.6
			c0.31-1.39,1.7-2.27,3.08-1.96l0,0C278.54,901.01,279.42,902.39,279.12,903.78z"/>
		<path class="st51" d="M297.18,956.37L297.18,956.37c-0.94,0.73-2.31,0.55-3.04-0.39l-14.97-19.38c-0.73-0.94-0.55-2.31,0.39-3.04
			l0,0c0.94-0.73,2.31-0.55,3.04,0.39l14.97,19.38C298.3,954.27,298.13,955.64,297.18,956.37z"/>
		<path class="st51" d="M277.86,964.56L277.86,964.56c-1.19,0.08-2.22-0.83-2.3-2.02l-1.58-24.44c-0.08-1.19,0.83-2.22,2.02-2.3l0,0
			c1.19-0.08,2.22,0.83,2.3,2.02l1.58,24.44C279.96,963.44,279.05,964.48,277.86,964.56z"/>
		<path class="st51" d="M265.32,919.76L265.32,919.76c2.37-1.83,5.78-1.4,7.61,0.98l8.53,11.05c1.83,2.37,1.4,5.78-0.98,7.61l0,0
			c-2.37,1.83-5.78,1.4-7.61-0.98l-8.53-11.05C262.51,925,262.95,921.59,265.32,919.76z"/>
		<path class="st51" d="M264.19,928.98l-16.37-1.37c-1.41-0.12-2.47-1.37-2.36-2.79l0,0c0.12-1.41,1.37-2.47,2.79-2.36l16.37,1.37
			c1.41,0.12,2.47,1.37,2.36,2.79l0,0C266.86,928.04,265.61,929.1,264.19,928.98z"/>
	</g>
	<g>
		<circle class="st51" cx="166.46" cy="475.75" r="8.9"/>
		<path class="st51" d="M186.12,466.78l-3.93,17.6c-0.31,1.38-1.7,2.26-3.08,1.96h0c-1.38-0.31-2.26-1.7-1.96-3.08l3.93-17.6
			c0.31-1.38,1.7-2.26,3.08-1.96l0,0C185.54,464.01,186.42,465.39,186.12,466.78z"/>
		<path class="st51" d="M204.18,519.37L204.18,519.37c-0.94,0.73-2.31,0.55-3.04-0.39l-14.97-19.38c-0.73-0.94-0.55-2.31,0.39-3.04
			l0,0c0.94-0.73,2.31-0.55,3.04,0.39l14.97,19.38C205.3,517.27,205.13,518.64,204.18,519.37z"/>
		<path class="st51" d="M184.86,527.56L184.86,527.56c-1.19,0.08-2.22-0.83-2.3-2.02l-1.58-24.44c-0.08-1.19,0.83-2.22,2.02-2.3h0
			c1.19-0.08,2.22,0.83,2.3,2.02l1.58,24.44C186.96,526.44,186.05,527.48,184.86,527.56z"/>
		<path class="st51" d="M172.32,482.76L172.32,482.76c2.37-1.83,5.78-1.4,7.61,0.98l8.53,11.05c1.83,2.37,1.4,5.78-0.98,7.61l0,0
			c-2.37,1.83-5.78,1.4-7.61-0.98l-8.53-11.05C169.51,488,169.95,484.59,172.32,482.76z"/>
		<path class="st51" d="M171.19,491.98l-16.37-1.37c-1.41-0.12-2.47-1.37-2.36-2.79l0,0c0.12-1.41,1.37-2.47,2.79-2.36l16.37,1.37
			c1.41,0.12,2.47,1.37,2.36,2.79l0,0C173.86,491.04,172.61,492.1,171.19,491.98z"/>
	</g>
	<g>
		<circle class="st51" cx="679.46" cy="639.75" r="8.9"/>
		<path class="st51" d="M699.12,630.78l-3.93,17.6c-0.31,1.38-1.7,2.26-3.08,1.96l0,0c-1.38-0.31-2.26-1.7-1.96-3.08l3.93-17.6
			c0.31-1.39,1.7-2.27,3.08-1.96h0C698.54,628.01,699.42,629.39,699.12,630.78z"/>
		<path class="st51" d="M717.18,683.37L717.18,683.37c-0.94,0.73-2.31,0.55-3.04-0.39l-14.97-19.38c-0.73-0.94-0.55-2.31,0.39-3.04
			l0,0c0.94-0.73,2.31-0.55,3.04,0.39l14.97,19.38C718.3,681.27,718.13,682.64,717.18,683.37z"/>
		<path class="st51" d="M697.86,691.56L697.86,691.56c-1.19,0.08-2.22-0.83-2.3-2.02l-1.58-24.44c-0.08-1.19,0.83-2.22,2.02-2.3l0,0
			c1.19-0.08,2.22,0.83,2.3,2.02l1.58,24.44C699.96,690.44,699.05,691.48,697.86,691.56z"/>
		<path class="st51" d="M685.32,646.76L685.32,646.76c2.37-1.83,5.78-1.4,7.61,0.98l8.53,11.05c1.83,2.37,1.4,5.78-0.98,7.61v0
			c-2.37,1.83-5.78,1.4-7.61-0.98l-8.53-11.05C682.51,652,682.95,648.59,685.32,646.76z"/>
		<path class="st51" d="M684.19,655.98l-16.37-1.37c-1.41-0.12-2.47-1.37-2.36-2.79l0,0c0.12-1.41,1.37-2.47,2.79-2.36l16.37,1.37
			c1.41,0.12,2.47,1.37,2.36,2.79l0,0C686.86,655.04,685.61,656.1,684.19,655.98z"/>
	</g>
	<g>
		<circle class="st51" cx="411.46" cy="348.75" r="8.9"/>
		<path class="st51" d="M431.12,339.78l-3.93,17.6c-0.31,1.38-1.7,2.26-3.08,1.96l0,0c-1.38-0.31-2.26-1.7-1.96-3.08l3.93-17.6
			c0.31-1.38,1.7-2.26,3.08-1.96l0,0C430.54,337.01,431.42,338.39,431.12,339.78z"/>
		<path class="st51" d="M449.18,392.37L449.18,392.37c-0.94,0.73-2.31,0.55-3.04-0.39l-14.97-19.38c-0.73-0.94-0.55-2.31,0.39-3.04
			l0,0c0.94-0.73,2.31-0.55,3.04,0.39l14.97,19.38C450.3,390.27,450.13,391.64,449.18,392.37z"/>
		<path class="st51" d="M429.86,400.56L429.86,400.56c-1.19,0.08-2.22-0.83-2.3-2.02l-1.58-24.44c-0.08-1.19,0.83-2.22,2.02-2.3l0,0
			c1.19-0.08,2.22,0.83,2.3,2.02l1.58,24.44C431.96,399.44,431.05,400.48,429.86,400.56z"/>
		<path class="st51" d="M417.32,355.76L417.32,355.76c2.37-1.83,5.78-1.4,7.61,0.98l8.53,11.05c1.83,2.37,1.4,5.78-0.98,7.61h0
			c-2.37,1.83-5.78,1.4-7.61-0.98l-8.53-11.05C414.51,361,414.95,357.59,417.32,355.76z"/>
		<path class="st51" d="M416.19,364.98l-16.37-1.37c-1.41-0.12-2.47-1.37-2.36-2.79l0,0c0.12-1.41,1.37-2.47,2.79-2.36l16.37,1.37
			c1.41,0.12,2.47,1.37,2.36,2.79l0,0C418.86,364.04,417.61,365.1,416.19,364.98z"/>
	</g>
	<g>
		<circle class="st51" cx="718.98" cy="324.43" r="8.9"/>
		<path class="st51" d="M697.7,328.18l13.22,12.27c1.04,0.97,2.68,0.9,3.65-0.14l0,0c0.97-1.04,0.9-2.68-0.14-3.65l-13.22-12.27
			c-1.04-0.97-2.68-0.9-3.65,0.14l0,0C696.6,325.58,696.66,327.22,697.7,328.18z"/>
		<path class="st51" d="M712.64,381.74L712.64,381.74c1.19,0.07,2.22-0.85,2.28-2.04l1.34-24.46c0.07-1.19-0.85-2.22-2.04-2.28l0,0
			c-1.19-0.07-2.22,0.85-2.28,2.04l-1.34,24.46C710.53,380.65,711.45,381.68,712.64,381.74z"/>
		<path class="st51" d="M733.2,377.53L733.2,377.53c1.02-0.61,1.36-1.95,0.75-2.97l-12.56-21.03c-0.61-1.02-1.95-1.36-2.97-0.75l0,0
			c-1.02,0.61-1.36,1.95-0.75,2.97l12.56,21.03C730.84,377.81,732.18,378.14,733.2,377.53z"/>
		<path class="st51" d="M718.13,333.52L718.13,333.52c-2.99-0.16-5.55,2.13-5.72,5.12l-0.76,13.94c-0.16,2.99,2.13,5.55,5.12,5.72
			l0,0c2.99,0.16,5.55-2.13,5.72-5.12l0.76-13.94C723.41,336.25,721.12,333.69,718.13,333.52z"/>
		<path class="st51" d="M724.28,340.48l12.7-10.41c1.1-0.9,1.26-2.53,0.36-3.63l0,0c-0.9-1.1-2.53-1.26-3.63-0.36l-12.7,10.41
			c-1.1,0.9-1.26,2.53-0.36,3.63l0,0C721.55,341.22,723.19,341.38,724.28,340.48z"/>
	</g>
	<g>
		<circle class="st51" cx="1075.98" cy="956.43" r="8.9"/>
		<path class="st51" d="M1054.7,960.18l13.22,12.27c1.04,0.97,2.68,0.9,3.65-0.14h0c0.97-1.04,0.9-2.68-0.14-3.65l-13.22-12.27
			c-1.04-0.97-2.68-0.9-3.65,0.14l0,0C1053.6,957.58,1053.66,959.22,1054.7,960.18z"/>
		<path class="st51" d="M1069.64,1013.74L1069.64,1013.74c1.19,0.07,2.22-0.85,2.28-2.04l1.34-24.46c0.07-1.19-0.85-2.22-2.04-2.28
			l0,0c-1.19-0.07-2.22,0.85-2.28,2.04l-1.34,24.46C1067.53,1012.65,1068.45,1013.68,1069.64,1013.74z"/>
		<path class="st51" d="M1090.2,1009.53L1090.2,1009.53c1.02-0.61,1.36-1.95,0.75-2.97l-12.56-21.03c-0.61-1.02-1.95-1.36-2.97-0.75
			l0,0c-1.02,0.61-1.36,1.95-0.75,2.97l12.56,21.03C1087.84,1009.81,1089.18,1010.14,1090.2,1009.53z"/>
		<path class="st51" d="M1075.13,965.52L1075.13,965.52c-2.99-0.16-5.55,2.13-5.72,5.12l-0.76,13.94c-0.16,2.99,2.13,5.55,5.12,5.72
			l0,0c2.99,0.16,5.55-2.13,5.72-5.12l0.76-13.94C1080.41,968.25,1078.12,965.69,1075.13,965.52z"/>
		<path class="st51" d="M1081.28,972.48l12.7-10.41c1.1-0.9,1.26-2.53,0.36-3.63l0,0c-0.9-1.1-2.53-1.26-3.63-0.36l-12.7,10.41
			c-1.1,0.9-1.26,2.53-0.36,3.63l0,0C1078.55,973.22,1080.19,973.38,1081.28,972.48z"/>
	</g>
	<g>
		<circle class="st51" cx="632.98" cy="897.43" r="8.9"/>
		<path class="st51" d="M611.7,901.18l13.22,12.27c1.04,0.97,2.68,0.9,3.65-0.14l0,0c0.97-1.04,0.9-2.68-0.14-3.65l-13.22-12.27
			c-1.04-0.97-2.68-0.9-3.65,0.14l0,0C610.6,898.58,610.66,900.22,611.7,901.18z"/>
		<path class="st51" d="M626.64,954.74L626.64,954.74c1.19,0.07,2.22-0.85,2.28-2.04l1.34-24.46c0.07-1.19-0.85-2.22-2.04-2.28l0,0
			c-1.19-0.07-2.22,0.85-2.28,2.04l-1.34,24.46C624.53,953.65,625.45,954.68,626.64,954.74z"/>
		<path class="st51" d="M647.2,950.53L647.2,950.53c1.02-0.61,1.36-1.95,0.75-2.97l-12.56-21.03c-0.61-1.02-1.95-1.36-2.97-0.75l0,0
			c-1.02,0.61-1.36,1.95-0.75,2.97l12.56,21.03C644.84,950.81,646.18,951.14,647.2,950.53z"/>
		<path class="st51" d="M632.13,906.52L632.13,906.52c-2.99-0.16-5.55,2.13-5.72,5.12l-0.76,13.94c-0.16,2.99,2.13,5.55,5.12,5.72
			l0,0c2.99,0.16,5.55-2.13,5.72-5.12l0.76-13.94C637.41,909.25,635.12,906.69,632.13,906.52z"/>
		<path class="st51" d="M638.28,913.48l12.7-10.41c1.1-0.9,1.26-2.53,0.36-3.63l0,0c-0.9-1.1-2.53-1.26-3.63-0.36l-12.7,10.41
			c-1.1,0.9-1.26,2.53-0.36,3.63l0,0C635.55,914.22,637.19,914.38,638.28,913.48z"/>
	</g>
	<g>
		<circle class="st51" cx="406.98" cy="618.43" r="8.9"/>
		<path class="st51" d="M385.7,622.18l13.22,12.27c1.04,0.97,2.68,0.9,3.65-0.14l0,0c0.97-1.04,0.9-2.68-0.14-3.65l-13.22-12.27
			c-1.04-0.97-2.68-0.9-3.65,0.14l0,0C384.6,619.58,384.66,621.22,385.7,622.18z"/>
		<path class="st51" d="M400.64,675.74L400.64,675.74c1.19,0.07,2.22-0.85,2.28-2.04l1.34-24.46c0.07-1.19-0.85-2.22-2.04-2.28l0,0
			c-1.19-0.07-2.22,0.85-2.28,2.04l-1.34,24.46C398.53,674.65,399.45,675.68,400.64,675.74z"/>
		<path class="st51" d="M421.2,671.53L421.2,671.53c1.02-0.61,1.36-1.95,0.75-2.97l-12.56-21.03c-0.61-1.02-1.95-1.36-2.97-0.75h0
			c-1.02,0.61-1.36,1.95-0.75,2.97l12.56,21.03C418.84,671.81,420.18,672.14,421.2,671.53z"/>
		<path class="st51" d="M406.13,627.52L406.13,627.52c-2.99-0.16-5.55,2.13-5.72,5.12l-0.76,13.94c-0.16,2.99,2.13,5.55,5.12,5.72h0
			c2.99,0.16,5.55-2.13,5.72-5.12l0.76-13.94C411.41,630.25,409.12,627.69,406.13,627.52z"/>
		<path class="st51" d="M412.28,634.48l12.7-10.41c1.1-0.9,1.26-2.53,0.36-3.63l0,0c-0.9-1.1-2.53-1.26-3.63-0.36l-12.7,10.41
			c-1.1,0.9-1.26,2.53-0.36,3.63l0,0C409.55,635.22,411.19,635.38,412.28,634.48z"/>
	</g>
	<g>
		<circle class="st51" cx="1044.98" cy="389.43" r="8.9"/>
		<path class="st51" d="M1023.7,393.18l13.22,12.27c1.04,0.97,2.68,0.9,3.65-0.14h0c0.97-1.04,0.9-2.68-0.14-3.65l-13.22-12.27
			c-1.04-0.97-2.68-0.9-3.65,0.14l0,0C1022.6,390.58,1022.66,392.22,1023.7,393.18z"/>
		<path class="st51" d="M1038.64,446.74L1038.64,446.74c1.19,0.07,2.22-0.85,2.28-2.04l1.34-24.46c0.07-1.19-0.85-2.22-2.04-2.28
			l0,0c-1.19-0.07-2.22,0.85-2.28,2.04l-1.34,24.46C1036.53,445.65,1037.45,446.68,1038.64,446.74z"/>
		<path class="st51" d="M1059.2,442.53L1059.2,442.53c1.02-0.61,1.36-1.95,0.75-2.97l-12.56-21.03c-0.61-1.02-1.95-1.36-2.97-0.75
			l0,0c-1.02,0.61-1.36,1.95-0.75,2.97l12.56,21.03C1056.84,442.81,1058.18,443.14,1059.2,442.53z"/>
		<path class="st51" d="M1044.13,398.52L1044.13,398.52c-2.99-0.16-5.55,2.13-5.72,5.12l-0.76,13.94c-0.16,2.99,2.13,5.55,5.12,5.72
			l0,0c2.99,0.16,5.55-2.13,5.72-5.12l0.76-13.94C1049.41,401.25,1047.12,398.69,1044.13,398.52z"/>
		<path class="st51" d="M1050.28,405.48l12.7-10.41c1.1-0.9,1.26-2.53,0.36-3.63l0,0c-0.9-1.1-2.53-1.26-3.63-0.36l-12.7,10.41
			c-1.1,0.9-1.26,2.53-0.36,3.63l0,0C1047.55,406.22,1049.19,406.38,1050.28,405.48z"/>
	</g>
	<g>
		<circle class="st51" cx="1632.98" cy="284.43" r="8.9"/>
		<path class="st51" d="M1611.7,288.18l13.22,12.27c1.04,0.97,2.68,0.9,3.65-0.14h0c0.97-1.04,0.9-2.68-0.14-3.65l-13.22-12.27
			c-1.04-0.97-2.68-0.9-3.65,0.14l0,0C1610.6,285.58,1610.66,287.22,1611.7,288.18z"/>
		<path class="st51" d="M1626.64,341.74L1626.64,341.74c1.19,0.07,2.22-0.85,2.28-2.04l1.34-24.46c0.07-1.19-0.85-2.22-2.04-2.28
			l0,0c-1.19-0.07-2.22,0.85-2.28,2.04l-1.34,24.46C1624.53,340.65,1625.45,341.68,1626.64,341.74z"/>
		<path class="st51" d="M1647.2,337.53L1647.2,337.53c1.02-0.61,1.36-1.95,0.75-2.97l-12.56-21.03c-0.61-1.02-1.95-1.36-2.97-0.75
			l0,0c-1.02,0.61-1.36,1.95-0.75,2.97l12.56,21.03C1644.84,337.81,1646.18,338.14,1647.2,337.53z"/>
		<path class="st51" d="M1632.13,293.52L1632.13,293.52c-2.99-0.16-5.55,2.13-5.72,5.12l-0.76,13.94c-0.16,2.99,2.13,5.55,5.12,5.72
			l0,0c2.99,0.16,5.55-2.13,5.72-5.12l0.76-13.94C1637.41,296.25,1635.12,293.69,1632.13,293.52z"/>
		<path class="st51" d="M1638.28,300.48l12.7-10.41c1.1-0.9,1.26-2.53,0.36-3.63l0,0c-0.9-1.1-2.53-1.26-3.63-0.36l-12.7,10.41
			c-1.1,0.9-1.26,2.53-0.36,3.63l0,0C1635.55,301.22,1637.19,301.38,1638.28,300.48z"/>
	</g>
	<g>
		<circle class="st51" cx="1443.98" cy="939.43" r="8.9"/>
		<path class="st51" d="M1422.7,943.18l13.22,12.27c1.04,0.97,2.68,0.9,3.65-0.14h0c0.97-1.04,0.9-2.68-0.14-3.65l-13.22-12.27
			c-1.04-0.97-2.68-0.9-3.65,0.14l0,0C1421.6,940.58,1421.66,942.22,1422.7,943.18z"/>
		<path class="st51" d="M1437.64,996.74L1437.64,996.74c1.19,0.07,2.22-0.85,2.28-2.04l1.34-24.46c0.07-1.19-0.85-2.22-2.04-2.28
			l0,0c-1.19-0.07-2.22,0.85-2.28,2.04l-1.34,24.46C1435.53,995.65,1436.45,996.68,1437.64,996.74z"/>
		<path class="st51" d="M1458.2,992.53L1458.2,992.53c1.02-0.61,1.36-1.95,0.75-2.97l-12.56-21.03c-0.61-1.02-1.95-1.36-2.97-0.75
			l0,0c-1.02,0.61-1.36,1.95-0.75,2.97l12.56,21.03C1455.84,992.81,1457.18,993.14,1458.2,992.53z"/>
		<path class="st51" d="M1443.13,948.52L1443.13,948.52c-2.99-0.16-5.55,2.13-5.72,5.12l-0.76,13.94c-0.16,2.99,2.13,5.55,5.12,5.72
			l0,0c2.99,0.16,5.55-2.13,5.72-5.12l0.76-13.94C1448.41,951.25,1446.12,948.69,1443.13,948.52z"/>
		<path class="st51" d="M1449.28,955.48l12.7-10.41c1.1-0.9,1.26-2.53,0.36-3.63l0,0c-0.9-1.1-2.53-1.26-3.63-0.36l-12.7,10.41
			c-1.1,0.9-1.26,2.53-0.36,3.63l0,0C1446.55,956.22,1448.19,956.38,1449.28,955.48z"/>
	</g>
	<g>
		<circle class="st51" cx="1818.98" cy="701.43" r="8.9"/>
		<path class="st51" d="M1797.7,705.18l13.22,12.27c1.04,0.97,2.68,0.9,3.65-0.14h0c0.97-1.04,0.9-2.68-0.14-3.65l-13.22-12.27
			c-1.04-0.97-2.68-0.9-3.65,0.14l0,0C1796.6,702.58,1796.66,704.22,1797.7,705.18z"/>
		<path class="st51" d="M1812.64,758.74L1812.64,758.74c1.19,0.07,2.22-0.85,2.28-2.04l1.34-24.46c0.07-1.19-0.85-2.22-2.04-2.28
			l0,0c-1.19-0.07-2.22,0.85-2.28,2.04l-1.34,24.46C1810.53,757.65,1811.45,758.68,1812.64,758.74z"/>
		<path class="st51" d="M1833.2,754.53L1833.2,754.53c1.02-0.61,1.36-1.95,0.75-2.97l-12.56-21.03c-0.61-1.02-1.95-1.36-2.97-0.75
			l0,0c-1.02,0.61-1.36,1.95-0.75,2.97l12.56,21.03C1830.84,754.81,1832.18,755.14,1833.2,754.53z"/>
		<path class="st51" d="M1818.13,710.52L1818.13,710.52c-2.99-0.16-5.55,2.13-5.72,5.12l-0.76,13.94c-0.16,2.99,2.13,5.55,5.12,5.72
			l0,0c2.99,0.16,5.55-2.13,5.72-5.12l0.76-13.94C1823.41,713.25,1821.12,710.69,1818.13,710.52z"/>
		<path class="st51" d="M1824.28,717.48l12.7-10.41c1.1-0.9,1.26-2.53,0.36-3.63l0,0c-0.9-1.1-2.53-1.26-3.63-0.36l-12.7,10.41
			c-1.1,0.9-1.26,2.53-0.36,3.63l0,0C1821.55,718.22,1823.19,718.38,1824.28,717.48z"/>
	</g>
	<g>
		<circle class="st51" cx="1308.98" cy="374.43" r="8.9"/>
		<path class="st51" d="M1287.7,378.18l13.22,12.27c1.04,0.97,2.68,0.9,3.65-0.14h0c0.97-1.04,0.9-2.68-0.14-3.65l-13.22-12.27
			c-1.04-0.97-2.68-0.9-3.65,0.14l0,0C1286.6,375.58,1286.66,377.22,1287.7,378.18z"/>
		<path class="st51" d="M1302.64,431.74L1302.64,431.74c1.19,0.07,2.22-0.85,2.28-2.04l1.34-24.46c0.07-1.19-0.85-2.22-2.04-2.28
			l0,0c-1.19-0.07-2.22,0.85-2.28,2.04l-1.34,24.46C1300.53,430.65,1301.45,431.68,1302.64,431.74z"/>
		<path class="st51" d="M1323.2,427.53L1323.2,427.53c1.02-0.61,1.36-1.95,0.75-2.97l-12.56-21.03c-0.61-1.02-1.95-1.36-2.97-0.75
			l0,0c-1.02,0.61-1.36,1.95-0.75,2.97l12.56,21.03C1320.84,427.81,1322.18,428.14,1323.2,427.53z"/>
		<path class="st51" d="M1308.13,383.52L1308.13,383.52c-2.99-0.16-5.55,2.13-5.72,5.12l-0.76,13.94c-0.16,2.99,2.13,5.55,5.12,5.72
			l0,0c2.99,0.16,5.55-2.13,5.72-5.12l0.76-13.94C1313.41,386.25,1311.12,383.69,1308.13,383.52z"/>
		<path class="st51" d="M1314.28,390.48l12.7-10.41c1.1-0.9,1.26-2.53,0.36-3.63l0,0c-0.9-1.1-2.53-1.26-3.63-0.36l-12.7,10.41
			c-1.1,0.9-1.26,2.53-0.36,3.63l0,0C1311.55,391.22,1313.19,391.38,1314.28,390.48z"/>
	</g>
	<linearGradient id="SVGID_1_" gradientUnits="userSpaceOnUse" x1="962" y1="-457.8483" x2="962" y2="1413.6173">
		<stop  offset="0" style="stop-color:#FFFFFF;stop-opacity:0.1"/>
		<stop  offset="0.0831" style="stop-color:#D9EAF5;stop-opacity:0.171"/>
		<stop  offset="0.2374" style="stop-color:#98C6E4;stop-opacity:0.3027"/>
		<stop  offset="0.3845" style="stop-color:#62A7D6;stop-opacity:0.4283"/>
		<stop  offset="0.5202" style="stop-color:#3790CB;stop-opacity:0.5442"/>
		<stop  offset="0.6422" style="stop-color:#197FC3;stop-opacity:0.6484"/>
		<stop  offset="0.7461" style="stop-color:#0775BE;stop-opacity:0.7371"/>
		<stop  offset="0.8197" style="stop-color:#0071BC;stop-opacity:0.8"/>
	</linearGradient>
	<path class="st65" d="M1747.81,8.18c-86.82,16.63-93.38,44.25-160.81,57c-119.13,22.52-146.76-54.6-302.65-57
		c-98.12-1.51-96.29,28.9-207.35,24c-99.67-4.4-107.71-29.18-193.65-24c-89.46,5.39-103.89,33.64-184.35,27
		c-67.39-5.56-68.83-26.33-131-27c-73.72-0.79-86.22,28.26-159,30c-78.01,1.87-77.5-31.17-144.34-30
		c-108.48,1.9-159.44,89.81-217.66,64c-15.62-6.92-34.23-23.13-47-64v154v850c0,51.33,0,102.67,0,154
		c42.44,7.69,104.58,13.72,176.19,0c86.82-16.63,93.38-44.25,160.81-57c119.13-22.52,146.76,54.6,302.65,57
		c98.12,1.51,96.29-28.9,207.35-24c99.67,4.4,107.71,29.18,193.65,24c89.46-5.39,103.89-33.64,184.35-27
		c67.39,5.56,68.83,26.33,131,27c73.72,0.79,86.22-28.26,159-30c78.01-1.87,77.5,31.17,144.34,30c108.48-1.9,159.44-89.81,217.66-64
		c15.62,6.92,34.23,23.13,47,64v-154c0-283.33,0-566.67,0-850c0-51.33,0-102.67,0-154C1881.56,0.49,1819.42-5.54,1747.81,8.18z"/>
</g>
<g id="Layer_2">
</g>
</svg>
