<?xml version="1.0" encoding="utf-8"?>
<!-- Generator: Adobe Illustrator 23.0.4, SVG Export Plug-In . SVG Version: 6.00 Build 0)  -->
<svg version="1.1" xmlns="http://www.w3.org/2000/svg" xmlns:xlink="http://www.w3.org/1999/xlink" x="0px" y="0px"
	 viewBox="0 0 1920 1380" style="enable-background:new 0 0 1920 1380;" xml:space="preserve">
<style type="text/css">
	.st0{fill:url(#Ozonlaag_2_);}
	.st1{fill:#FABB56;}
	.st2{fill:#DDBE9B;}
	.st3{fill:#489374;}
	.st4{fill:#D3424D;}
	.st5{fill:#AF2C3C;}
	.st6{fill:#287F5C;}
	.st7{fill:#38A179;}
	.st8{fill:#754C24;}
	.st9{fill:#2C966A;}
	.st10{fill:url(#Path_8_2_);}
	.st11{fill:url(#Path_9_2_);}
	.st12{fill:url(#Path_11_2_);}
	.st13{fill:url(#Path_17_2_);}
	.st14{fill:url(#Path_18_2_);}
	.st15{fill:url(#Path_20_2_);}
	.st16{fill:url(#Path_26_3_);}
	.st17{fill:url(#Path_27_3_);}
	.st18{fill:url(#Path_29_3_);}
	.st19{fill:url(#Path_26_4_);}
	.st20{fill:url(#Path_27_4_);}
	.st21{fill:url(#Path_29_4_);}
	.st22{fill:url(#Path_31_3_);}
	.st23{fill:url(#Path_31_4_);}
	.st24{fill:url(#Path_34_2_);}
	.st25{fill:#68A8C1;}
	.st26{fill:#71B5D8;}
	.st27{fill:#62A3BC;}
	.st28{fill:#78BFEA;}
	.st29{fill:#B3D9E5;}
	.st30{opacity:0.5;fill:#B3D9E5;enable-background:new    ;}
	.st31{fill:#3B5093;}
	.st32{fill:#485CAF;}
	.st33{fill:url(#Path_2_2_);}
	.st34{fill:#393D75;}
	.st35{fill:#585D89;}
	.st36{fill:#F23B68;}
	.st37{fill:#D32F5E;}
	.st38{fill:none;stroke:#585D89;stroke-miterlimit:10;}
	.st39{fill:#29C6B5;}
	.st40{fill:url(#Path_106_1_);}
	.st41{fill:#B72C5A;}
	.st42{fill:#445FB5;}
	.st43{opacity:0.7;fill:#393D75;enable-background:new    ;}
	.st44{opacity:0.7;fill:url(#Rectangle_47_2_);enable-background:new    ;}
	.st45{opacity:0.7;fill:url(#Rectangle_48_2_);enable-background:new    ;}
	.st46{opacity:0.7;fill:url(#Rectangle_49_2_);enable-background:new    ;}
	.st47{opacity:0.4;fill:#FDB65B;enable-background:new    ;}
	.st48{fill:#A52556;}
	.st49{fill:#5F3D75;}
	.st50{opacity:0.2;fill:#38A179;enable-background:new    ;}
	.st51{fill:url(#Rectangle_88_1_);}
	.st52{opacity:0.7;fill:url(#Rectangle_136_2_);enable-background:new    ;}
	.st53{opacity:0.7;fill:url(#Rectangle_137_2_);enable-background:new    ;}
	.st54{fill:#E6E6E6;}
	.st55{fill:#FFFFFF;}
	.st56{fill:#E2E2E2;}
	.st57{fill:none;}
	.st58{fill:#42477A;}
	.st59{fill:#394072;}
	.st60{fill:#888FB5;}
	.st61{fill:#2D3159;}
	.st62{fill:#E79DC0;}
	.st63{fill:#B72757;}
	.st64{fill:#337C5B;}
	.st65{fill:url(#Path_214_1_);}
	.st66{fill:url(#Path_216_1_);}
	.st67{fill:url(#Path_219_1_);}
	.st68{fill:url(#SVGID_1_);}
	.st69{fill:url(#SVGID_2_);}
	.st70{fill:url(#SVGID_3_);}
	.st71{fill:url(#SVGID_4_);}
	.st72{opacity:0.7;fill:url(#Rectangle_47_3_);enable-background:new    ;}
	.st73{opacity:0.7;fill:url(#Rectangle_48_3_);enable-background:new    ;}
	.st74{opacity:0.7;fill:url(#Rectangle_49_3_);enable-background:new    ;}
	.st75{opacity:0.7;fill:url(#Rectangle_136_3_);enable-background:new    ;}
	.st76{opacity:0.7;fill:url(#Rectangle_137_3_);enable-background:new    ;}
	.st77{fill:url(#Path_2_3_);}
	.st78{fill:#0071BC;}
	.st79{fill:#485EB0;}
	.st80{fill:url(#Path_77_1_);}
	.st81{fill:none;stroke:#485EB0;stroke-width:5;stroke-miterlimit:10;}
	.st82{fill:#CCCCCC;}
	.st83{opacity:0.54;fill:#CCCCCC;enable-background:new    ;}
	
		.st84{opacity:0.35;fill:none;stroke:#808080;stroke-width:0.5;stroke-linecap:round;stroke-miterlimit:10;enable-background:new    ;}
	.st85{fill:url(#Path_92_2_);}
	.st86{fill:url(#Path_93_2_);}
	.st87{fill:url(#Path_94_2_);}
	.st88{fill:url(#Path_95_2_);}
	.st89{fill:url(#Waterdunner_2_);}
	.st90{fill:url(#Waterdikker_5_);}
	.st91{fill:url(#Ozonlaag_3_);}
	.st92{fill:url(#Waterdikker_7_);}
	.st93{fill:url(#Waterdikker_8_);}
	.st94{fill:url(#Path_94_3_);}
	.st95{fill:url(#Path_95_3_);}
	.st96{fill:url(#Waterdikker_9_);}
	.st97{fill:url(#Waterdikker_10_);}
	.st98{fill:url(#SVGID_5_);}
	.st99{fill:url(#Waterdikker_11_);}
	.st100{fill:url(#Path_92_3_);}
	.st101{fill:url(#Path_93_3_);}
	.st102{fill:url(#Waterdunner_3_);}
	.st103{fill:#F2F2F2;}
</style>
<g id="Layer_1">
</g>
<g id="Layer_2">
</g>
<g id="intro">
	<rect class="st55" width="1920" height="1284"/>
	
		<linearGradient id="Ozonlaag_2_" gradientUnits="userSpaceOnUse" x1="-574.4897" y1="-355.5003" x2="-574.4916" y2="-357.0083" gradientTransform="matrix(1921 0 0 -709.0353 1104554 -251868.0312)">
		<stop  offset="0" style="stop-color:#FFFFFF;stop-opacity:0"/>
		<stop  offset="0.586" style="stop-color:#D6E4E0"/>
		<stop  offset="0.956" style="stop-color:#7FAA9F"/>
	</linearGradient>
	<path id="Ozonlaag" class="st0" d="M-3.97,1068.5h1923.09c-0.33-156.2-0.67-312.4-1-468.6
		c-161.22-85.95-508.04-243.14-973.57-240.4C492.6,362.16,155.74,514.21-4.98,599.9C-4.64,756.1-4.31,912.3-3.97,1068.5z"/>
	<ellipse id="Zon" class="st1" cx="265.46" cy="209.5" rx="130.21" ry="130"/>
	<g id="DUBBLEWOLK" transform="translate(-51 -55)">
		<path id="Path_66" class="st29" d="M383.41,374.41c15.58-9.36,38.51-24.33,63.46-12.62c7.71,3.62,14.49,9.27,20.42,16.05
			c1.98-1.15,3.93-2.3,5.81-3.43c15.58-9.36,38.51-24.33,63.46-12.62c2.07,0.97,3.44,3.01,6.01,3.33
			c47.16,5.94,66.19,70.23-9.95,72.37H225.14C298.01,419.82,348.91,395.13,383.41,374.41z"/>
		<path id="Path_67" class="st30" d="M522.63,334.41c15.58-9.36,38.51-24.33,63.46-12.62c7.71,3.62,14.49,9.27,20.42,16.05
			c1.98-1.15,3.93-2.3,5.81-3.43c15.58-9.36,38.51-24.33,63.46-12.62c2.07,0.97,3.44,3.01,6.01,3.33
			c47.16,5.94,66.19,70.23-9.95,72.37H364.36C437.23,379.82,488.14,355.13,522.63,334.41z"/>
	</g>
	<path id="GROTEWOLK" class="st29" d="M1719.2,62.91c15.46-9.36,38.22-24.33,62.97-12.62c7.65,3.62,14.38,9.27,20.26,16.05
		c1.97-1.15,3.9-2.3,5.76-3.43c15.46-9.36,38.21-24.33,62.97-12.62c2.05,0.97,3.41,3.01,5.96,3.33c46.8,5.94,65.68,70.23-9.87,72.37
		h-305.1C1634.45,108.32,1684.97,83.63,1719.2,62.91z"/>
	<path id="KLEINEWOLK" class="st29" d="M826.36,236.57h187.65c59.12,0.89,73.87-33.45,72.71-39.39
		C1084.6,186.33,997.82,199.46,826.36,236.57z"/>
	<path class="st78" d="M1919,721.1c-31.31,32.96-76.62,70.01-117.18,53.11c-23.72-9.88-30.32-31.75-56.35-53.11
		c-29.41-24.14-63.99-24.63-131.94-24.61c-197.23,0.04-217.67,0.6-248.59,24.61c-24.76,19.23-33.14,35.56-59.89,42.75
		c-45.65,12.26-67.73-22.8-120.19-42.75c-100.24-38.11-136.15,45.62-228.49,0c-43.06-21.27-48.64-46.09-88-50.52
		c-47.35-5.33-70.2,27.11-116.18,50.52c-93.82,47.78-121.43-24.75-260.46,0c-88.6,15.77-96.21,48.58-168.21,42.75
		c-56.4-4.56-73.88-26.49-136.22-42.75c-43.98-11.47-108.56-19.68-192.29,0V1089h2v252c31.26-25.45,76.5-54.04,117-41
		c23.68,7.63,30.28,24.51,56.26,41c29.37,18.64,63.89,19.01,131.74,19c196.92-0.03,217.33-0.46,248.2-19
		c24.72-14.84,33.09-27.45,59.8-33c45.58-9.46,67.62,17.6,120,33c100.09,29.42,135.93-35.22,228.13,0
		c42.99,16.42,48.57,35.58,87.87,39c47.27,4.11,70.09-20.93,116-39c93.68-36.88,121.24,19.11,260.06,0
		c88.46-12.18,96.06-37.5,167.94-33c56.31,3.52,73.77,20.45,136.01,33c43.91,8.86,108.39,15.19,191.99,0v-252h1V721.1z"/>
	<g>
		<path class="st55" d="M140.18,641.04v59.42h25.85v-59.42h42.18v161.92h-42.18v-66.67h-25.85v66.67H98V641.04H140.18z"/>
		<path class="st55" d="M263.54,764.63c0,6.65,1.13,11.08,3.4,13.27c2.27,2.19,4.84,3.29,7.71,3.29c3.63,0,6.46-1.47,8.5-4.42
			c2.04-2.95,3.06-8.58,3.06-16.89h36.74c-0.3,15.12-4.16,26.5-11.57,34.13c-7.41,7.63-19.58,11.45-36.51,11.45
			c-9.83,0-18.07-1.1-24.72-3.29c-6.65-2.19-12.02-5.82-16.1-10.89c-4.08-5.06-6.99-11.68-8.73-19.84
			c-1.74-8.16-2.61-18.06-2.61-29.71c0-11.79,0.98-21.77,2.95-29.93c1.96-8.16,5.06-14.81,9.3-19.96
			c4.23-5.14,9.64-8.88,16.21-11.22c6.58-2.34,14.47-3.52,23.7-3.52c8.16,0,15.31,0.98,21.43,2.95c6.12,1.97,11.26,5.26,15.42,9.87
			c4.16,4.61,7.26,10.66,9.3,18.14s3.06,16.82,3.06,28.01v12.47h-60.55V764.63z M283.61,706.58c-1.59-3.02-4.57-4.54-8.96-4.54
			c-4.24,0-7.14,1.51-8.73,4.54c-1.59,3.02-2.38,7.79-2.38,14.28v5.44h22.45v-5.44C285.99,714.36,285.2,709.6,283.61,706.58z"/>
		<path class="st55" d="M341.32,680.27v-36.06h40.82v36.06h16.1v27.44h-16.1v58.51c0,3.48,0.79,5.94,2.38,7.37
			c1.59,1.44,4.04,2.16,7.37,2.16h6.35v27.21c-3.78,0-7.56,0.11-11.34,0.34c-3.78,0.22-7.41,0.34-10.88,0.34
			c-6.2,0-11.49-0.26-15.88-0.79c-4.39-0.53-7.98-1.85-10.77-3.97c-2.8-2.12-4.84-5.25-6.12-9.41c-1.29-4.16-1.93-9.64-1.93-16.44
			v-65.31h-13.61v-27.44H341.32z"/>
		<path class="st55" d="M507.31,641.04v30.39H466.5v-30.39H507.31z M507.31,680.27v122.69H466.5V680.27H507.31z"/>
		<path class="st55" d="M556.53,771.66c0.45,2.12,1.21,3.85,2.27,5.21c1.96,2.88,4.84,4.31,8.62,4.31c3.17,0,5.93-0.91,8.28-2.72
			c2.34-1.81,3.51-4.38,3.51-7.71c0-3.63-1.47-6.43-4.42-8.39c-2.95-1.97-6.62-3.7-11-5.22c-4.39-1.51-9.11-3.1-14.17-4.76
			c-5.07-1.66-9.79-3.93-14.17-6.8c-4.39-2.87-8.05-6.69-11-11.45c-2.95-4.76-4.42-11-4.42-18.71c0-5.44,0.98-10.47,2.95-15.08
			c1.96-4.61,4.95-8.65,8.96-12.13c4-3.48,9.07-6.2,15.19-8.17c6.12-1.96,13.34-2.95,21.66-2.95c30.69,0,46.04,12.85,46.04,38.55
			h-35.38c0-5.29-0.94-8.88-2.83-10.77c-1.89-1.89-4.58-2.84-8.05-2.84c-3.03,0-5.52,0.83-7.48,2.49c-1.97,1.66-2.95,4.01-2.95,7.03
			c0,3.48,1.47,6.09,4.42,7.82c2.95,1.74,6.61,3.29,11,4.65c4.38,1.36,9.11,2.8,14.17,4.31c5.06,1.51,9.79,3.67,14.17,6.47
			c4.38,2.8,8.05,6.58,11,11.34c2.95,4.76,4.42,11.08,4.42,18.93c0,6.05-1.13,11.57-3.4,16.56c-2.27,4.99-5.48,9.3-9.64,12.92
			c-4.16,3.63-9.3,6.35-15.42,8.16c-6.12,1.81-13.04,2.72-20.75,2.72c-17.09,0-29.37-3.4-36.85-10.21s-11.23-16.93-11.23-30.39
			h35.83C555.84,767.28,556.07,769.54,556.53,771.66z"/>
		<path class="st55" d="M727.74,680.27v14.97h0.45c5.29-12.09,15.19-18.14,29.71-18.14c4.53,0,8.73,0.49,12.59,1.47
			c3.85,0.98,7.22,2.76,10.09,5.33c2.87,2.57,5.14,5.97,6.8,10.21c1.66,4.23,2.49,9.68,2.49,16.33v92.52h-40.82v-80.96
			c0-5.14-0.76-8.84-2.27-11.11c-1.51-2.27-4.08-3.4-7.71-3.4c-3.63,0-6.2,1.13-7.71,3.4c-1.51,2.27-2.27,5.98-2.27,11.11v80.96
			h-40.82V680.27H727.74z"/>
		<path class="st55" d="M905.19,765.31c-1.13,7.71-3.51,14.55-7.14,20.52c-3.63,5.97-8.88,10.73-15.76,14.28
			c-6.88,3.55-16.07,5.33-27.55,5.33c-11.94,0-21.4-1.63-28.35-4.88c-6.95-3.25-12.17-7.78-15.65-13.61
			c-3.48-5.82-5.71-12.62-6.69-20.41c-0.98-7.78-1.47-16.14-1.47-25.06c0-8.01,0.57-15.87,1.7-23.59
			c1.13-7.71,3.51-14.59,7.14-20.64s8.88-10.92,15.76-14.63c6.88-3.7,16.06-5.55,27.55-5.55c11.94,0,21.39,1.7,28.35,5.1
			c6.95,3.4,12.17,8.05,15.65,13.95c3.48,5.9,5.71,12.74,6.69,20.52c0.98,7.79,1.47,16.14,1.47,25.06
			C906.89,749.74,906.32,757.6,905.19,765.31z M843.85,760.66c0.3,4.92,0.91,8.81,1.81,11.68c0.91,2.87,2.08,4.84,3.52,5.9
			c1.43,1.06,3.29,1.59,5.55,1.59c2.27,0,4.16-0.53,5.67-1.59c1.51-1.06,2.68-3.02,3.52-5.9c0.83-2.87,1.4-6.76,1.7-11.68
			c0.3-4.91,0.45-11.23,0.45-18.94c0-7.71-0.15-14.06-0.45-19.05c-0.3-4.99-0.87-8.92-1.7-11.79c-0.83-2.87-2.01-4.84-3.52-5.89
			c-1.51-1.06-3.4-1.59-5.67-1.59c-2.27,0-4.12,0.53-5.55,1.59c-1.44,1.06-2.61,3.02-3.52,5.89c-0.91,2.88-1.51,6.8-1.81,11.79
			c-0.3,4.99-0.45,11.34-0.45,19.05C843.39,749.43,843.54,755.75,843.85,760.66z"/>
		<path class="st55" d="M1020.5,680.27v120.64c0,8.01-1.33,14.82-3.97,20.41c-2.65,5.59-6.27,10.05-10.89,13.38
			c-4.61,3.32-10.02,5.71-16.22,7.14c-6.2,1.44-12.92,2.16-20.18,2.16c-6.5,0-12.63-0.49-18.37-1.47
			c-5.75-0.99-10.77-2.76-15.08-5.33c-4.31-2.57-7.71-6.09-10.21-10.54c-2.49-4.46-3.82-10.17-3.97-17.12h36.74
			c0,3.02,0.91,5.36,2.72,7.03c1.81,1.66,4.31,2.49,7.48,2.49c1.51,0,3.02-0.15,4.54-0.46c1.51-0.3,2.84-0.98,3.97-2.04
			c1.14-1.06,2.08-2.57,2.84-4.54c0.75-1.97,1.13-4.69,1.13-8.16v-22.68h-0.45c-2.57,7.11-6.43,11.95-11.57,14.51
			c-5.14,2.57-10.51,3.85-16.1,3.85c-4.08,0-8.24-0.75-12.47-2.27c-4.23-1.51-8.09-4.46-11.57-8.85c-3.48-4.38-6.31-10.54-8.5-18.48
			c-2.19-7.94-3.29-18.26-3.29-30.96c0-11.79,0.87-21.66,2.61-29.6c1.74-7.94,4.23-14.29,7.48-19.05
			c3.25-4.76,7.22-8.16,11.91-10.21c4.68-2.04,9.98-3.06,15.87-3.06c5.74,0,11.11,1.51,16.1,4.54c4.99,3.02,8.62,8.24,10.89,15.65
			h0.46v-17.01H1020.5z M958.71,754.08c0.53,4.01,1.28,7.14,2.27,9.41c0.98,2.27,2.19,3.78,3.63,4.54c1.44,0.76,3.14,1.14,5.1,1.14
			c1.81,0,3.44-0.38,4.88-1.14c1.44-0.75,2.65-2.27,3.63-4.54c0.98-2.27,1.7-5.4,2.15-9.41c0.46-4,0.68-9.26,0.68-15.76
			c0-6.35-0.22-11.53-0.68-15.54c-0.45-4-1.17-7.14-2.15-9.41c-0.98-2.27-2.19-3.81-3.63-4.65c-1.44-0.83-3.06-1.25-4.88-1.25
			c-1.97,0-3.67,0.42-5.1,1.25c-1.44,0.83-2.65,2.38-3.63,4.65c-0.99,2.27-1.74,5.41-2.27,9.41c-0.53,4.01-0.79,9.18-0.79,15.54
			C957.91,744.82,958.17,750.08,958.71,754.08z"/>
		<path class="st55" d="M1127.76,680.27l10.2,88.21h0.46l12.02-88.21h43.54l12.02,88.21h0.45l10.21-88.21h39.46l-24.94,122.69
			h-46.26l-12.47-86.85h-0.45l-12.47,86.85h-46.26l-24.94-122.69H1127.76z"/>
		<path class="st55" d="M1301.47,764.63c0,6.65,1.13,11.08,3.4,13.27c2.27,2.19,4.84,3.29,7.71,3.29c3.63,0,6.47-1.47,8.5-4.42
			c2.04-2.95,3.06-8.58,3.06-16.89h36.74c-0.3,15.12-4.16,26.5-11.57,34.13c-7.41,7.63-19.58,11.45-36.51,11.45
			c-9.83,0-18.07-1.1-24.72-3.29c-6.66-2.19-12.02-5.82-16.1-10.89c-4.08-5.06-6.99-11.68-8.73-19.84
			c-1.74-8.16-2.61-18.06-2.61-29.71c0-11.79,0.98-21.77,2.95-29.93c1.96-8.16,5.06-14.81,9.3-19.96
			c4.23-5.14,9.64-8.88,16.21-11.22c6.58-2.34,14.47-3.52,23.7-3.52c8.16,0,15.31,0.98,21.43,2.95c6.12,1.97,11.26,5.26,15.42,9.87
			c4.16,4.61,7.26,10.66,9.3,18.14c2.04,7.48,3.06,16.82,3.06,28.01v12.47h-60.55V764.63z M1321.54,706.58
			c-1.59-3.02-4.58-4.54-8.96-4.54c-4.23,0-7.14,1.51-8.73,4.54c-1.59,3.02-2.38,7.79-2.38,14.28v5.44h22.45v-5.44
			C1323.92,714.36,1323.13,709.6,1321.54,706.58z"/>
		<path class="st55" d="M1412.81,680.27v14.97h0.45c5.29-12.09,15.19-18.14,29.71-18.14c4.53,0,8.73,0.49,12.59,1.47
			c3.85,0.98,7.22,2.76,10.09,5.33c2.87,2.57,5.14,5.97,6.8,10.21c1.66,4.23,2.49,9.68,2.49,16.33v92.52h-40.82v-80.96
			c0-5.14-0.76-8.84-2.27-11.11c-1.51-2.27-4.08-3.4-7.71-3.4c-3.63,0-6.2,1.13-7.71,3.4c-1.51,2.27-2.27,5.98-2.27,11.11v80.96
			h-40.82V680.27H1412.81z"/>
		<path class="st55" d="M1530.73,680.27v14.97h0.45c5.29-12.09,15.19-18.14,29.71-18.14c4.53,0,8.73,0.49,12.59,1.47
			c3.85,0.98,7.22,2.76,10.09,5.33c2.87,2.57,5.14,5.97,6.8,10.21c1.66,4.23,2.49,9.68,2.49,16.33v92.52h-40.82v-80.96
			c0-5.14-0.76-8.84-2.27-11.11c-1.51-2.27-4.08-3.4-7.71-3.4c-3.63,0-6.2,1.13-7.71,3.4c-1.51,2.27-2.27,5.98-2.27,11.11v80.96
			h-40.82V680.27H1530.73z"/>
		<path class="st55" d="M1646.39,764.63c0,6.65,1.13,11.08,3.4,13.27c2.27,2.19,4.84,3.29,7.71,3.29c3.63,0,6.47-1.47,8.5-4.42
			c2.04-2.95,3.06-8.58,3.06-16.89h36.74c-0.3,15.12-4.16,26.5-11.57,34.13c-7.41,7.63-19.58,11.45-36.51,11.45
			c-9.83,0-18.07-1.1-24.72-3.29c-6.66-2.19-12.02-5.82-16.1-10.89c-4.08-5.06-6.99-11.68-8.73-19.84
			c-1.74-8.16-2.61-18.06-2.61-29.71c0-11.79,0.98-21.77,2.95-29.93c1.96-8.16,5.06-14.81,9.3-19.96
			c4.23-5.14,9.64-8.88,16.21-11.22c6.58-2.34,14.47-3.52,23.7-3.52c8.16,0,15.31,0.98,21.43,2.95c6.12,1.97,11.26,5.26,15.42,9.87
			c4.16,4.61,7.26,10.66,9.3,18.14c2.04,7.48,3.06,16.82,3.06,28.01v12.47h-60.55V764.63z M1666.46,706.58
			c-1.59-3.02-4.58-4.54-8.96-4.54c-4.23,0-7.14,1.51-8.73,4.54c-1.59,3.02-2.38,7.79-2.38,14.28v5.44h22.45v-5.44
			C1668.84,714.36,1668.04,709.6,1666.46,706.58z"/>
		<path class="st55" d="M1757.73,680.27v14.97h0.45c5.29-12.09,15.19-18.14,29.71-18.14c4.53,0,8.73,0.49,12.59,1.47
			c3.85,0.98,7.22,2.76,10.09,5.33c2.87,2.57,5.14,5.97,6.8,10.21c1.66,4.23,2.49,9.68,2.49,16.33v92.52h-40.82v-80.96
			c0-5.14-0.76-8.84-2.27-11.11c-1.51-2.27-4.08-3.4-7.71-3.4c-3.63,0-6.2,1.13-7.71,3.4c-1.51,2.27-2.27,5.98-2.27,11.11v80.96
			h-40.82V680.27H1757.73z"/>
	</g>
	
		<linearGradient id="Waterdikker_5_" gradientUnits="userSpaceOnUse" x1="-574.3621" y1="-354.4664" x2="-574.3892" y2="-360.2444" gradientTransform="matrix(1368.8801 0 0 -241.4346 787637.125 -85842.7812)">
		<stop  offset="0.314" style="stop-color:#FFFFFF;stop-opacity:0.102"/>
		<stop  offset="0.345" style="stop-color:#ECF4FA;stop-opacity:0.165"/>
		<stop  offset="0.5" style="stop-color:#98C6E4;stop-opacity:0.459"/>
		<stop  offset="0.644" style="stop-color:#56A1D2;stop-opacity:0.694"/>
		<stop  offset="0.774" style="stop-color:#2786C6;stop-opacity:0.863"/>
		<stop  offset="0.885" style="stop-color:#0A76BE;stop-opacity:0.965"/>
		<stop  offset="0.963" style="stop-color:#0071BC"/>
	</linearGradient>
	<path id="Waterdikker_1_" class="st90" d="M2009.48,849.53L2009.48,849.53c0,0-142.87-69.69-323.62-89.53
		c-227.82-25.01-467.63,47.77-825.81,156.48c-100.87,30.61-172.28-11.04-171,14c2.1,41.16,181.44,39.04,342,54
		c151.68,18.7,422,10,422,10C1894.05,916.47,2176.05,868.47,2009.48,849.53z"/>
	
		<linearGradient id="Waterdikker_7_" gradientUnits="userSpaceOnUse" x1="-575.2269" y1="-356.3853" x2="-575.2418" y2="-359.5635" gradientTransform="matrix(1358.5299 168.0155 29.6335 -239.6091 792340 11479.4326)">
		<stop  offset="0.314" style="stop-color:#FFFFFF;stop-opacity:0.102"/>
		<stop  offset="0.345" style="stop-color:#ECF4FA;stop-opacity:0.165"/>
		<stop  offset="0.5" style="stop-color:#98C6E4;stop-opacity:0.459"/>
		<stop  offset="0.644" style="stop-color:#56A1D2;stop-opacity:0.694"/>
		<stop  offset="0.774" style="stop-color:#2786C6;stop-opacity:0.863"/>
		<stop  offset="0.885" style="stop-color:#0A76BE;stop-opacity:0.965"/>
		<stop  offset="0.963" style="stop-color:#0071BC"/>
	</linearGradient>
	<path id="Waterdikker_2_" class="st92" d="M571.49,873.39L571.49,873.39c0,0-73.29-47.69-170.62-70.73
		c-122.68-29.03-258.51-5.49-461.38,29.67c-57.13,9.9-93.3-17.66-94.29-3.9c-1.63,22.61,96.41,33.56,183.05,52.57
		c81.54,20.45,229.7,33.95,229.7,33.95C503.95,902.14,661.14,894.97,571.49,873.39z"/>
	<g id="Walvis1_1_" transform="translate(-47 8)">
		
			<linearGradient id="Path_94_2_" gradientUnits="userSpaceOnUse" x1="-481.4541" y1="-381.5442" x2="-481.2611" y2="-380.0712" gradientTransform="matrix(-35.6887 8.6288 -17.9464 -74.2259 -22753.7871 -23247.3574)">
			<stop  offset="0.107" style="stop-color:#FFFFFF"/>
			<stop  offset="0.131" style="stop-color:#EDEEEE"/>
			<stop  offset="0.228" style="stop-color:#ACB1B2"/>
			<stop  offset="0.32" style="stop-color:#767E7F"/>
			<stop  offset="0.404" style="stop-color:#4C5658"/>
			<stop  offset="0.481" style="stop-color:#2E393C"/>
			<stop  offset="0.546" style="stop-color:#1B282B"/>
			<stop  offset="0.592" style="stop-color:#152225"/>
		</linearGradient>
		<path id="Path_94_1_" class="st87" d="M1272.84,859.15c5.51,11.14,6.64,12.13,8.41,17.8c3.58,11.43,2.56,18.77,2.26,20.65
			c-0.97,6.1-3.73,13.22-5.74,13.01c-2.29-0.23-0.91-9.66-6.45-21.01c-2.39-4.73-5.52-9.05-9.25-12.81
			c-12.58-13.65-22.03-13.03-23.23-19.69c-1.62-9,13.47-22.32,21.92-19.66C1264.23,838.55,1264.15,841.58,1272.84,859.15z"/>
		
			<linearGradient id="Path_95_2_" gradientUnits="userSpaceOnUse" x1="-523.5147" y1="-372.5682" x2="-523.5137" y2="-370.9852" gradientTransform="matrix(-413.095 99.8783 -35.0618 -145.0151 -228139.4219 -771.9561)">
			<stop  offset="0.107" style="stop-color:#FFFFFF"/>
			<stop  offset="0.131" style="stop-color:#EDEEEE"/>
			<stop  offset="0.228" style="stop-color:#ACB1B2"/>
			<stop  offset="0.32" style="stop-color:#767E7F"/>
			<stop  offset="0.404" style="stop-color:#4C5658"/>
			<stop  offset="0.481" style="stop-color:#2E393C"/>
			<stop  offset="0.546" style="stop-color:#1B282B"/>
			<stop  offset="0.592" style="stop-color:#152225"/>
		</linearGradient>
		<path id="Path_95_1_" class="st88" d="M1256.88,866.66c1.79-2.16,1.7-1.64,17.2-13.73c14.81-11.56,22.22-17.34,26.93-21.56
			c15.76-14.12,14.73-16.99,22.73-20.09c5.77-2.23,10.67-2.43,20.85-7.09c5.95-2.73,8.99-4.82,11.03-8.14
			c1.49-2.73,2.79-5.55,3.88-8.46c-2.67-5.05-5.63-6.91-7.79-7.69c-2.55-0.93-3.45-0.15-10.47-0.89c-5.32-0.56-5.28-1.05-7.73-0.87
			c-3.95,0.3-4.76,1.63-9.05,2.19c-3.01,0.39-3.06-0.21-7.58-0.22c-7.68-0.02-8.04,1.7-12.96,1.08c-4.99-0.63-6.09-2.58-9.34-1.85
			c-2.98,0.68-5.03,3.01-6.33,4.95l-19.21,2.59c-10.98,2.93-19.88,5.32-25.69,6.9c-69.88,18.88-76.96,21.8-81.34,23.77
			c-5.61,2.78-11.52,4.9-17.62,6.31c-7.19,1.52-14.47,2.59-21.79,3.22c-5.4,0.41-10.27,0.5-10.49,1.85
			c-0.29,1.76,7.66,3.35,7.69,6.35c0.03,2.52-5.57,4.5-8.26,5.42c-16.91,5.73-28.43,6.87-28.43,6.87
			c-11.13,1.1-22.09,3.61-33.15,5.28c-8.84,1.34-21.7,3.39-37.45,6.32c-3.21-1.02-8.73-2.81-15.6-5.12
			c-15.77-5.31-19.02-6.8-24.83-6.53c-9,0.41-18.54,4.78-18.61,8.83c-0.04,2.46,3.45,2.61,9.82,8.57c6.31,5.9,6.74,9.35,11.68,11.54
			c3.11,1.29,6.52,1.65,9.83,1.04c-2.06,3.38-4.52,6.5-7.33,9.29c-2.38,2.37-4.85,4.34-13.51,10.11
			c-10.74,7.16-13.34,8.39-13.02,9.3c0.55,1.61,9.63,1.03,18.13-2.33c7.06-2.79,5.86-4.39,19.66-12.96
			c8.89-5.52,11.4-6.11,15.24-10.52c2.98-3.43,3.52-5.45,6.5-7.04c5-2.68,10.57-0.8,15.15,0.44c10.9,2.95,4.25-0.94,27.54,3.6
			c23.2,4.52,33.39,9.09,50.47,12.65c36.32,7.56,68.04,3.1,84.32,0.81c10.34-1.45,18.88-3.24,24.86-4.64
			c-4.74,4.86-8.7,10.44-11.74,16.52c-4.02,8.15-3.1,10.83-7.39,17.52c-3.92,6.11-6.51,6.72-13.01,14.09
			c-8.07,9.15-12.44,13.6-11.25,15.71c2.03,3.6,18.54-2.27,19.85-2.75c3.04-1.1,17.46-6.51,33.7-21.83
			c7.46-7.03,13.85-13.05,19.26-23.12C1250.88,886.29,1247.05,878.53,1256.88,866.66z"/>
	</g>
	
		<linearGradient id="Waterdikker_8_" gradientUnits="userSpaceOnUse" x1="-574.4628" y1="-356.6592" x2="-574.4777" y2="-359.8459" gradientTransform="matrix(1368.8801 0 0 -241.4346 787637.125 -85842.7812)">
		<stop  offset="0.314" style="stop-color:#FFFFFF;stop-opacity:0.102"/>
		<stop  offset="0.345" style="stop-color:#ECF4FA;stop-opacity:0.165"/>
		<stop  offset="0.5" style="stop-color:#98C6E4;stop-opacity:0.459"/>
		<stop  offset="0.644" style="stop-color:#56A1D2;stop-opacity:0.694"/>
		<stop  offset="0.774" style="stop-color:#2786C6;stop-opacity:0.863"/>
		<stop  offset="0.885" style="stop-color:#0A76BE;stop-opacity:0.965"/>
		<stop  offset="0.963" style="stop-color:#0071BC"/>
	</linearGradient>
	<path id="Waterdikker_3_" class="st93" d="M1600.29,880.3L1600.29,880.3c0,0-78.8-38.44-178.48-49.38
		c-125.65-13.79-257.91,26.35-455.45,86.3c-55.63,16.88-95.02-6.09-94.31,7.72c1.16,22.7,100.07,21.53,188.62,29.78
		c83.65,10.31,232.74,5.52,232.74,5.52C1536.63,917.22,1692.16,890.75,1600.29,880.3z"/>
	
		<linearGradient id="Waterdikker_9_" gradientUnits="userSpaceOnUse" x1="-574.1727" y1="-357.2018" x2="-574.1876" y2="-360.3885" gradientTransform="matrix(1368.8801 0 0 -241.4346 787637.125 -85842.7812)">
		<stop  offset="0.314" style="stop-color:#FFFFFF;stop-opacity:0.102"/>
		<stop  offset="0.345" style="stop-color:#ECF4FA;stop-opacity:0.165"/>
		<stop  offset="0.5" style="stop-color:#98C6E4;stop-opacity:0.459"/>
		<stop  offset="0.644" style="stop-color:#56A1D2;stop-opacity:0.694"/>
		<stop  offset="0.774" style="stop-color:#2786C6;stop-opacity:0.863"/>
		<stop  offset="0.885" style="stop-color:#0A76BE;stop-opacity:0.965"/>
		<stop  offset="0.963" style="stop-color:#0071BC"/>
	</linearGradient>
	<path id="Waterdikker_4_" class="st96" d="M1997.29,1011.3L1997.29,1011.3c0,0-78.8-38.44-178.48-49.38
		c-125.65-13.79-257.91,26.35-455.45,86.3c-55.63,16.88-95.02-6.09-94.31,7.72c1.16,22.7,100.07,21.53,188.62,29.78
		c83.65,10.31,232.74,5.52,232.74,5.52C1933.63,1048.22,2089.16,1021.75,1997.29,1011.3z"/>
	<linearGradient id="SVGID_1_" gradientUnits="userSpaceOnUse" x1="524.0429" y1="1811.3567" x2="520.266" y2="1003.1013">
		<stop  offset="0.314" style="stop-color:#FFFFFF;stop-opacity:0.102"/>
		<stop  offset="0.345" style="stop-color:#ECF4FA;stop-opacity:0.165"/>
		<stop  offset="0.5" style="stop-color:#98C6E4;stop-opacity:0.459"/>
		<stop  offset="0.644" style="stop-color:#56A1D2;stop-opacity:0.694"/>
		<stop  offset="0.774" style="stop-color:#2786C6;stop-opacity:0.863"/>
		<stop  offset="0.885" style="stop-color:#0A76BE;stop-opacity:0.965"/>
		<stop  offset="0.963" style="stop-color:#0071BC"/>
	</linearGradient>
	<path class="st68" d="M1039.29,1140.3c0,0-78.8-38.44-178.48-49.38c-67.82-7.45-137.57,0.83-218.47,19.44
		c-31.11-10.04-71.71-20.52-116.53-25.44c-125.65-13.79-257.91,26.35-455.45,86.3c-55.63,16.88-95.02-6.09-94.31,7.72
		c1.16,22.7,100.07,21.53,188.62,29.78c83.65,10.31,232.74,5.52,232.74,5.52c9.47-1.68,18.81-3.33,28-4.95
		c23.99,1.56,49.52,3.13,74.25,5.43c83.65,10.31,232.74,5.52,232.74,5.52C975.63,1177.22,1131.16,1150.75,1039.29,1140.3z"/>
	
		<linearGradient id="Waterdikker_10_" gradientUnits="userSpaceOnUse" x1="-575.2656" y1="-357.9971" x2="-575.2805" y2="-361.1837" gradientTransform="matrix(-1368.8801 0 0 -241.4346 -785976.0625 -85842.7812)">
		<stop  offset="0.314" style="stop-color:#FFFFFF;stop-opacity:0.102"/>
		<stop  offset="0.345" style="stop-color:#ECF4FA;stop-opacity:0.165"/>
		<stop  offset="0.5" style="stop-color:#98C6E4;stop-opacity:0.459"/>
		<stop  offset="0.644" style="stop-color:#56A1D2;stop-opacity:0.694"/>
		<stop  offset="0.774" style="stop-color:#2786C6;stop-opacity:0.863"/>
		<stop  offset="0.885" style="stop-color:#0A76BE;stop-opacity:0.965"/>
		<stop  offset="0.963" style="stop-color:#0071BC"/>
	</linearGradient>
	<path id="Waterdikker_6_" class="st97" d="M1159.74,1203.3L1159.74,1203.3c0,0,78.8-38.44,178.48-49.38
		c125.65-13.79,257.91,26.35,455.45,86.3c55.63,16.88,95.02-6.09,94.31,7.72c-1.16,22.7-100.07,21.53-188.62,29.78
		c-83.65,10.31-232.74,5.52-232.74,5.52C1223.41,1240.22,1067.88,1213.75,1159.74,1203.3z"/>
	<g id="Walvis2_1_">
		
			<linearGradient id="Path_92_2_" gradientUnits="userSpaceOnUse" x1="-499.2078" y1="-374.6864" x2="-499.0148" y2="-373.2134" gradientTransform="matrix(-28.7865 3.7228 -7.7429 -59.8715 -16779.4512 -19681.8652)">
			<stop  offset="0.107" style="stop-color:#FFFFFF"/>
			<stop  offset="0.131" style="stop-color:#EDEEEE"/>
			<stop  offset="0.228" style="stop-color:#ACB1B2"/>
			<stop  offset="0.32" style="stop-color:#767E7F"/>
			<stop  offset="0.404" style="stop-color:#4C5658"/>
			<stop  offset="0.481" style="stop-color:#2E393C"/>
			<stop  offset="0.546" style="stop-color:#1B282B"/>
			<stop  offset="0.592" style="stop-color:#152225"/>
		</linearGradient>
		<path id="Path_92_1_" class="st85" d="M494.74,845.64c3.37,9.23,4.17,10.11,5.08,14.71c1.83,9.29,0.4,14.97,0.01,16.43
			c-1.29,4.7-4.06,10.07-5.63,9.74c-1.78-0.38,0.12-7.67-3.27-17.07c-1.48-3.92-3.56-7.59-6.17-10.86
			c-8.72-11.81-16.2-12.13-16.57-17.46c-0.5-7.21,12.5-16.39,18.92-13.58C489.74,828.7,489.42,831.08,494.74,845.64z"/>
		
			<linearGradient id="Path_93_2_" gradientUnits="userSpaceOnUse" x1="-567.9884" y1="-365.1534" x2="-567.9874" y2="-363.5704" gradientTransform="matrix(-333.2246 43.0943 -15.1264 -116.9641 -194374.9688 -17308.9355)">
			<stop  offset="0.107" style="stop-color:#FFFFFF"/>
			<stop  offset="0.131" style="stop-color:#EDEEEE"/>
			<stop  offset="0.228" style="stop-color:#ACB1B2"/>
			<stop  offset="0.32" style="stop-color:#767E7F"/>
			<stop  offset="0.404" style="stop-color:#4C5658"/>
			<stop  offset="0.481" style="stop-color:#2E393C"/>
			<stop  offset="0.546" style="stop-color:#1B282B"/>
			<stop  offset="0.592" style="stop-color:#152225"/>
		</linearGradient>
		<path id="Path_93_1_" class="st86" d="M481.55,850.17c1.59-1.54,1.47-1.14,14.69-9.32c12.63-7.81,18.95-11.72,23.01-14.63
			c13.59-9.74,13.03-12.09,19.59-13.84c4.72-1.26,8.6-0.99,17-3.79c4.91-1.63,7.47-3.02,9.36-5.45c1.41-2.01,2.67-4.13,3.78-6.32
			c-1.67-4.2-3.84-5.91-5.46-6.71c-1.93-0.95-2.7-0.41-8.15-1.6c-4.13-0.89-4.06-1.28-6-1.34c-3.13-0.1-3.88,0.87-7.3,0.94
			c-2.4,0.05-2.39-0.43-5.94-0.82c-6.04-0.67-6.46,0.65-10.28-0.26c-3.86-0.92-4.57-2.55-7.18-2.25c-2.16,0.39-4.09,1.59-5.4,3.35
			l-15.32,0.39c-8.88,1.36-16.08,2.48-20.78,3.22c-56.54,8.85-62.35,10.54-65.96,11.71c-4.65,1.7-9.48,2.86-14.39,3.45
			c-5.78,0.58-11.59,0.8-17.4,0.66c-4.28-0.14-8.11-0.49-8.41,0.56c-0.38,1.36,5.73,3.29,5.5,5.65c-0.19,1.98-4.76,3.06-6.96,3.55
			c-7.52,1.78-15.21,2.77-22.93,2.97c-8.84-0.09-17.67,0.94-26.5,1.31c-7.06,0.29-17.34,0.81-29.98,1.76
			c-2.43-1.08-6.62-2.95-11.82-5.36c-11.94-5.52-14.37-6.98-18.96-7.26c-7.11-0.45-14.98,2.17-15.38,5.35
			c-0.24,1.93,2.48,2.35,6.99,7.58c4.46,5.18,4.5,7.93,8.19,10.07c2.33,1.28,4.98,1.86,7.63,1.66c-1.91,2.48-4.11,4.72-6.56,6.68
			c-2.07,1.66-4.18,2.99-11.49,6.78c-9.06,4.7-11.2,5.45-11.03,6.2c0.29,1.31,7.48,1.63,14.45-0.28c5.79-1.59,4.98-2.95,16.57-8.5
			c7.46-3.57,9.48-3.82,12.88-6.96c2.64-2.44,3.24-3.98,5.72-4.97c4.16-1.68,8.38,0.28,11.87,1.64c8.31,3.25,3.42-0.38,21.34,5.19
			c17.85,5.54,25.47,10.01,38.59,14.26c27.9,9.05,53.21,8.27,66.2,7.87c8.25-0.26,15.11-0.93,19.94-1.52
			c-4.15,3.41-7.74,7.45-10.65,11.96c-3.86,6.06-3.37,8.25-7.31,13.13c-3.6,4.46-5.69,4.73-11.43,9.96
			c-7.13,6.5-10.94,9.63-10.19,11.39c1.29,3.01,14.77-0.2,15.84-0.46c2.49-0.6,14.28-3.62,28.36-14.27
			c6.46-4.89,12-9.07,17.12-16.52C475.15,865.08,472.81,858.65,481.55,850.17z"/>
	</g>
	
		<linearGradient id="Waterdunner_2_" gradientUnits="userSpaceOnUse" x1="-574.5468" y1="-354.7225" x2="-574.5728" y2="-361.0285" gradientTransform="matrix(1404.0475 0 0 -221.1639 807291.3125 -78673.6797)">
		<stop  offset="0.314" style="stop-color:#FFFFFF;stop-opacity:0.102"/>
		<stop  offset="0.343" style="stop-color:#ECF4FA;stop-opacity:0.165"/>
		<stop  offset="0.487" style="stop-color:#98C6E4;stop-opacity:0.459"/>
		<stop  offset="0.622" style="stop-color:#56A1D2;stop-opacity:0.694"/>
		<stop  offset="0.743" style="stop-color:#2786C6;stop-opacity:0.863"/>
		<stop  offset="0.846" style="stop-color:#0A76BE;stop-opacity:0.965"/>
		<stop  offset="0.919" style="stop-color:#0071BC"/>
	</linearGradient>
	<path id="Waterdunner_1_" class="st89" d="M-44,946.03c67-13.32,95.12-5.85,149.11-15.33c29.16-5.12,72.18-16.3,122.89-44.15
		c0,0,91.07-33.9,350-72.13c351.49-51.89,697.71,111.12,693,155.65c-4.23,40.06-284.31-92.16-704,10.12l0,0
		c-358,89.5-700.04,23.82-700-5.89C-132.98,963.72-89.55,955.09-44,946.03z"/>
	<path class="st103" d="M957.5,1041c-14.06,0-25.5-11.44-25.5-25.5v-33c0-14.06,11.44-25.5,25.5-25.5s25.5,11.44,25.5,25.5v33
		C983,1029.56,971.56,1041,957.5,1041z M957.5,961c-11.86,0-21.5,9.64-21.5,21.5v33c0,11.86,9.64,21.5,21.5,21.5
		s21.5-9.64,21.5-21.5v-33C979,970.64,969.36,961,957.5,961z"/>
	<circle class="st103" cx="957.5" cy="1023.5" r="4.5"/>
</g>
</svg>
